%TF.GenerationSoftware,KiCad,Pcbnew,8.0.9-8.0.9-0~ubuntu22.04.1*%
%TF.CreationDate,2025-06-19T12:15:12-04:00*%
%TF.ProjectId,digital_waters,64696769-7461-46c5-9f77-61746572732e,rev?*%
%TF.SameCoordinates,Original*%
%TF.FileFunction,Drillmap*%
%TF.FilePolarity,Positive*%
%FSLAX45Y45*%
G04 Gerber Fmt 4.5, Leading zero omitted, Abs format (unit mm)*
G04 Created by KiCad (PCBNEW 8.0.9-8.0.9-0~ubuntu22.04.1) date 2025-06-19 12:15:12*
%MOMM*%
%LPD*%
G01*
G04 APERTURE LIST*
%ADD10C,0.050000*%
%ADD11C,0.200000*%
%ADD12C,0.270000*%
G04 APERTURE END LIST*
D10*
X5234733Y-4281882D02*
X24084732Y-4281882D01*
X24084732Y-12481882D01*
X5234733Y-12481882D01*
X5234733Y-4281882D01*
D11*
D12*
X5365000Y-4465000D02*
X5635000Y-4735000D01*
X5635000Y-4465000D02*
X5365000Y-4735000D01*
X5365000Y-12065000D02*
X5635000Y-12335000D01*
X5635000Y-12065000D02*
X5365000Y-12335000D01*
X9899733Y-4796882D02*
X10169733Y-5066882D01*
X10169733Y-4796882D02*
X9899733Y-5066882D01*
X9899733Y-7196882D02*
X10169733Y-7466882D01*
X10169733Y-7196882D02*
X9899733Y-7466882D01*
X13299732Y-4796882D02*
X13569732Y-5066882D01*
X13569732Y-4796882D02*
X13299732Y-5066882D01*
X13299732Y-7196882D02*
X13569732Y-7466882D01*
X13569732Y-7196882D02*
X13299732Y-7466882D01*
X15799732Y-4796882D02*
X16069732Y-5066882D01*
X16069732Y-4796882D02*
X15799732Y-5066882D01*
X15799732Y-7196882D02*
X16069732Y-7466882D01*
X16069732Y-7196882D02*
X15799732Y-7466882D01*
X16465000Y-12065000D02*
X16735000Y-12335000D01*
X16735000Y-12065000D02*
X16465000Y-12335000D01*
X16601139Y-8320540D02*
X16871139Y-8590540D01*
X16871139Y-8320540D02*
X16601139Y-8590540D01*
X16601139Y-10620540D02*
X16871139Y-10890540D01*
X16871139Y-10620540D02*
X16601139Y-10890540D01*
X19449733Y-4796882D02*
X19719733Y-5066882D01*
X19719733Y-4796882D02*
X19449733Y-5066882D01*
X19449733Y-7196882D02*
X19719733Y-7466882D01*
X19719733Y-7196882D02*
X19449733Y-7466882D01*
X21865000Y-4465000D02*
X22135000Y-4735000D01*
X22135000Y-4465000D02*
X21865000Y-4735000D01*
X22401139Y-8320540D02*
X22671139Y-8590540D01*
X22671139Y-8320540D02*
X22401139Y-8590540D01*
X22401139Y-10620540D02*
X22671139Y-10890540D01*
X22671139Y-10620540D02*
X22401139Y-10890540D01*
X23265000Y-10665000D02*
X23535000Y-10935000D01*
X23535000Y-10665000D02*
X23265000Y-10935000D01*
D11*
X5493009Y-12795865D02*
X5493009Y-12595865D01*
X5493009Y-12595865D02*
X5540628Y-12595865D01*
X5540628Y-12595865D02*
X5569200Y-12605389D01*
X5569200Y-12605389D02*
X5588247Y-12624437D01*
X5588247Y-12624437D02*
X5597771Y-12643484D01*
X5597771Y-12643484D02*
X5607295Y-12681580D01*
X5607295Y-12681580D02*
X5607295Y-12710151D01*
X5607295Y-12710151D02*
X5597771Y-12748246D01*
X5597771Y-12748246D02*
X5588247Y-12767294D01*
X5588247Y-12767294D02*
X5569200Y-12786342D01*
X5569200Y-12786342D02*
X5540628Y-12795865D01*
X5540628Y-12795865D02*
X5493009Y-12795865D01*
X5693009Y-12795865D02*
X5693009Y-12662532D01*
X5693009Y-12700627D02*
X5702533Y-12681580D01*
X5702533Y-12681580D02*
X5712057Y-12672056D01*
X5712057Y-12672056D02*
X5731104Y-12662532D01*
X5731104Y-12662532D02*
X5750152Y-12662532D01*
X5816819Y-12795865D02*
X5816819Y-12662532D01*
X5816819Y-12595865D02*
X5807295Y-12605389D01*
X5807295Y-12605389D02*
X5816819Y-12614913D01*
X5816819Y-12614913D02*
X5826343Y-12605389D01*
X5826343Y-12605389D02*
X5816819Y-12595865D01*
X5816819Y-12595865D02*
X5816819Y-12614913D01*
X5940628Y-12795865D02*
X5921581Y-12786342D01*
X5921581Y-12786342D02*
X5912057Y-12767294D01*
X5912057Y-12767294D02*
X5912057Y-12595865D01*
X6045390Y-12795865D02*
X6026343Y-12786342D01*
X6026343Y-12786342D02*
X6016819Y-12767294D01*
X6016819Y-12767294D02*
X6016819Y-12595865D01*
X6273962Y-12795865D02*
X6273962Y-12595865D01*
X6273962Y-12595865D02*
X6340628Y-12738722D01*
X6340628Y-12738722D02*
X6407295Y-12595865D01*
X6407295Y-12595865D02*
X6407295Y-12795865D01*
X6588247Y-12795865D02*
X6588247Y-12691103D01*
X6588247Y-12691103D02*
X6578724Y-12672056D01*
X6578724Y-12672056D02*
X6559676Y-12662532D01*
X6559676Y-12662532D02*
X6521581Y-12662532D01*
X6521581Y-12662532D02*
X6502533Y-12672056D01*
X6588247Y-12786342D02*
X6569200Y-12795865D01*
X6569200Y-12795865D02*
X6521581Y-12795865D01*
X6521581Y-12795865D02*
X6502533Y-12786342D01*
X6502533Y-12786342D02*
X6493009Y-12767294D01*
X6493009Y-12767294D02*
X6493009Y-12748246D01*
X6493009Y-12748246D02*
X6502533Y-12729199D01*
X6502533Y-12729199D02*
X6521581Y-12719675D01*
X6521581Y-12719675D02*
X6569200Y-12719675D01*
X6569200Y-12719675D02*
X6588247Y-12710151D01*
X6683485Y-12662532D02*
X6683485Y-12862532D01*
X6683485Y-12672056D02*
X6702533Y-12662532D01*
X6702533Y-12662532D02*
X6740628Y-12662532D01*
X6740628Y-12662532D02*
X6759676Y-12672056D01*
X6759676Y-12672056D02*
X6769200Y-12681580D01*
X6769200Y-12681580D02*
X6778724Y-12700627D01*
X6778724Y-12700627D02*
X6778724Y-12757770D01*
X6778724Y-12757770D02*
X6769200Y-12776818D01*
X6769200Y-12776818D02*
X6759676Y-12786342D01*
X6759676Y-12786342D02*
X6740628Y-12795865D01*
X6740628Y-12795865D02*
X6702533Y-12795865D01*
X6702533Y-12795865D02*
X6683485Y-12786342D01*
X6864438Y-12776818D02*
X6873962Y-12786342D01*
X6873962Y-12786342D02*
X6864438Y-12795865D01*
X6864438Y-12795865D02*
X6854914Y-12786342D01*
X6854914Y-12786342D02*
X6864438Y-12776818D01*
X6864438Y-12776818D02*
X6864438Y-12795865D01*
X6864438Y-12672056D02*
X6873962Y-12681580D01*
X6873962Y-12681580D02*
X6864438Y-12691103D01*
X6864438Y-12691103D02*
X6854914Y-12681580D01*
X6854914Y-12681580D02*
X6864438Y-12672056D01*
X6864438Y-12672056D02*
X6864438Y-12691103D01*
X5032233Y-13024382D02*
X5232233Y-13224382D01*
X5232233Y-13024382D02*
X5032233Y-13224382D01*
X5483486Y-13034913D02*
X5493009Y-13025389D01*
X5493009Y-13025389D02*
X5512057Y-13015865D01*
X5512057Y-13015865D02*
X5559676Y-13015865D01*
X5559676Y-13015865D02*
X5578724Y-13025389D01*
X5578724Y-13025389D02*
X5588247Y-13034913D01*
X5588247Y-13034913D02*
X5597771Y-13053961D01*
X5597771Y-13053961D02*
X5597771Y-13073008D01*
X5597771Y-13073008D02*
X5588247Y-13101580D01*
X5588247Y-13101580D02*
X5473962Y-13215865D01*
X5473962Y-13215865D02*
X5597771Y-13215865D01*
X5683485Y-13196818D02*
X5693009Y-13206342D01*
X5693009Y-13206342D02*
X5683485Y-13215865D01*
X5683485Y-13215865D02*
X5673962Y-13206342D01*
X5673962Y-13206342D02*
X5683485Y-13196818D01*
X5683485Y-13196818D02*
X5683485Y-13215865D01*
X5759676Y-13015865D02*
X5893009Y-13015865D01*
X5893009Y-13015865D02*
X5807295Y-13215865D01*
X6007295Y-13015865D02*
X6026343Y-13015865D01*
X6026343Y-13015865D02*
X6045390Y-13025389D01*
X6045390Y-13025389D02*
X6054914Y-13034913D01*
X6054914Y-13034913D02*
X6064438Y-13053961D01*
X6064438Y-13053961D02*
X6073962Y-13092056D01*
X6073962Y-13092056D02*
X6073962Y-13139675D01*
X6073962Y-13139675D02*
X6064438Y-13177770D01*
X6064438Y-13177770D02*
X6054914Y-13196818D01*
X6054914Y-13196818D02*
X6045390Y-13206342D01*
X6045390Y-13206342D02*
X6026343Y-13215865D01*
X6026343Y-13215865D02*
X6007295Y-13215865D01*
X6007295Y-13215865D02*
X5988247Y-13206342D01*
X5988247Y-13206342D02*
X5978724Y-13196818D01*
X5978724Y-13196818D02*
X5969200Y-13177770D01*
X5969200Y-13177770D02*
X5959676Y-13139675D01*
X5959676Y-13139675D02*
X5959676Y-13092056D01*
X5959676Y-13092056D02*
X5969200Y-13053961D01*
X5969200Y-13053961D02*
X5978724Y-13034913D01*
X5978724Y-13034913D02*
X5988247Y-13025389D01*
X5988247Y-13025389D02*
X6007295Y-13015865D01*
X6197771Y-13015865D02*
X6216819Y-13015865D01*
X6216819Y-13015865D02*
X6235866Y-13025389D01*
X6235866Y-13025389D02*
X6245390Y-13034913D01*
X6245390Y-13034913D02*
X6254914Y-13053961D01*
X6254914Y-13053961D02*
X6264438Y-13092056D01*
X6264438Y-13092056D02*
X6264438Y-13139675D01*
X6264438Y-13139675D02*
X6254914Y-13177770D01*
X6254914Y-13177770D02*
X6245390Y-13196818D01*
X6245390Y-13196818D02*
X6235866Y-13206342D01*
X6235866Y-13206342D02*
X6216819Y-13215865D01*
X6216819Y-13215865D02*
X6197771Y-13215865D01*
X6197771Y-13215865D02*
X6178724Y-13206342D01*
X6178724Y-13206342D02*
X6169200Y-13196818D01*
X6169200Y-13196818D02*
X6159676Y-13177770D01*
X6159676Y-13177770D02*
X6150152Y-13139675D01*
X6150152Y-13139675D02*
X6150152Y-13092056D01*
X6150152Y-13092056D02*
X6159676Y-13053961D01*
X6159676Y-13053961D02*
X6169200Y-13034913D01*
X6169200Y-13034913D02*
X6178724Y-13025389D01*
X6178724Y-13025389D02*
X6197771Y-13015865D01*
X6350152Y-13215865D02*
X6350152Y-13082532D01*
X6350152Y-13101580D02*
X6359676Y-13092056D01*
X6359676Y-13092056D02*
X6378724Y-13082532D01*
X6378724Y-13082532D02*
X6407295Y-13082532D01*
X6407295Y-13082532D02*
X6426343Y-13092056D01*
X6426343Y-13092056D02*
X6435866Y-13111103D01*
X6435866Y-13111103D02*
X6435866Y-13215865D01*
X6435866Y-13111103D02*
X6445390Y-13092056D01*
X6445390Y-13092056D02*
X6464438Y-13082532D01*
X6464438Y-13082532D02*
X6493009Y-13082532D01*
X6493009Y-13082532D02*
X6512057Y-13092056D01*
X6512057Y-13092056D02*
X6521581Y-13111103D01*
X6521581Y-13111103D02*
X6521581Y-13215865D01*
X6616819Y-13215865D02*
X6616819Y-13082532D01*
X6616819Y-13101580D02*
X6626343Y-13092056D01*
X6626343Y-13092056D02*
X6645390Y-13082532D01*
X6645390Y-13082532D02*
X6673962Y-13082532D01*
X6673962Y-13082532D02*
X6693009Y-13092056D01*
X6693009Y-13092056D02*
X6702533Y-13111103D01*
X6702533Y-13111103D02*
X6702533Y-13215865D01*
X6702533Y-13111103D02*
X6712057Y-13092056D01*
X6712057Y-13092056D02*
X6731105Y-13082532D01*
X6731105Y-13082532D02*
X6759676Y-13082532D01*
X6759676Y-13082532D02*
X6778724Y-13092056D01*
X6778724Y-13092056D02*
X6788247Y-13111103D01*
X6788247Y-13111103D02*
X6788247Y-13215865D01*
X7178724Y-13006342D02*
X7007295Y-13263484D01*
X7435867Y-13015865D02*
X7454914Y-13015865D01*
X7454914Y-13015865D02*
X7473962Y-13025389D01*
X7473962Y-13025389D02*
X7483486Y-13034913D01*
X7483486Y-13034913D02*
X7493009Y-13053961D01*
X7493009Y-13053961D02*
X7502533Y-13092056D01*
X7502533Y-13092056D02*
X7502533Y-13139675D01*
X7502533Y-13139675D02*
X7493009Y-13177770D01*
X7493009Y-13177770D02*
X7483486Y-13196818D01*
X7483486Y-13196818D02*
X7473962Y-13206342D01*
X7473962Y-13206342D02*
X7454914Y-13215865D01*
X7454914Y-13215865D02*
X7435867Y-13215865D01*
X7435867Y-13215865D02*
X7416819Y-13206342D01*
X7416819Y-13206342D02*
X7407295Y-13196818D01*
X7407295Y-13196818D02*
X7397771Y-13177770D01*
X7397771Y-13177770D02*
X7388248Y-13139675D01*
X7388248Y-13139675D02*
X7388248Y-13092056D01*
X7388248Y-13092056D02*
X7397771Y-13053961D01*
X7397771Y-13053961D02*
X7407295Y-13034913D01*
X7407295Y-13034913D02*
X7416819Y-13025389D01*
X7416819Y-13025389D02*
X7435867Y-13015865D01*
X7588248Y-13196818D02*
X7597771Y-13206342D01*
X7597771Y-13206342D02*
X7588248Y-13215865D01*
X7588248Y-13215865D02*
X7578724Y-13206342D01*
X7578724Y-13206342D02*
X7588248Y-13196818D01*
X7588248Y-13196818D02*
X7588248Y-13215865D01*
X7788248Y-13215865D02*
X7673962Y-13215865D01*
X7731105Y-13215865D02*
X7731105Y-13015865D01*
X7731105Y-13015865D02*
X7712057Y-13044437D01*
X7712057Y-13044437D02*
X7693009Y-13063484D01*
X7693009Y-13063484D02*
X7673962Y-13073008D01*
X7912057Y-13015865D02*
X7931105Y-13015865D01*
X7931105Y-13015865D02*
X7950152Y-13025389D01*
X7950152Y-13025389D02*
X7959676Y-13034913D01*
X7959676Y-13034913D02*
X7969200Y-13053961D01*
X7969200Y-13053961D02*
X7978724Y-13092056D01*
X7978724Y-13092056D02*
X7978724Y-13139675D01*
X7978724Y-13139675D02*
X7969200Y-13177770D01*
X7969200Y-13177770D02*
X7959676Y-13196818D01*
X7959676Y-13196818D02*
X7950152Y-13206342D01*
X7950152Y-13206342D02*
X7931105Y-13215865D01*
X7931105Y-13215865D02*
X7912057Y-13215865D01*
X7912057Y-13215865D02*
X7893009Y-13206342D01*
X7893009Y-13206342D02*
X7883486Y-13196818D01*
X7883486Y-13196818D02*
X7873962Y-13177770D01*
X7873962Y-13177770D02*
X7864438Y-13139675D01*
X7864438Y-13139675D02*
X7864438Y-13092056D01*
X7864438Y-13092056D02*
X7873962Y-13053961D01*
X7873962Y-13053961D02*
X7883486Y-13034913D01*
X7883486Y-13034913D02*
X7893009Y-13025389D01*
X7893009Y-13025389D02*
X7912057Y-13015865D01*
X8150152Y-13015865D02*
X8112057Y-13015865D01*
X8112057Y-13015865D02*
X8093009Y-13025389D01*
X8093009Y-13025389D02*
X8083486Y-13034913D01*
X8083486Y-13034913D02*
X8064438Y-13063484D01*
X8064438Y-13063484D02*
X8054914Y-13101580D01*
X8054914Y-13101580D02*
X8054914Y-13177770D01*
X8054914Y-13177770D02*
X8064438Y-13196818D01*
X8064438Y-13196818D02*
X8073962Y-13206342D01*
X8073962Y-13206342D02*
X8093009Y-13215865D01*
X8093009Y-13215865D02*
X8131105Y-13215865D01*
X8131105Y-13215865D02*
X8150152Y-13206342D01*
X8150152Y-13206342D02*
X8159676Y-13196818D01*
X8159676Y-13196818D02*
X8169200Y-13177770D01*
X8169200Y-13177770D02*
X8169200Y-13130151D01*
X8169200Y-13130151D02*
X8159676Y-13111103D01*
X8159676Y-13111103D02*
X8150152Y-13101580D01*
X8150152Y-13101580D02*
X8131105Y-13092056D01*
X8131105Y-13092056D02*
X8093009Y-13092056D01*
X8093009Y-13092056D02*
X8073962Y-13101580D01*
X8073962Y-13101580D02*
X8064438Y-13111103D01*
X8064438Y-13111103D02*
X8054914Y-13130151D01*
X8235867Y-13015865D02*
X8359676Y-13015865D01*
X8359676Y-13015865D02*
X8293009Y-13092056D01*
X8293009Y-13092056D02*
X8321581Y-13092056D01*
X8321581Y-13092056D02*
X8340629Y-13101580D01*
X8340629Y-13101580D02*
X8350152Y-13111103D01*
X8350152Y-13111103D02*
X8359676Y-13130151D01*
X8359676Y-13130151D02*
X8359676Y-13177770D01*
X8359676Y-13177770D02*
X8350152Y-13196818D01*
X8350152Y-13196818D02*
X8340629Y-13206342D01*
X8340629Y-13206342D02*
X8321581Y-13215865D01*
X8321581Y-13215865D02*
X8264438Y-13215865D01*
X8264438Y-13215865D02*
X8245390Y-13206342D01*
X8245390Y-13206342D02*
X8235867Y-13196818D01*
X8435867Y-13015865D02*
X8435867Y-13053961D01*
X8512057Y-13015865D02*
X8512057Y-13053961D01*
X8807295Y-13292056D02*
X8797772Y-13282532D01*
X8797772Y-13282532D02*
X8778724Y-13253961D01*
X8778724Y-13253961D02*
X8769200Y-13234913D01*
X8769200Y-13234913D02*
X8759676Y-13206342D01*
X8759676Y-13206342D02*
X8750153Y-13158722D01*
X8750153Y-13158722D02*
X8750153Y-13120627D01*
X8750153Y-13120627D02*
X8759676Y-13073008D01*
X8759676Y-13073008D02*
X8769200Y-13044437D01*
X8769200Y-13044437D02*
X8778724Y-13025389D01*
X8778724Y-13025389D02*
X8797772Y-12996818D01*
X8797772Y-12996818D02*
X8807295Y-12987294D01*
X8988248Y-13215865D02*
X8873962Y-13215865D01*
X8931105Y-13215865D02*
X8931105Y-13015865D01*
X8931105Y-13015865D02*
X8912057Y-13044437D01*
X8912057Y-13044437D02*
X8893010Y-13063484D01*
X8893010Y-13063484D02*
X8873962Y-13073008D01*
X9054914Y-13015865D02*
X9188248Y-13015865D01*
X9188248Y-13015865D02*
X9102533Y-13215865D01*
X9416819Y-13215865D02*
X9416819Y-13015865D01*
X9502534Y-13215865D02*
X9502534Y-13111103D01*
X9502534Y-13111103D02*
X9493010Y-13092056D01*
X9493010Y-13092056D02*
X9473962Y-13082532D01*
X9473962Y-13082532D02*
X9445391Y-13082532D01*
X9445391Y-13082532D02*
X9426343Y-13092056D01*
X9426343Y-13092056D02*
X9416819Y-13101580D01*
X9626343Y-13215865D02*
X9607295Y-13206342D01*
X9607295Y-13206342D02*
X9597772Y-13196818D01*
X9597772Y-13196818D02*
X9588248Y-13177770D01*
X9588248Y-13177770D02*
X9588248Y-13120627D01*
X9588248Y-13120627D02*
X9597772Y-13101580D01*
X9597772Y-13101580D02*
X9607295Y-13092056D01*
X9607295Y-13092056D02*
X9626343Y-13082532D01*
X9626343Y-13082532D02*
X9654915Y-13082532D01*
X9654915Y-13082532D02*
X9673962Y-13092056D01*
X9673962Y-13092056D02*
X9683486Y-13101580D01*
X9683486Y-13101580D02*
X9693010Y-13120627D01*
X9693010Y-13120627D02*
X9693010Y-13177770D01*
X9693010Y-13177770D02*
X9683486Y-13196818D01*
X9683486Y-13196818D02*
X9673962Y-13206342D01*
X9673962Y-13206342D02*
X9654915Y-13215865D01*
X9654915Y-13215865D02*
X9626343Y-13215865D01*
X9807295Y-13215865D02*
X9788248Y-13206342D01*
X9788248Y-13206342D02*
X9778724Y-13187294D01*
X9778724Y-13187294D02*
X9778724Y-13015865D01*
X9959676Y-13206342D02*
X9940629Y-13215865D01*
X9940629Y-13215865D02*
X9902534Y-13215865D01*
X9902534Y-13215865D02*
X9883486Y-13206342D01*
X9883486Y-13206342D02*
X9873962Y-13187294D01*
X9873962Y-13187294D02*
X9873962Y-13111103D01*
X9873962Y-13111103D02*
X9883486Y-13092056D01*
X9883486Y-13092056D02*
X9902534Y-13082532D01*
X9902534Y-13082532D02*
X9940629Y-13082532D01*
X9940629Y-13082532D02*
X9959676Y-13092056D01*
X9959676Y-13092056D02*
X9969200Y-13111103D01*
X9969200Y-13111103D02*
X9969200Y-13130151D01*
X9969200Y-13130151D02*
X9873962Y-13149199D01*
X10045391Y-13206342D02*
X10064438Y-13215865D01*
X10064438Y-13215865D02*
X10102534Y-13215865D01*
X10102534Y-13215865D02*
X10121581Y-13206342D01*
X10121581Y-13206342D02*
X10131105Y-13187294D01*
X10131105Y-13187294D02*
X10131105Y-13177770D01*
X10131105Y-13177770D02*
X10121581Y-13158722D01*
X10121581Y-13158722D02*
X10102534Y-13149199D01*
X10102534Y-13149199D02*
X10073962Y-13149199D01*
X10073962Y-13149199D02*
X10054915Y-13139675D01*
X10054915Y-13139675D02*
X10045391Y-13120627D01*
X10045391Y-13120627D02*
X10045391Y-13111103D01*
X10045391Y-13111103D02*
X10054915Y-13092056D01*
X10054915Y-13092056D02*
X10073962Y-13082532D01*
X10073962Y-13082532D02*
X10102534Y-13082532D01*
X10102534Y-13082532D02*
X10121581Y-13092056D01*
X10197772Y-13292056D02*
X10207296Y-13282532D01*
X10207296Y-13282532D02*
X10226343Y-13253961D01*
X10226343Y-13253961D02*
X10235867Y-13234913D01*
X10235867Y-13234913D02*
X10245391Y-13206342D01*
X10245391Y-13206342D02*
X10254915Y-13158722D01*
X10254915Y-13158722D02*
X10254915Y-13120627D01*
X10254915Y-13120627D02*
X10245391Y-13073008D01*
X10245391Y-13073008D02*
X10235867Y-13044437D01*
X10235867Y-13044437D02*
X10226343Y-13025389D01*
X10226343Y-13025389D02*
X10207296Y-12996818D01*
X10207296Y-12996818D02*
X10197772Y-12987294D01*
X10559677Y-13292056D02*
X10550153Y-13282532D01*
X10550153Y-13282532D02*
X10531105Y-13253961D01*
X10531105Y-13253961D02*
X10521581Y-13234913D01*
X10521581Y-13234913D02*
X10512057Y-13206342D01*
X10512057Y-13206342D02*
X10502534Y-13158722D01*
X10502534Y-13158722D02*
X10502534Y-13120627D01*
X10502534Y-13120627D02*
X10512057Y-13073008D01*
X10512057Y-13073008D02*
X10521581Y-13044437D01*
X10521581Y-13044437D02*
X10531105Y-13025389D01*
X10531105Y-13025389D02*
X10550153Y-12996818D01*
X10550153Y-12996818D02*
X10559677Y-12987294D01*
X10635867Y-13082532D02*
X10635867Y-13215865D01*
X10635867Y-13101580D02*
X10645391Y-13092056D01*
X10645391Y-13092056D02*
X10664438Y-13082532D01*
X10664438Y-13082532D02*
X10693010Y-13082532D01*
X10693010Y-13082532D02*
X10712057Y-13092056D01*
X10712057Y-13092056D02*
X10721581Y-13111103D01*
X10721581Y-13111103D02*
X10721581Y-13215865D01*
X10845391Y-13215865D02*
X10826343Y-13206342D01*
X10826343Y-13206342D02*
X10816819Y-13196818D01*
X10816819Y-13196818D02*
X10807296Y-13177770D01*
X10807296Y-13177770D02*
X10807296Y-13120627D01*
X10807296Y-13120627D02*
X10816819Y-13101580D01*
X10816819Y-13101580D02*
X10826343Y-13092056D01*
X10826343Y-13092056D02*
X10845391Y-13082532D01*
X10845391Y-13082532D02*
X10873962Y-13082532D01*
X10873962Y-13082532D02*
X10893010Y-13092056D01*
X10893010Y-13092056D02*
X10902534Y-13101580D01*
X10902534Y-13101580D02*
X10912057Y-13120627D01*
X10912057Y-13120627D02*
X10912057Y-13177770D01*
X10912057Y-13177770D02*
X10902534Y-13196818D01*
X10902534Y-13196818D02*
X10893010Y-13206342D01*
X10893010Y-13206342D02*
X10873962Y-13215865D01*
X10873962Y-13215865D02*
X10845391Y-13215865D01*
X10969200Y-13082532D02*
X11045391Y-13082532D01*
X10997772Y-13015865D02*
X10997772Y-13187294D01*
X10997772Y-13187294D02*
X11007296Y-13206342D01*
X11007296Y-13206342D02*
X11026343Y-13215865D01*
X11026343Y-13215865D02*
X11045391Y-13215865D01*
X11264438Y-13082532D02*
X11264438Y-13282532D01*
X11264438Y-13092056D02*
X11283486Y-13082532D01*
X11283486Y-13082532D02*
X11321581Y-13082532D01*
X11321581Y-13082532D02*
X11340629Y-13092056D01*
X11340629Y-13092056D02*
X11350153Y-13101580D01*
X11350153Y-13101580D02*
X11359676Y-13120627D01*
X11359676Y-13120627D02*
X11359676Y-13177770D01*
X11359676Y-13177770D02*
X11350153Y-13196818D01*
X11350153Y-13196818D02*
X11340629Y-13206342D01*
X11340629Y-13206342D02*
X11321581Y-13215865D01*
X11321581Y-13215865D02*
X11283486Y-13215865D01*
X11283486Y-13215865D02*
X11264438Y-13206342D01*
X11473962Y-13215865D02*
X11454915Y-13206342D01*
X11454915Y-13206342D02*
X11445391Y-13187294D01*
X11445391Y-13187294D02*
X11445391Y-13015865D01*
X11635867Y-13215865D02*
X11635867Y-13111103D01*
X11635867Y-13111103D02*
X11626343Y-13092056D01*
X11626343Y-13092056D02*
X11607296Y-13082532D01*
X11607296Y-13082532D02*
X11569200Y-13082532D01*
X11569200Y-13082532D02*
X11550153Y-13092056D01*
X11635867Y-13206342D02*
X11616819Y-13215865D01*
X11616819Y-13215865D02*
X11569200Y-13215865D01*
X11569200Y-13215865D02*
X11550153Y-13206342D01*
X11550153Y-13206342D02*
X11540629Y-13187294D01*
X11540629Y-13187294D02*
X11540629Y-13168246D01*
X11540629Y-13168246D02*
X11550153Y-13149199D01*
X11550153Y-13149199D02*
X11569200Y-13139675D01*
X11569200Y-13139675D02*
X11616819Y-13139675D01*
X11616819Y-13139675D02*
X11635867Y-13130151D01*
X11702534Y-13082532D02*
X11778724Y-13082532D01*
X11731105Y-13015865D02*
X11731105Y-13187294D01*
X11731105Y-13187294D02*
X11740629Y-13206342D01*
X11740629Y-13206342D02*
X11759676Y-13215865D01*
X11759676Y-13215865D02*
X11778724Y-13215865D01*
X11921581Y-13206342D02*
X11902534Y-13215865D01*
X11902534Y-13215865D02*
X11864438Y-13215865D01*
X11864438Y-13215865D02*
X11845391Y-13206342D01*
X11845391Y-13206342D02*
X11835867Y-13187294D01*
X11835867Y-13187294D02*
X11835867Y-13111103D01*
X11835867Y-13111103D02*
X11845391Y-13092056D01*
X11845391Y-13092056D02*
X11864438Y-13082532D01*
X11864438Y-13082532D02*
X11902534Y-13082532D01*
X11902534Y-13082532D02*
X11921581Y-13092056D01*
X11921581Y-13092056D02*
X11931105Y-13111103D01*
X11931105Y-13111103D02*
X11931105Y-13130151D01*
X11931105Y-13130151D02*
X11835867Y-13149199D01*
X12102534Y-13215865D02*
X12102534Y-13015865D01*
X12102534Y-13206342D02*
X12083486Y-13215865D01*
X12083486Y-13215865D02*
X12045391Y-13215865D01*
X12045391Y-13215865D02*
X12026343Y-13206342D01*
X12026343Y-13206342D02*
X12016819Y-13196818D01*
X12016819Y-13196818D02*
X12007296Y-13177770D01*
X12007296Y-13177770D02*
X12007296Y-13120627D01*
X12007296Y-13120627D02*
X12016819Y-13101580D01*
X12016819Y-13101580D02*
X12026343Y-13092056D01*
X12026343Y-13092056D02*
X12045391Y-13082532D01*
X12045391Y-13082532D02*
X12083486Y-13082532D01*
X12083486Y-13082532D02*
X12102534Y-13092056D01*
X12178724Y-13292056D02*
X12188248Y-13282532D01*
X12188248Y-13282532D02*
X12207296Y-13253961D01*
X12207296Y-13253961D02*
X12216819Y-13234913D01*
X12216819Y-13234913D02*
X12226343Y-13206342D01*
X12226343Y-13206342D02*
X12235867Y-13158722D01*
X12235867Y-13158722D02*
X12235867Y-13120627D01*
X12235867Y-13120627D02*
X12226343Y-13073008D01*
X12226343Y-13073008D02*
X12216819Y-13044437D01*
X12216819Y-13044437D02*
X12207296Y-13025389D01*
X12207296Y-13025389D02*
X12188248Y-12996818D01*
X12188248Y-12996818D02*
X12178724Y-12987294D01*
M02*
