%TF.GenerationSoftware,KiCad,Pcbnew,8.0.9-8.0.9-0~ubuntu22.04.1*%
%TF.CreationDate,2025-06-19T12:15:33-04:00*%
%TF.ProjectId,digital_waters,64696769-7461-46c5-9f77-61746572732e,rev?*%
%TF.SameCoordinates,Original*%
%TF.FileFunction,Copper,L4,Bot*%
%TF.FilePolarity,Positive*%
%FSLAX46Y46*%
G04 Gerber Fmt 4.6, Leading zero omitted, Abs format (unit mm)*
G04 Created by KiCad (PCBNEW 8.0.9-8.0.9-0~ubuntu22.04.1) date 2025-06-19 12:15:33*
%MOMM*%
%LPD*%
G01*
G04 APERTURE LIST*
%TA.AperFunction,ComponentPad*%
%ADD10R,1.700000X1.700000*%
%TD*%
%TA.AperFunction,ComponentPad*%
%ADD11O,1.700000X1.700000*%
%TD*%
%TA.AperFunction,ViaPad*%
%ADD12C,0.600000*%
%TD*%
%TA.AperFunction,Conductor*%
%ADD13C,0.200000*%
%TD*%
G04 APERTURE END LIST*
D10*
%TO.P,J18,1,Pin_1*%
%TO.N,+VSW*%
X160372325Y-56238816D03*
D11*
%TO.P,J18,2,Pin_2*%
X160372325Y-58778816D03*
%TO.P,J18,3,Pin_3*%
%TO.N,GNDD*%
X160372325Y-61318816D03*
%TO.P,J18,4,Pin_4*%
%TO.N,/I2C_SDA*%
X160372325Y-63858816D03*
%TO.P,J18,5,Pin_5*%
%TO.N,/I2C_SCL*%
X160372325Y-66398816D03*
%TD*%
D10*
%TO.P,J17,1,Pin_1*%
%TO.N,GNDA*%
X132347325Y-63858816D03*
D11*
%TO.P,J17,2,Pin_2*%
%TO.N,+VSW*%
X132347325Y-61318816D03*
%TO.P,J17,3,Pin_3*%
%TO.N,Net-(J17-Pin_3)*%
X132347325Y-58778816D03*
%TD*%
D12*
%TO.N,GNDA*%
X114347325Y-89318816D03*
X143347325Y-113318816D03*
X140347325Y-92318816D03*
X119347325Y-108318816D03*
X103347325Y-88318816D03*
X143347325Y-92318816D03*
X136347325Y-92318816D03*
X119347325Y-114318816D03*
X142347325Y-113318816D03*
X92347325Y-88318816D03*
X119347325Y-95318816D03*
%TO.N,/Power/+2.5V_REF*%
X69347325Y-92318816D03*
X72347325Y-80318816D03*
%TO.N,+3.3V*%
X193347325Y-107318816D03*
X219453118Y-87540477D03*
X234347325Y-64318816D03*
X172220000Y-107191491D03*
X178812949Y-91318816D03*
X219784825Y-78651316D03*
%TO.N,+5V*%
X227347325Y-68158816D03*
X173347325Y-91318816D03*
%TO.N,VDDA*%
X134347325Y-99318816D03*
X111347325Y-91318816D03*
%TO.N,/Power/+2.5V_REF_BUF_A*%
X59847325Y-77818816D03*
X102347325Y-86318816D03*
%TO.N,/Micocontroller/GPIO_22*%
X190347325Y-107318816D03*
X216347325Y-101318816D03*
X227347325Y-78318816D03*
X213350684Y-114263532D03*
%TO.N,/Micocontroller/GPIO_21*%
X208347325Y-118318816D03*
X234537325Y-74698816D03*
X218000000Y-113000000D03*
%TO.N,/Micocontroller/GPIO_5*%
X238537325Y-76698816D03*
X197347325Y-120318816D03*
%TO.N,/Micocontroller/GPIO_4*%
X180347325Y-100318816D03*
X180347325Y-107318816D03*
X188347325Y-113318816D03*
X227347325Y-70698816D03*
%TO.N,Net-(J2-In)*%
X67747325Y-110158498D03*
X64347325Y-88318816D03*
%TO.N,/EN{slash}~{SH_0}*%
X207347325Y-107318816D03*
X185347325Y-118318816D03*
X157347325Y-99318816D03*
%TO.N,Net-(R12-Pad2)*%
X84347325Y-88318816D03*
X126347325Y-111318816D03*
%TO.N,Net-(U5B--)*%
X126347325Y-117318816D03*
X76347325Y-95318816D03*
%TO.N,/Micocontroller/GPIO_14*%
X234347325Y-70318816D03*
X191512949Y-95318816D03*
X179347325Y-99318816D03*
%TO.N,Net-(R21-Pad2)*%
X92347325Y-114318816D03*
X79347325Y-110318816D03*
%TO.N,/Micocontroller/GPIO_15*%
X182347325Y-112318816D03*
X227347325Y-73318816D03*
X183646479Y-100019662D03*
X181347325Y-116318816D03*
%TO.N,/I2C_SCL*%
X209410101Y-75256040D03*
X159047325Y-80018816D03*
X175347325Y-98318816D03*
X194052949Y-87318816D03*
%TO.N,/I2C_SDA*%
X208602325Y-76063816D03*
X196347325Y-86318816D03*
X174347325Y-99318816D03*
X155347325Y-82318816D03*
%TO.N,/Micocontroller/GPIO_12*%
X194347325Y-95318816D03*
X227347325Y-75879128D03*
X210347325Y-100318816D03*
%TO.N,/Micocontroller/GPIO_1*%
X237537325Y-82698816D03*
X206347325Y-111318816D03*
X213347325Y-117318816D03*
%TO.N,/Micocontroller/GPIO_25*%
X197347325Y-107318816D03*
X200234321Y-89431820D03*
X234537325Y-67698816D03*
%TO.N,/SPI_MOSI*%
X194347325Y-102318816D03*
X216347325Y-120318816D03*
X146347325Y-120318816D03*
X144347325Y-109358816D03*
%TO.N,/SPI_SCLK*%
X152069402Y-120318816D03*
X199137024Y-113529117D03*
X144347325Y-106818816D03*
X199137024Y-102529117D03*
%TO.N,/SPI_MISO*%
X197347325Y-102318816D03*
X144337787Y-108086424D03*
X148347325Y-117318816D03*
X200347325Y-118318816D03*
%TO.N,/SPI_CS0*%
X144347325Y-110628816D03*
X201347325Y-108318816D03*
X183847325Y-91818816D03*
%TO.N,/Base_Sensor/VBATT_BUF*%
X199342338Y-93318816D03*
X116347325Y-104318816D03*
%TO.N,/Base_Sensor/TEMP_SENSE_BUF*%
X116347325Y-114318816D03*
X201672949Y-94993192D03*
%TO.N,Net-(U4A--)*%
X71347325Y-58318816D03*
X125347325Y-99818816D03*
%TO.N,Net-(R24-Pad1)*%
X78097325Y-57068816D03*
X126347325Y-105575465D03*
%TO.N,/Base_Sensor/+4.096_REF_BUF_A*%
X83722325Y-117818816D03*
X105347325Y-91318816D03*
%TO.N,/Power/+2.5V_REF_BUF_B*%
X102347325Y-90318816D03*
X60847325Y-100318816D03*
%TO.N,/Power/+4.096_REF_BUF_B*%
X60347325Y-59318816D03*
X104397325Y-86368816D03*
%TO.N,+VSW*%
X76347325Y-70318816D03*
X76347325Y-58318816D03*
X107947325Y-82318816D03*
X144347325Y-101318816D03*
X148347325Y-101318816D03*
X107347325Y-94318816D03*
X76347325Y-66318816D03*
X146347325Y-101318816D03*
X86222325Y-101318816D03*
X108347325Y-85318816D03*
%TO.N,/Micocontroller/GPIO_2_ESP*%
X211347325Y-97318816D03*
X234347325Y-55318816D03*
X184347325Y-113318816D03*
%TO.N,/Micocontroller/GPIO_3_ESP*%
X210347325Y-114318816D03*
X234347325Y-58318816D03*
X212347325Y-97318816D03*
%TO.N,/Micocontroller/GPIO_34_ESP*%
X227347325Y-57778816D03*
X210347325Y-86318816D03*
%TO.N,/Micocontroller/GPIO_35_ESP*%
X208347325Y-86318816D03*
X227347325Y-55318816D03*
%TO.N,/Micocontroller/GPIO_39_ESP*%
X212347325Y-86318816D03*
X234347325Y-60318816D03*
%TO.N,/Micocontroller/GPIO_36_ESP*%
X227347325Y-60182153D03*
X215347325Y-86318816D03*
%TO.N,/Micocontroller/GPIO_27_PI*%
X187347325Y-107318816D03*
X231347325Y-119318816D03*
%TO.N,/Micocontroller/GPIO_7_PI*%
X233347325Y-119114739D03*
X205347325Y-112918816D03*
%TO.N,/Micocontroller/GPIO_0_PI*%
X205347325Y-107318816D03*
X237788130Y-118759620D03*
%TO.N,/Micocontroller/GPIO_20_PI*%
X224755279Y-116000000D03*
X217171591Y-112294553D03*
%TO.N,/Micocontroller/GPIO_23_PI*%
X222347325Y-122318816D03*
X190000000Y-111971491D03*
%TO.N,/Micocontroller/GPIO_13_PI*%
X213347325Y-107318816D03*
X230238002Y-115718816D03*
%TO.N,/Micocontroller/GPIO_24_PI*%
X193347325Y-112318816D03*
X235347325Y-118816859D03*
%TO.N,/Micocontroller/GPIO_19_PI*%
X232057646Y-115000000D03*
X215347325Y-107318816D03*
%TO.N,/Micocontroller/GPIO_26_PI*%
X218347325Y-107318816D03*
X236347325Y-113318816D03*
%TO.N,/Micocontroller/GPIO_16_PI*%
X216347325Y-112318816D03*
X222000000Y-116718816D03*
%TO.N,/Micocontroller/GPIO_18_PI*%
X185347325Y-112318816D03*
X226347325Y-123318816D03*
%TO.N,/Micocontroller/GPIO_17_PI*%
X185347325Y-107318816D03*
X227347325Y-120318816D03*
%TO.N,/Micocontroller/GPIO_6_PI*%
X210320000Y-107291491D03*
X228439778Y-116259798D03*
%TD*%
D13*
%TO.N,/Micocontroller/GPIO_21*%
X234537325Y-80547345D02*
X234537325Y-74698816D01*
X210347325Y-116318816D02*
X208347325Y-118318816D01*
X237288796Y-83298816D02*
X234537325Y-80547345D01*
X218000000Y-113000000D02*
X218000000Y-113833070D01*
X215514254Y-116318816D02*
X210347325Y-116318816D01*
X219166930Y-115000000D02*
X228028509Y-115000000D01*
X235347325Y-116318816D02*
X237347325Y-114318816D01*
X218000000Y-113833070D02*
X219166930Y-115000000D01*
X229347325Y-116318816D02*
X235347325Y-116318816D01*
X228028509Y-115000000D02*
X229347325Y-116318816D01*
X237347325Y-83298816D02*
X237288796Y-83298816D01*
X218000000Y-113833070D02*
X215514254Y-116318816D01*
X237347325Y-114318816D02*
X237347325Y-83298816D01*
%TO.N,/Micocontroller/GPIO_5*%
X198347325Y-121318816D02*
X234247325Y-121318816D01*
X197347325Y-120318816D02*
X198347325Y-121318816D01*
X239347325Y-116218816D02*
X239347325Y-77508816D01*
X234247325Y-121318816D02*
X239347325Y-116218816D01*
X239347325Y-77508816D02*
X238537325Y-76698816D01*
%TO.N,/EN{slash}~{SH_0}*%
X166347325Y-99318816D02*
X185347325Y-118318816D01*
X207347325Y-107318816D02*
X200347325Y-114318816D01*
X200347325Y-114318816D02*
X189347325Y-114318816D01*
X157347325Y-99318816D02*
X166347325Y-99318816D01*
X189347325Y-114318816D02*
X185347325Y-118318816D01*
%TO.N,/Micocontroller/GPIO_1*%
X238347325Y-83508816D02*
X237537325Y-82698816D01*
X213347325Y-117318816D02*
X235347325Y-117318816D01*
X238347325Y-114318816D02*
X238347325Y-83508816D01*
X235347325Y-117318816D02*
X238347325Y-114318816D01*
%TO.N,/Micocontroller/GPIO_25*%
X200234321Y-104431820D02*
X200234321Y-89431820D01*
X197347325Y-107318816D02*
X200234321Y-104431820D01*
%TO.N,/SPI_MOSI*%
X146347325Y-111358816D02*
X144347325Y-109358816D01*
X146347325Y-120318816D02*
X146347325Y-111358816D01*
%TO.N,/SPI_SCLK*%
X152069402Y-120318816D02*
X152069402Y-114540893D01*
X152069402Y-114540893D02*
X144347325Y-106818816D01*
%TO.N,/SPI_MISO*%
X144337787Y-108086424D02*
X148347325Y-112095962D01*
X148347325Y-112095962D02*
X148347325Y-117318816D01*
%TO.N,/Micocontroller/GPIO_2_ESP*%
X200747325Y-107918816D02*
X211347325Y-97318816D01*
X185347325Y-113318816D02*
X190747325Y-107918816D01*
X190747325Y-107918816D02*
X200747325Y-107918816D01*
X184347325Y-113318816D02*
X185347325Y-113318816D01*
%TO.N,/Micocontroller/GPIO_3_ESP*%
X211347325Y-113318816D02*
X211347325Y-98318816D01*
X211347325Y-98318816D02*
X212347325Y-97318816D01*
X210347325Y-114318816D02*
X211347325Y-113318816D01*
%TD*%
%TA.AperFunction,Conductor*%
%TO.N,GNDA*%
G36*
X151290364Y-43339001D02*
G01*
X151336119Y-43391805D01*
X151347325Y-43443316D01*
X151347325Y-113094483D01*
X151327640Y-113161522D01*
X151274836Y-113207277D01*
X151205678Y-113217221D01*
X151142122Y-113188196D01*
X151135644Y-113182164D01*
X144886720Y-106933240D01*
X144853235Y-106871917D01*
X144851664Y-106827910D01*
X144852972Y-106818816D01*
X144832490Y-106676359D01*
X144772702Y-106545443D01*
X144678453Y-106436673D01*
X144557378Y-106358863D01*
X144557376Y-106358862D01*
X144557374Y-106358861D01*
X144557375Y-106358861D01*
X144419288Y-106318316D01*
X144419286Y-106318316D01*
X144275364Y-106318316D01*
X144275361Y-106318316D01*
X144137274Y-106358861D01*
X144016198Y-106436672D01*
X143921948Y-106545442D01*
X143921947Y-106545444D01*
X143862159Y-106676359D01*
X143841678Y-106818816D01*
X143862159Y-106961272D01*
X143921947Y-107092187D01*
X143921948Y-107092189D01*
X144016197Y-107200959D01*
X144137272Y-107278769D01*
X144137275Y-107278770D01*
X144137274Y-107278770D01*
X144244432Y-107310233D01*
X144272605Y-107318506D01*
X144275361Y-107319315D01*
X144275363Y-107319316D01*
X144371492Y-107319316D01*
X144438531Y-107339001D01*
X144459173Y-107355635D01*
X144477781Y-107374243D01*
X144511266Y-107435566D01*
X144506282Y-107505258D01*
X144464410Y-107561191D01*
X144398946Y-107585608D01*
X144390100Y-107585924D01*
X144265823Y-107585924D01*
X144127736Y-107626469D01*
X144006660Y-107704280D01*
X143912410Y-107813050D01*
X143912409Y-107813052D01*
X143852621Y-107943967D01*
X143832140Y-108086424D01*
X143852621Y-108228880D01*
X143912409Y-108359795D01*
X143912410Y-108359797D01*
X144006659Y-108468567D01*
X144127734Y-108546377D01*
X144127737Y-108546378D01*
X144127736Y-108546378D01*
X144234894Y-108577841D01*
X144263067Y-108586114D01*
X144265823Y-108586923D01*
X144265825Y-108586924D01*
X144361954Y-108586924D01*
X144428993Y-108606609D01*
X144449635Y-108623243D01*
X144473027Y-108646635D01*
X144506512Y-108707958D01*
X144501528Y-108777650D01*
X144459656Y-108833583D01*
X144394192Y-108858000D01*
X144385346Y-108858316D01*
X144275361Y-108858316D01*
X144137274Y-108898861D01*
X144016198Y-108976672D01*
X143921948Y-109085442D01*
X143921947Y-109085444D01*
X143862159Y-109216359D01*
X143841678Y-109358816D01*
X143862159Y-109501272D01*
X143921947Y-109632187D01*
X143921948Y-109632189D01*
X144016197Y-109740959D01*
X144137272Y-109818769D01*
X144137275Y-109818770D01*
X144137274Y-109818770D01*
X144244432Y-109850233D01*
X144273821Y-109858863D01*
X144275361Y-109859315D01*
X144275363Y-109859316D01*
X144371492Y-109859316D01*
X144438531Y-109879001D01*
X144459173Y-109895635D01*
X144480173Y-109916635D01*
X144513658Y-109977958D01*
X144508674Y-110047650D01*
X144466802Y-110103583D01*
X144401338Y-110128000D01*
X144392492Y-110128316D01*
X144275361Y-110128316D01*
X144137274Y-110168861D01*
X144016198Y-110246672D01*
X143921948Y-110355442D01*
X143921947Y-110355444D01*
X143862159Y-110486359D01*
X143841678Y-110628816D01*
X143862159Y-110771272D01*
X143902161Y-110858863D01*
X143921948Y-110902189D01*
X144016197Y-111010959D01*
X144137272Y-111088769D01*
X144137275Y-111088770D01*
X144137274Y-111088770D01*
X144275361Y-111129315D01*
X144275363Y-111129316D01*
X144275364Y-111129316D01*
X144419287Y-111129316D01*
X144419287Y-111129315D01*
X144557378Y-111088769D01*
X144678453Y-111010959D01*
X144772702Y-110902189D01*
X144832490Y-110771273D01*
X144852972Y-110628816D01*
X144849003Y-110601211D01*
X144858947Y-110532054D01*
X144904701Y-110479250D01*
X144971741Y-110459565D01*
X145038780Y-110479249D01*
X145059422Y-110495884D01*
X146010506Y-111446968D01*
X146043991Y-111508291D01*
X146046825Y-111534649D01*
X146046825Y-119855076D01*
X146027140Y-119922115D01*
X146016538Y-119936278D01*
X145921950Y-120045438D01*
X145921947Y-120045444D01*
X145862159Y-120176359D01*
X145841678Y-120318816D01*
X145862159Y-120461272D01*
X145887500Y-120516759D01*
X145921948Y-120592189D01*
X146016197Y-120700959D01*
X146137272Y-120778769D01*
X146137275Y-120778770D01*
X146137274Y-120778770D01*
X146275361Y-120819315D01*
X146275363Y-120819316D01*
X146275364Y-120819316D01*
X146419287Y-120819316D01*
X146419287Y-120819315D01*
X146526446Y-120787851D01*
X146557375Y-120778770D01*
X146557375Y-120778769D01*
X146557378Y-120778769D01*
X146678453Y-120700959D01*
X146772702Y-120592189D01*
X146832490Y-120461273D01*
X146852972Y-120318816D01*
X146832490Y-120176359D01*
X146772702Y-120045443D01*
X146772700Y-120045441D01*
X146772699Y-120045438D01*
X146678112Y-119936278D01*
X146649087Y-119872722D01*
X146647825Y-119855076D01*
X146647825Y-111319255D01*
X146647825Y-111319254D01*
X146627346Y-111242827D01*
X146588971Y-111176359D01*
X146587789Y-111174311D01*
X146587783Y-111174303D01*
X144886720Y-109473240D01*
X144853235Y-109411917D01*
X144851664Y-109367910D01*
X144852972Y-109358816D01*
X144850203Y-109339558D01*
X144860144Y-109270401D01*
X144905898Y-109217596D01*
X144972937Y-109197910D01*
X145039977Y-109217593D01*
X145060621Y-109234229D01*
X148010506Y-112184114D01*
X148043991Y-112245437D01*
X148046825Y-112271795D01*
X148046825Y-116855076D01*
X148027140Y-116922115D01*
X148016538Y-116936278D01*
X147921950Y-117045438D01*
X147921947Y-117045444D01*
X147862159Y-117176359D01*
X147841678Y-117318816D01*
X147862159Y-117461272D01*
X147900600Y-117545444D01*
X147921948Y-117592189D01*
X148016197Y-117700959D01*
X148137272Y-117778769D01*
X148137275Y-117778770D01*
X148137274Y-117778770D01*
X148244432Y-117810233D01*
X148273661Y-117818816D01*
X148275361Y-117819315D01*
X148275363Y-117819316D01*
X148275364Y-117819316D01*
X148419287Y-117819316D01*
X148419287Y-117819315D01*
X148557378Y-117778769D01*
X148678453Y-117700959D01*
X148772702Y-117592189D01*
X148832490Y-117461273D01*
X148852972Y-117318816D01*
X148832490Y-117176359D01*
X148772702Y-117045443D01*
X148772700Y-117045441D01*
X148772699Y-117045438D01*
X148678112Y-116936278D01*
X148649087Y-116872722D01*
X148647825Y-116855076D01*
X148647825Y-112056401D01*
X148627345Y-111979971D01*
X148627342Y-111979966D01*
X148587789Y-111911457D01*
X148587783Y-111911449D01*
X144877182Y-108200848D01*
X144843697Y-108139525D01*
X144842126Y-108095518D01*
X144843434Y-108086424D01*
X144838265Y-108050473D01*
X144848209Y-107981315D01*
X144893964Y-107928511D01*
X144961003Y-107908827D01*
X145028043Y-107928512D01*
X145048684Y-107945146D01*
X151311006Y-114207468D01*
X151344491Y-114268791D01*
X151347325Y-114295149D01*
X151347325Y-124194316D01*
X151327640Y-124261355D01*
X151274836Y-124307110D01*
X151223325Y-124318316D01*
X53471325Y-124318316D01*
X53404286Y-124298631D01*
X53358531Y-124245827D01*
X53347325Y-124194316D01*
X53347325Y-122798343D01*
X53367010Y-122731304D01*
X53419814Y-122685549D01*
X53488972Y-122675605D01*
X53552528Y-122704630D01*
X53581810Y-122742049D01*
X53631130Y-122838846D01*
X53779201Y-123042649D01*
X53779205Y-123042654D01*
X53957345Y-123220794D01*
X53957350Y-123220798D01*
X54135117Y-123349952D01*
X54161155Y-123368870D01*
X54304184Y-123441747D01*
X54385616Y-123483239D01*
X54385618Y-123483239D01*
X54385621Y-123483241D01*
X54625215Y-123561090D01*
X54874038Y-123600500D01*
X54874039Y-123600500D01*
X55125961Y-123600500D01*
X55125962Y-123600500D01*
X55374785Y-123561090D01*
X55614379Y-123483241D01*
X55838845Y-123368870D01*
X56042656Y-123220793D01*
X56220793Y-123042656D01*
X56368870Y-122838845D01*
X56483241Y-122614379D01*
X56561090Y-122374785D01*
X56600500Y-122125962D01*
X56600500Y-121874038D01*
X56561090Y-121625215D01*
X56483241Y-121385621D01*
X56483239Y-121385618D01*
X56483239Y-121385616D01*
X56389506Y-121201656D01*
X56368870Y-121161155D01*
X56349952Y-121135117D01*
X56220798Y-120957350D01*
X56220794Y-120957345D01*
X56042654Y-120779205D01*
X56042649Y-120779201D01*
X55838848Y-120631132D01*
X55838847Y-120631131D01*
X55838845Y-120631130D01*
X55762415Y-120592187D01*
X55614383Y-120516760D01*
X55374785Y-120438910D01*
X55125962Y-120399500D01*
X54874038Y-120399500D01*
X54749626Y-120419205D01*
X54625214Y-120438910D01*
X54385616Y-120516760D01*
X54161151Y-120631132D01*
X53957350Y-120779201D01*
X53957345Y-120779205D01*
X53779205Y-120957345D01*
X53779201Y-120957350D01*
X53631132Y-121161151D01*
X53581810Y-121257951D01*
X53533835Y-121308747D01*
X53466014Y-121325542D01*
X53399879Y-121303005D01*
X53356428Y-121248289D01*
X53347325Y-121201656D01*
X53347325Y-117818816D01*
X83216678Y-117818816D01*
X83237159Y-117961272D01*
X83296947Y-118092187D01*
X83296948Y-118092189D01*
X83391197Y-118200959D01*
X83512272Y-118278769D01*
X83512275Y-118278770D01*
X83512274Y-118278770D01*
X83650361Y-118319315D01*
X83650363Y-118319316D01*
X83650364Y-118319316D01*
X83794287Y-118319316D01*
X83794287Y-118319315D01*
X83932378Y-118278769D01*
X84053453Y-118200959D01*
X84147702Y-118092189D01*
X84207490Y-117961273D01*
X84227972Y-117818816D01*
X84207490Y-117676359D01*
X84147702Y-117545443D01*
X84053453Y-117436673D01*
X83932378Y-117358863D01*
X83932376Y-117358862D01*
X83932374Y-117358861D01*
X83932375Y-117358861D01*
X83795991Y-117318816D01*
X125841678Y-117318816D01*
X125862159Y-117461272D01*
X125900600Y-117545444D01*
X125921948Y-117592189D01*
X126016197Y-117700959D01*
X126137272Y-117778769D01*
X126137275Y-117778770D01*
X126137274Y-117778770D01*
X126244432Y-117810233D01*
X126273661Y-117818816D01*
X126275361Y-117819315D01*
X126275363Y-117819316D01*
X126275364Y-117819316D01*
X126419287Y-117819316D01*
X126419287Y-117819315D01*
X126557378Y-117778769D01*
X126678453Y-117700959D01*
X126772702Y-117592189D01*
X126832490Y-117461273D01*
X126852972Y-117318816D01*
X126832490Y-117176359D01*
X126772702Y-117045443D01*
X126678453Y-116936673D01*
X126557378Y-116858863D01*
X126557376Y-116858862D01*
X126557374Y-116858861D01*
X126557375Y-116858861D01*
X126419288Y-116818316D01*
X126419286Y-116818316D01*
X126275364Y-116818316D01*
X126275361Y-116818316D01*
X126137274Y-116858861D01*
X126016198Y-116936672D01*
X125921948Y-117045442D01*
X125921947Y-117045444D01*
X125862159Y-117176359D01*
X125841678Y-117318816D01*
X83795991Y-117318816D01*
X83794288Y-117318316D01*
X83794286Y-117318316D01*
X83650364Y-117318316D01*
X83650361Y-117318316D01*
X83512274Y-117358861D01*
X83391198Y-117436672D01*
X83296948Y-117545442D01*
X83296947Y-117545444D01*
X83237159Y-117676359D01*
X83216678Y-117818816D01*
X53347325Y-117818816D01*
X53347325Y-114318816D01*
X91841678Y-114318816D01*
X91862159Y-114461272D01*
X91880454Y-114501331D01*
X91921948Y-114592189D01*
X92016197Y-114700959D01*
X92137272Y-114778769D01*
X92137275Y-114778770D01*
X92137274Y-114778770D01*
X92275361Y-114819315D01*
X92275363Y-114819316D01*
X92275364Y-114819316D01*
X92419287Y-114819316D01*
X92419287Y-114819315D01*
X92557378Y-114778769D01*
X92678453Y-114700959D01*
X92772702Y-114592189D01*
X92832490Y-114461273D01*
X92852972Y-114318816D01*
X115841678Y-114318816D01*
X115862159Y-114461272D01*
X115880454Y-114501331D01*
X115921948Y-114592189D01*
X116016197Y-114700959D01*
X116137272Y-114778769D01*
X116137275Y-114778770D01*
X116137274Y-114778770D01*
X116275361Y-114819315D01*
X116275363Y-114819316D01*
X116275364Y-114819316D01*
X116419287Y-114819316D01*
X116419287Y-114819315D01*
X116557378Y-114778769D01*
X116678453Y-114700959D01*
X116772702Y-114592189D01*
X116832490Y-114461273D01*
X116852972Y-114318816D01*
X116832490Y-114176359D01*
X116772702Y-114045443D01*
X116678453Y-113936673D01*
X116557378Y-113858863D01*
X116557376Y-113858862D01*
X116557374Y-113858861D01*
X116557375Y-113858861D01*
X116419288Y-113818316D01*
X116419286Y-113818316D01*
X116275364Y-113818316D01*
X116275361Y-113818316D01*
X116137274Y-113858861D01*
X116016198Y-113936672D01*
X115921948Y-114045442D01*
X115921947Y-114045444D01*
X115862159Y-114176359D01*
X115841678Y-114318816D01*
X92852972Y-114318816D01*
X92832490Y-114176359D01*
X92772702Y-114045443D01*
X92678453Y-113936673D01*
X92557378Y-113858863D01*
X92557376Y-113858862D01*
X92557374Y-113858861D01*
X92557375Y-113858861D01*
X92419288Y-113818316D01*
X92419286Y-113818316D01*
X92275364Y-113818316D01*
X92275361Y-113818316D01*
X92137274Y-113858861D01*
X92016198Y-113936672D01*
X91921948Y-114045442D01*
X91921947Y-114045444D01*
X91862159Y-114176359D01*
X91841678Y-114318816D01*
X53347325Y-114318816D01*
X53347325Y-111318816D01*
X125841678Y-111318816D01*
X125862159Y-111461272D01*
X125895670Y-111534649D01*
X125921948Y-111592189D01*
X126016197Y-111700959D01*
X126137272Y-111778769D01*
X126137275Y-111778770D01*
X126137274Y-111778770D01*
X126275361Y-111819315D01*
X126275363Y-111819316D01*
X126275364Y-111819316D01*
X126419287Y-111819316D01*
X126419287Y-111819315D01*
X126557378Y-111778769D01*
X126678453Y-111700959D01*
X126772702Y-111592189D01*
X126832490Y-111461273D01*
X126852972Y-111318816D01*
X126832490Y-111176359D01*
X126772702Y-111045443D01*
X126678453Y-110936673D01*
X126557378Y-110858863D01*
X126557376Y-110858862D01*
X126557374Y-110858861D01*
X126557375Y-110858861D01*
X126419288Y-110818316D01*
X126419286Y-110818316D01*
X126275364Y-110818316D01*
X126275361Y-110818316D01*
X126137274Y-110858861D01*
X126016198Y-110936672D01*
X125921948Y-111045442D01*
X125921947Y-111045444D01*
X125862159Y-111176359D01*
X125841678Y-111318816D01*
X53347325Y-111318816D01*
X53347325Y-110158498D01*
X67241678Y-110158498D01*
X67262159Y-110300954D01*
X67321947Y-110431869D01*
X67321948Y-110431871D01*
X67416197Y-110540641D01*
X67537272Y-110618451D01*
X67537275Y-110618452D01*
X67537274Y-110618452D01*
X67675361Y-110658997D01*
X67675363Y-110658998D01*
X67675364Y-110658998D01*
X67819287Y-110658998D01*
X67819287Y-110658997D01*
X67957378Y-110618451D01*
X68078453Y-110540641D01*
X68172702Y-110431871D01*
X68224333Y-110318816D01*
X78841678Y-110318816D01*
X78862159Y-110461272D01*
X78921947Y-110592187D01*
X78921948Y-110592189D01*
X79016197Y-110700959D01*
X79137272Y-110778769D01*
X79137275Y-110778770D01*
X79137274Y-110778770D01*
X79244432Y-110810233D01*
X79271958Y-110818316D01*
X79275361Y-110819315D01*
X79275363Y-110819316D01*
X79275364Y-110819316D01*
X79419287Y-110819316D01*
X79419287Y-110819315D01*
X79557378Y-110778769D01*
X79678453Y-110700959D01*
X79772702Y-110592189D01*
X79832490Y-110461273D01*
X79852972Y-110318816D01*
X79832490Y-110176359D01*
X79772702Y-110045443D01*
X79678453Y-109936673D01*
X79557378Y-109858863D01*
X79557376Y-109858862D01*
X79557374Y-109858861D01*
X79557375Y-109858861D01*
X79419288Y-109818316D01*
X79419286Y-109818316D01*
X79275364Y-109818316D01*
X79275361Y-109818316D01*
X79137274Y-109858861D01*
X79016198Y-109936672D01*
X78921948Y-110045442D01*
X78921947Y-110045444D01*
X78862159Y-110176359D01*
X78841678Y-110318816D01*
X68224333Y-110318816D01*
X68232490Y-110300955D01*
X68252972Y-110158498D01*
X68232490Y-110016041D01*
X68172702Y-109885125D01*
X68078453Y-109776355D01*
X67957378Y-109698545D01*
X67957376Y-109698544D01*
X67957374Y-109698543D01*
X67957375Y-109698543D01*
X67819288Y-109657998D01*
X67819286Y-109657998D01*
X67675364Y-109657998D01*
X67675361Y-109657998D01*
X67537274Y-109698543D01*
X67416198Y-109776354D01*
X67321948Y-109885124D01*
X67321947Y-109885126D01*
X67262159Y-110016041D01*
X67241678Y-110158498D01*
X53347325Y-110158498D01*
X53347325Y-105575465D01*
X125841678Y-105575465D01*
X125862159Y-105717921D01*
X125921947Y-105848836D01*
X125921948Y-105848838D01*
X126016197Y-105957608D01*
X126137272Y-106035418D01*
X126137275Y-106035419D01*
X126137274Y-106035419D01*
X126275361Y-106075964D01*
X126275363Y-106075965D01*
X126275364Y-106075965D01*
X126419287Y-106075965D01*
X126419287Y-106075964D01*
X126557378Y-106035418D01*
X126678453Y-105957608D01*
X126772702Y-105848838D01*
X126832490Y-105717922D01*
X126852972Y-105575465D01*
X126832490Y-105433008D01*
X126772702Y-105302092D01*
X126678453Y-105193322D01*
X126557378Y-105115512D01*
X126557376Y-105115511D01*
X126557374Y-105115510D01*
X126557375Y-105115510D01*
X126419288Y-105074965D01*
X126419286Y-105074965D01*
X126275364Y-105074965D01*
X126275361Y-105074965D01*
X126137274Y-105115510D01*
X126016198Y-105193321D01*
X125921948Y-105302091D01*
X125921947Y-105302093D01*
X125862159Y-105433008D01*
X125841678Y-105575465D01*
X53347325Y-105575465D01*
X53347325Y-104318816D01*
X115841678Y-104318816D01*
X115862159Y-104461272D01*
X115921947Y-104592187D01*
X115921948Y-104592189D01*
X116016197Y-104700959D01*
X116137272Y-104778769D01*
X116137275Y-104778770D01*
X116137274Y-104778770D01*
X116275361Y-104819315D01*
X116275363Y-104819316D01*
X116275364Y-104819316D01*
X116419287Y-104819316D01*
X116419287Y-104819315D01*
X116557378Y-104778769D01*
X116678453Y-104700959D01*
X116772702Y-104592189D01*
X116832490Y-104461273D01*
X116852972Y-104318816D01*
X116832490Y-104176359D01*
X116772702Y-104045443D01*
X116678453Y-103936673D01*
X116557378Y-103858863D01*
X116557376Y-103858862D01*
X116557374Y-103858861D01*
X116557375Y-103858861D01*
X116419288Y-103818316D01*
X116419286Y-103818316D01*
X116275364Y-103818316D01*
X116275361Y-103818316D01*
X116137274Y-103858861D01*
X116016198Y-103936672D01*
X115921948Y-104045442D01*
X115921947Y-104045444D01*
X115862159Y-104176359D01*
X115841678Y-104318816D01*
X53347325Y-104318816D01*
X53347325Y-101318816D01*
X85716678Y-101318816D01*
X85737159Y-101461272D01*
X85796947Y-101592187D01*
X85796948Y-101592189D01*
X85891197Y-101700959D01*
X86012272Y-101778769D01*
X86012275Y-101778770D01*
X86012274Y-101778770D01*
X86150361Y-101819315D01*
X86150363Y-101819316D01*
X86150364Y-101819316D01*
X86294287Y-101819316D01*
X86294287Y-101819315D01*
X86432378Y-101778769D01*
X86553453Y-101700959D01*
X86647702Y-101592189D01*
X86707490Y-101461273D01*
X86727972Y-101318816D01*
X143841678Y-101318816D01*
X143862159Y-101461272D01*
X143921947Y-101592187D01*
X143921948Y-101592189D01*
X144016197Y-101700959D01*
X144137272Y-101778769D01*
X144137275Y-101778770D01*
X144137274Y-101778770D01*
X144275361Y-101819315D01*
X144275363Y-101819316D01*
X144275364Y-101819316D01*
X144419287Y-101819316D01*
X144419287Y-101819315D01*
X144557378Y-101778769D01*
X144678453Y-101700959D01*
X144772702Y-101592189D01*
X144832490Y-101461273D01*
X144852972Y-101318816D01*
X145841678Y-101318816D01*
X145862159Y-101461272D01*
X145921947Y-101592187D01*
X145921948Y-101592189D01*
X146016197Y-101700959D01*
X146137272Y-101778769D01*
X146137275Y-101778770D01*
X146137274Y-101778770D01*
X146275361Y-101819315D01*
X146275363Y-101819316D01*
X146275364Y-101819316D01*
X146419287Y-101819316D01*
X146419287Y-101819315D01*
X146557378Y-101778769D01*
X146678453Y-101700959D01*
X146772702Y-101592189D01*
X146832490Y-101461273D01*
X146852972Y-101318816D01*
X147841678Y-101318816D01*
X147862159Y-101461272D01*
X147921947Y-101592187D01*
X147921948Y-101592189D01*
X148016197Y-101700959D01*
X148137272Y-101778769D01*
X148137275Y-101778770D01*
X148137274Y-101778770D01*
X148275361Y-101819315D01*
X148275363Y-101819316D01*
X148275364Y-101819316D01*
X148419287Y-101819316D01*
X148419287Y-101819315D01*
X148557378Y-101778769D01*
X148678453Y-101700959D01*
X148772702Y-101592189D01*
X148832490Y-101461273D01*
X148852972Y-101318816D01*
X148832490Y-101176359D01*
X148772702Y-101045443D01*
X148678453Y-100936673D01*
X148557378Y-100858863D01*
X148557376Y-100858862D01*
X148557374Y-100858861D01*
X148557375Y-100858861D01*
X148419288Y-100818316D01*
X148419286Y-100818316D01*
X148275364Y-100818316D01*
X148275361Y-100818316D01*
X148137274Y-100858861D01*
X148016198Y-100936672D01*
X147921948Y-101045442D01*
X147921947Y-101045444D01*
X147862159Y-101176359D01*
X147841678Y-101318816D01*
X146852972Y-101318816D01*
X146832490Y-101176359D01*
X146772702Y-101045443D01*
X146678453Y-100936673D01*
X146557378Y-100858863D01*
X146557376Y-100858862D01*
X146557374Y-100858861D01*
X146557375Y-100858861D01*
X146419288Y-100818316D01*
X146419286Y-100818316D01*
X146275364Y-100818316D01*
X146275361Y-100818316D01*
X146137274Y-100858861D01*
X146016198Y-100936672D01*
X145921948Y-101045442D01*
X145921947Y-101045444D01*
X145862159Y-101176359D01*
X145841678Y-101318816D01*
X144852972Y-101318816D01*
X144832490Y-101176359D01*
X144772702Y-101045443D01*
X144678453Y-100936673D01*
X144557378Y-100858863D01*
X144557376Y-100858862D01*
X144557374Y-100858861D01*
X144557375Y-100858861D01*
X144419288Y-100818316D01*
X144419286Y-100818316D01*
X144275364Y-100818316D01*
X144275361Y-100818316D01*
X144137274Y-100858861D01*
X144016198Y-100936672D01*
X143921948Y-101045442D01*
X143921947Y-101045444D01*
X143862159Y-101176359D01*
X143841678Y-101318816D01*
X86727972Y-101318816D01*
X86707490Y-101176359D01*
X86647702Y-101045443D01*
X86553453Y-100936673D01*
X86432378Y-100858863D01*
X86432376Y-100858862D01*
X86432374Y-100858861D01*
X86432375Y-100858861D01*
X86294288Y-100818316D01*
X86294286Y-100818316D01*
X86150364Y-100818316D01*
X86150361Y-100818316D01*
X86012274Y-100858861D01*
X85891198Y-100936672D01*
X85796948Y-101045442D01*
X85796947Y-101045444D01*
X85737159Y-101176359D01*
X85716678Y-101318816D01*
X53347325Y-101318816D01*
X53347325Y-100318816D01*
X60341678Y-100318816D01*
X60362159Y-100461272D01*
X60421947Y-100592187D01*
X60421948Y-100592189D01*
X60516197Y-100700959D01*
X60637272Y-100778769D01*
X60637275Y-100778770D01*
X60637274Y-100778770D01*
X60744432Y-100810233D01*
X60771958Y-100818316D01*
X60775361Y-100819315D01*
X60775363Y-100819316D01*
X60775364Y-100819316D01*
X60919287Y-100819316D01*
X60919287Y-100819315D01*
X61057378Y-100778769D01*
X61178453Y-100700959D01*
X61272702Y-100592189D01*
X61332490Y-100461273D01*
X61352972Y-100318816D01*
X61332490Y-100176359D01*
X61272702Y-100045443D01*
X61178453Y-99936673D01*
X61057378Y-99858863D01*
X61057376Y-99858862D01*
X61057374Y-99858861D01*
X61057375Y-99858861D01*
X60920991Y-99818816D01*
X124841678Y-99818816D01*
X124862159Y-99961272D01*
X124900600Y-100045444D01*
X124921948Y-100092189D01*
X125016197Y-100200959D01*
X125137272Y-100278769D01*
X125137275Y-100278770D01*
X125137274Y-100278770D01*
X125244432Y-100310233D01*
X125273661Y-100318816D01*
X125275361Y-100319315D01*
X125275363Y-100319316D01*
X125275364Y-100319316D01*
X125419287Y-100319316D01*
X125419287Y-100319315D01*
X125557378Y-100278769D01*
X125678453Y-100200959D01*
X125772702Y-100092189D01*
X125832490Y-99961273D01*
X125852972Y-99818816D01*
X125832490Y-99676359D01*
X125772702Y-99545443D01*
X125678453Y-99436673D01*
X125557378Y-99358863D01*
X125557376Y-99358862D01*
X125557374Y-99358861D01*
X125557375Y-99358861D01*
X125420991Y-99318816D01*
X133841678Y-99318816D01*
X133862159Y-99461272D01*
X133900600Y-99545444D01*
X133921948Y-99592189D01*
X134016197Y-99700959D01*
X134137272Y-99778769D01*
X134137275Y-99778770D01*
X134137274Y-99778770D01*
X134244432Y-99810233D01*
X134273661Y-99818816D01*
X134275361Y-99819315D01*
X134275363Y-99819316D01*
X134275364Y-99819316D01*
X134419287Y-99819316D01*
X134419287Y-99819315D01*
X134557378Y-99778769D01*
X134678453Y-99700959D01*
X134772702Y-99592189D01*
X134832490Y-99461273D01*
X134852972Y-99318816D01*
X134832490Y-99176359D01*
X134772702Y-99045443D01*
X134678453Y-98936673D01*
X134557378Y-98858863D01*
X134557376Y-98858862D01*
X134557374Y-98858861D01*
X134557375Y-98858861D01*
X134419288Y-98818316D01*
X134419286Y-98818316D01*
X134275364Y-98818316D01*
X134275361Y-98818316D01*
X134137274Y-98858861D01*
X134016198Y-98936672D01*
X133921948Y-99045442D01*
X133921947Y-99045444D01*
X133862159Y-99176359D01*
X133841678Y-99318816D01*
X125420991Y-99318816D01*
X125419288Y-99318316D01*
X125419286Y-99318316D01*
X125275364Y-99318316D01*
X125275361Y-99318316D01*
X125137274Y-99358861D01*
X125016198Y-99436672D01*
X124921948Y-99545442D01*
X124921947Y-99545444D01*
X124862159Y-99676359D01*
X124841678Y-99818816D01*
X60920991Y-99818816D01*
X60919288Y-99818316D01*
X60919286Y-99818316D01*
X60775364Y-99818316D01*
X60775361Y-99818316D01*
X60637274Y-99858861D01*
X60516198Y-99936672D01*
X60421948Y-100045442D01*
X60421947Y-100045444D01*
X60362159Y-100176359D01*
X60341678Y-100318816D01*
X53347325Y-100318816D01*
X53347325Y-95318816D01*
X75841678Y-95318816D01*
X75862159Y-95461272D01*
X75921947Y-95592187D01*
X75921948Y-95592189D01*
X76016197Y-95700959D01*
X76137272Y-95778769D01*
X76137275Y-95778770D01*
X76137274Y-95778770D01*
X76275361Y-95819315D01*
X76275363Y-95819316D01*
X76275364Y-95819316D01*
X76419287Y-95819316D01*
X76419287Y-95819315D01*
X76557378Y-95778769D01*
X76678453Y-95700959D01*
X76772702Y-95592189D01*
X76832490Y-95461273D01*
X76852972Y-95318816D01*
X76832490Y-95176359D01*
X76772702Y-95045443D01*
X76678453Y-94936673D01*
X76557378Y-94858863D01*
X76557376Y-94858862D01*
X76557374Y-94858861D01*
X76557375Y-94858861D01*
X76419288Y-94818316D01*
X76419286Y-94818316D01*
X76275364Y-94818316D01*
X76275361Y-94818316D01*
X76137274Y-94858861D01*
X76016198Y-94936672D01*
X75921948Y-95045442D01*
X75921947Y-95045444D01*
X75862159Y-95176359D01*
X75841678Y-95318816D01*
X53347325Y-95318816D01*
X53347325Y-94318816D01*
X106841678Y-94318816D01*
X106862159Y-94461272D01*
X106921947Y-94592187D01*
X106921948Y-94592189D01*
X107016197Y-94700959D01*
X107137272Y-94778769D01*
X107137275Y-94778770D01*
X107137274Y-94778770D01*
X107244432Y-94810233D01*
X107271958Y-94818316D01*
X107275361Y-94819315D01*
X107275363Y-94819316D01*
X107275364Y-94819316D01*
X107419287Y-94819316D01*
X107419287Y-94819315D01*
X107557378Y-94778769D01*
X107678453Y-94700959D01*
X107772702Y-94592189D01*
X107832490Y-94461273D01*
X107852972Y-94318816D01*
X107832490Y-94176359D01*
X107772702Y-94045443D01*
X107678453Y-93936673D01*
X107557378Y-93858863D01*
X107557376Y-93858862D01*
X107557374Y-93858861D01*
X107557375Y-93858861D01*
X107419288Y-93818316D01*
X107419286Y-93818316D01*
X107275364Y-93818316D01*
X107275361Y-93818316D01*
X107137274Y-93858861D01*
X107016198Y-93936672D01*
X106921948Y-94045442D01*
X106921947Y-94045444D01*
X106862159Y-94176359D01*
X106841678Y-94318816D01*
X53347325Y-94318816D01*
X53347325Y-92318816D01*
X68841678Y-92318816D01*
X68862159Y-92461272D01*
X68921947Y-92592187D01*
X68921948Y-92592189D01*
X69016197Y-92700959D01*
X69137272Y-92778769D01*
X69137275Y-92778770D01*
X69137274Y-92778770D01*
X69275361Y-92819315D01*
X69275363Y-92819316D01*
X69275364Y-92819316D01*
X69419287Y-92819316D01*
X69419287Y-92819315D01*
X69557378Y-92778769D01*
X69678453Y-92700959D01*
X69772702Y-92592189D01*
X69832490Y-92461273D01*
X69852972Y-92318816D01*
X69832490Y-92176359D01*
X69772702Y-92045443D01*
X69678453Y-91936673D01*
X69557378Y-91858863D01*
X69557376Y-91858862D01*
X69557374Y-91858861D01*
X69557375Y-91858861D01*
X69419288Y-91818316D01*
X69419286Y-91818316D01*
X69275364Y-91818316D01*
X69275361Y-91818316D01*
X69137274Y-91858861D01*
X69016198Y-91936672D01*
X68921948Y-92045442D01*
X68921947Y-92045444D01*
X68862159Y-92176359D01*
X68841678Y-92318816D01*
X53347325Y-92318816D01*
X53347325Y-91318816D01*
X104841678Y-91318816D01*
X104862159Y-91461272D01*
X104921947Y-91592187D01*
X104921948Y-91592189D01*
X105016197Y-91700959D01*
X105137272Y-91778769D01*
X105137275Y-91778770D01*
X105137274Y-91778770D01*
X105244432Y-91810233D01*
X105271958Y-91818316D01*
X105275361Y-91819315D01*
X105275363Y-91819316D01*
X105275364Y-91819316D01*
X105419287Y-91819316D01*
X105419287Y-91819315D01*
X105557378Y-91778769D01*
X105678453Y-91700959D01*
X105772702Y-91592189D01*
X105832490Y-91461273D01*
X105852972Y-91318816D01*
X110841678Y-91318816D01*
X110862159Y-91461272D01*
X110921947Y-91592187D01*
X110921948Y-91592189D01*
X111016197Y-91700959D01*
X111137272Y-91778769D01*
X111137275Y-91778770D01*
X111137274Y-91778770D01*
X111244432Y-91810233D01*
X111271958Y-91818316D01*
X111275361Y-91819315D01*
X111275363Y-91819316D01*
X111275364Y-91819316D01*
X111419287Y-91819316D01*
X111419287Y-91819315D01*
X111557378Y-91778769D01*
X111678453Y-91700959D01*
X111772702Y-91592189D01*
X111832490Y-91461273D01*
X111852972Y-91318816D01*
X111832490Y-91176359D01*
X111772702Y-91045443D01*
X111678453Y-90936673D01*
X111557378Y-90858863D01*
X111557376Y-90858862D01*
X111557374Y-90858861D01*
X111557375Y-90858861D01*
X111419288Y-90818316D01*
X111419286Y-90818316D01*
X111275364Y-90818316D01*
X111275361Y-90818316D01*
X111137274Y-90858861D01*
X111016198Y-90936672D01*
X110921948Y-91045442D01*
X110921947Y-91045444D01*
X110862159Y-91176359D01*
X110841678Y-91318816D01*
X105852972Y-91318816D01*
X105832490Y-91176359D01*
X105772702Y-91045443D01*
X105678453Y-90936673D01*
X105557378Y-90858863D01*
X105557376Y-90858862D01*
X105557374Y-90858861D01*
X105557375Y-90858861D01*
X105419288Y-90818316D01*
X105419286Y-90818316D01*
X105275364Y-90818316D01*
X105275361Y-90818316D01*
X105137274Y-90858861D01*
X105016198Y-90936672D01*
X104921948Y-91045442D01*
X104921947Y-91045444D01*
X104862159Y-91176359D01*
X104841678Y-91318816D01*
X53347325Y-91318816D01*
X53347325Y-90318816D01*
X101841678Y-90318816D01*
X101862159Y-90461272D01*
X101921947Y-90592187D01*
X101921948Y-90592189D01*
X102016197Y-90700959D01*
X102137272Y-90778769D01*
X102137275Y-90778770D01*
X102137274Y-90778770D01*
X102244432Y-90810233D01*
X102271958Y-90818316D01*
X102275361Y-90819315D01*
X102275363Y-90819316D01*
X102275364Y-90819316D01*
X102419287Y-90819316D01*
X102419287Y-90819315D01*
X102557378Y-90778769D01*
X102678453Y-90700959D01*
X102772702Y-90592189D01*
X102832490Y-90461273D01*
X102852972Y-90318816D01*
X102832490Y-90176359D01*
X102772702Y-90045443D01*
X102678453Y-89936673D01*
X102557378Y-89858863D01*
X102557376Y-89858862D01*
X102557374Y-89858861D01*
X102557375Y-89858861D01*
X102419288Y-89818316D01*
X102419286Y-89818316D01*
X102275364Y-89818316D01*
X102275361Y-89818316D01*
X102137274Y-89858861D01*
X102016198Y-89936672D01*
X101921948Y-90045442D01*
X101921947Y-90045444D01*
X101862159Y-90176359D01*
X101841678Y-90318816D01*
X53347325Y-90318816D01*
X53347325Y-88318816D01*
X63841678Y-88318816D01*
X63862159Y-88461272D01*
X63921947Y-88592187D01*
X63921948Y-88592189D01*
X64016197Y-88700959D01*
X64137272Y-88778769D01*
X64137275Y-88778770D01*
X64137274Y-88778770D01*
X64275361Y-88819315D01*
X64275363Y-88819316D01*
X64275364Y-88819316D01*
X64419287Y-88819316D01*
X64419287Y-88819315D01*
X64557378Y-88778769D01*
X64678453Y-88700959D01*
X64772702Y-88592189D01*
X64832490Y-88461273D01*
X64852972Y-88318816D01*
X83841678Y-88318816D01*
X83862159Y-88461272D01*
X83921947Y-88592187D01*
X83921948Y-88592189D01*
X84016197Y-88700959D01*
X84137272Y-88778769D01*
X84137275Y-88778770D01*
X84137274Y-88778770D01*
X84275361Y-88819315D01*
X84275363Y-88819316D01*
X84275364Y-88819316D01*
X84419287Y-88819316D01*
X84419287Y-88819315D01*
X84557378Y-88778769D01*
X84678453Y-88700959D01*
X84772702Y-88592189D01*
X84832490Y-88461273D01*
X84852972Y-88318816D01*
X84832490Y-88176359D01*
X84772702Y-88045443D01*
X84678453Y-87936673D01*
X84557378Y-87858863D01*
X84557376Y-87858862D01*
X84557374Y-87858861D01*
X84557375Y-87858861D01*
X84419288Y-87818316D01*
X84419286Y-87818316D01*
X84275364Y-87818316D01*
X84275361Y-87818316D01*
X84137274Y-87858861D01*
X84016198Y-87936672D01*
X83921948Y-88045442D01*
X83921947Y-88045444D01*
X83862159Y-88176359D01*
X83841678Y-88318816D01*
X64852972Y-88318816D01*
X64832490Y-88176359D01*
X64772702Y-88045443D01*
X64678453Y-87936673D01*
X64557378Y-87858863D01*
X64557376Y-87858862D01*
X64557374Y-87858861D01*
X64557375Y-87858861D01*
X64419288Y-87818316D01*
X64419286Y-87818316D01*
X64275364Y-87818316D01*
X64275361Y-87818316D01*
X64137274Y-87858861D01*
X64016198Y-87936672D01*
X63921948Y-88045442D01*
X63921947Y-88045444D01*
X63862159Y-88176359D01*
X63841678Y-88318816D01*
X53347325Y-88318816D01*
X53347325Y-86318816D01*
X101841678Y-86318816D01*
X101862159Y-86461272D01*
X101884994Y-86511272D01*
X101921948Y-86592189D01*
X102016197Y-86700959D01*
X102137272Y-86778769D01*
X102137275Y-86778770D01*
X102137274Y-86778770D01*
X102275361Y-86819315D01*
X102275363Y-86819316D01*
X102275364Y-86819316D01*
X102419287Y-86819316D01*
X102419287Y-86819315D01*
X102557378Y-86778769D01*
X102678453Y-86700959D01*
X102772702Y-86592189D01*
X102832490Y-86461273D01*
X102845783Y-86368816D01*
X103891678Y-86368816D01*
X103912159Y-86511272D01*
X103971947Y-86642187D01*
X103971948Y-86642189D01*
X104066197Y-86750959D01*
X104187272Y-86828769D01*
X104187275Y-86828770D01*
X104187274Y-86828770D01*
X104325361Y-86869315D01*
X104325363Y-86869316D01*
X104325364Y-86869316D01*
X104469287Y-86869316D01*
X104469287Y-86869315D01*
X104607378Y-86828769D01*
X104728453Y-86750959D01*
X104822702Y-86642189D01*
X104882490Y-86511273D01*
X104902972Y-86368816D01*
X104882490Y-86226359D01*
X104822702Y-86095443D01*
X104728453Y-85986673D01*
X104607378Y-85908863D01*
X104607376Y-85908862D01*
X104607374Y-85908861D01*
X104607375Y-85908861D01*
X104469288Y-85868316D01*
X104469286Y-85868316D01*
X104325364Y-85868316D01*
X104325361Y-85868316D01*
X104187274Y-85908861D01*
X104066198Y-85986672D01*
X103971948Y-86095442D01*
X103971947Y-86095444D01*
X103912159Y-86226359D01*
X103891678Y-86368816D01*
X102845783Y-86368816D01*
X102852972Y-86318816D01*
X102832490Y-86176359D01*
X102772702Y-86045443D01*
X102678453Y-85936673D01*
X102557378Y-85858863D01*
X102557376Y-85858862D01*
X102557374Y-85858861D01*
X102557375Y-85858861D01*
X102419288Y-85818316D01*
X102419286Y-85818316D01*
X102275364Y-85818316D01*
X102275361Y-85818316D01*
X102137274Y-85858861D01*
X102016198Y-85936672D01*
X101921948Y-86045442D01*
X101921947Y-86045444D01*
X101862159Y-86176359D01*
X101841678Y-86318816D01*
X53347325Y-86318816D01*
X53347325Y-85318816D01*
X107841678Y-85318816D01*
X107862159Y-85461272D01*
X107921947Y-85592187D01*
X107921948Y-85592189D01*
X108016197Y-85700959D01*
X108137272Y-85778769D01*
X108137275Y-85778770D01*
X108137274Y-85778770D01*
X108244432Y-85810233D01*
X108271958Y-85818316D01*
X108275361Y-85819315D01*
X108275363Y-85819316D01*
X108275364Y-85819316D01*
X108419287Y-85819316D01*
X108419287Y-85819315D01*
X108557378Y-85778769D01*
X108678453Y-85700959D01*
X108772702Y-85592189D01*
X108832490Y-85461273D01*
X108852972Y-85318816D01*
X108832490Y-85176359D01*
X108772702Y-85045443D01*
X108678453Y-84936673D01*
X108557378Y-84858863D01*
X108557376Y-84858862D01*
X108557374Y-84858861D01*
X108557375Y-84858861D01*
X108419288Y-84818316D01*
X108419286Y-84818316D01*
X108275364Y-84818316D01*
X108275361Y-84818316D01*
X108137274Y-84858861D01*
X108016198Y-84936672D01*
X107921948Y-85045442D01*
X107921947Y-85045444D01*
X107862159Y-85176359D01*
X107841678Y-85318816D01*
X53347325Y-85318816D01*
X53347325Y-82318816D01*
X107441678Y-82318816D01*
X107462159Y-82461272D01*
X107521947Y-82592187D01*
X107521948Y-82592189D01*
X107616197Y-82700959D01*
X107737272Y-82778769D01*
X107737275Y-82778770D01*
X107737274Y-82778770D01*
X107875361Y-82819315D01*
X107875363Y-82819316D01*
X107875364Y-82819316D01*
X108019287Y-82819316D01*
X108019287Y-82819315D01*
X108157378Y-82778769D01*
X108278453Y-82700959D01*
X108372702Y-82592189D01*
X108432490Y-82461273D01*
X108452972Y-82318816D01*
X108432490Y-82176359D01*
X108372702Y-82045443D01*
X108278453Y-81936673D01*
X108157378Y-81858863D01*
X108157376Y-81858862D01*
X108157374Y-81858861D01*
X108157375Y-81858861D01*
X108019288Y-81818316D01*
X108019286Y-81818316D01*
X107875364Y-81818316D01*
X107875361Y-81818316D01*
X107737274Y-81858861D01*
X107616198Y-81936672D01*
X107521948Y-82045442D01*
X107521947Y-82045444D01*
X107462159Y-82176359D01*
X107441678Y-82318816D01*
X53347325Y-82318816D01*
X53347325Y-80318816D01*
X71841678Y-80318816D01*
X71862159Y-80461272D01*
X71921947Y-80592187D01*
X71921948Y-80592189D01*
X72016197Y-80700959D01*
X72137272Y-80778769D01*
X72137275Y-80778770D01*
X72137274Y-80778770D01*
X72275361Y-80819315D01*
X72275363Y-80819316D01*
X72275364Y-80819316D01*
X72419287Y-80819316D01*
X72419287Y-80819315D01*
X72557378Y-80778769D01*
X72678453Y-80700959D01*
X72772702Y-80592189D01*
X72832490Y-80461273D01*
X72852972Y-80318816D01*
X72832490Y-80176359D01*
X72772702Y-80045443D01*
X72678453Y-79936673D01*
X72557378Y-79858863D01*
X72557376Y-79858862D01*
X72557374Y-79858861D01*
X72557375Y-79858861D01*
X72419288Y-79818316D01*
X72419286Y-79818316D01*
X72275364Y-79818316D01*
X72275361Y-79818316D01*
X72137274Y-79858861D01*
X72016198Y-79936672D01*
X71921948Y-80045442D01*
X71921947Y-80045444D01*
X71862159Y-80176359D01*
X71841678Y-80318816D01*
X53347325Y-80318816D01*
X53347325Y-77818816D01*
X59341678Y-77818816D01*
X59362159Y-77961272D01*
X59421947Y-78092187D01*
X59421948Y-78092189D01*
X59516197Y-78200959D01*
X59637272Y-78278769D01*
X59637275Y-78278770D01*
X59637274Y-78278770D01*
X59775361Y-78319315D01*
X59775363Y-78319316D01*
X59775364Y-78319316D01*
X59919287Y-78319316D01*
X59919287Y-78319315D01*
X60057378Y-78278769D01*
X60178453Y-78200959D01*
X60272702Y-78092189D01*
X60332490Y-77961273D01*
X60352972Y-77818816D01*
X60332490Y-77676359D01*
X60272702Y-77545443D01*
X60178453Y-77436673D01*
X60057378Y-77358863D01*
X60057376Y-77358862D01*
X60057374Y-77358861D01*
X60057375Y-77358861D01*
X59919288Y-77318316D01*
X59919286Y-77318316D01*
X59775364Y-77318316D01*
X59775361Y-77318316D01*
X59637274Y-77358861D01*
X59516198Y-77436672D01*
X59421948Y-77545442D01*
X59421947Y-77545444D01*
X59362159Y-77676359D01*
X59341678Y-77818816D01*
X53347325Y-77818816D01*
X53347325Y-73192854D01*
X98746825Y-73192854D01*
X98746825Y-73444777D01*
X98786235Y-73693601D01*
X98864085Y-73933199D01*
X98978457Y-74157664D01*
X99126526Y-74361465D01*
X99126530Y-74361470D01*
X99304670Y-74539610D01*
X99304675Y-74539614D01*
X99482442Y-74668768D01*
X99508480Y-74687686D01*
X99651509Y-74760563D01*
X99732941Y-74802055D01*
X99732943Y-74802055D01*
X99732946Y-74802057D01*
X99972540Y-74879906D01*
X100221363Y-74919316D01*
X100221364Y-74919316D01*
X100473286Y-74919316D01*
X100473287Y-74919316D01*
X100722110Y-74879906D01*
X100961704Y-74802057D01*
X101186170Y-74687686D01*
X101389981Y-74539609D01*
X101568118Y-74361472D01*
X101716195Y-74157661D01*
X101830566Y-73933195D01*
X101908415Y-73693601D01*
X101947825Y-73444778D01*
X101947825Y-73192854D01*
X132746825Y-73192854D01*
X132746825Y-73444777D01*
X132786235Y-73693601D01*
X132864085Y-73933199D01*
X132978457Y-74157664D01*
X133126526Y-74361465D01*
X133126530Y-74361470D01*
X133304670Y-74539610D01*
X133304675Y-74539614D01*
X133482442Y-74668768D01*
X133508480Y-74687686D01*
X133651509Y-74760563D01*
X133732941Y-74802055D01*
X133732943Y-74802055D01*
X133732946Y-74802057D01*
X133972540Y-74879906D01*
X134221363Y-74919316D01*
X134221364Y-74919316D01*
X134473286Y-74919316D01*
X134473287Y-74919316D01*
X134722110Y-74879906D01*
X134961704Y-74802057D01*
X135186170Y-74687686D01*
X135389981Y-74539609D01*
X135568118Y-74361472D01*
X135716195Y-74157661D01*
X135830566Y-73933195D01*
X135908415Y-73693601D01*
X135947825Y-73444778D01*
X135947825Y-73192854D01*
X135908415Y-72944031D01*
X135830566Y-72704437D01*
X135830564Y-72704434D01*
X135830564Y-72704432D01*
X135789072Y-72623000D01*
X135716195Y-72479971D01*
X135697277Y-72453933D01*
X135568123Y-72276166D01*
X135568119Y-72276161D01*
X135389979Y-72098021D01*
X135389974Y-72098017D01*
X135186173Y-71949948D01*
X135186172Y-71949947D01*
X135186170Y-71949946D01*
X135116072Y-71914229D01*
X134961708Y-71835576D01*
X134722110Y-71757726D01*
X134473287Y-71718316D01*
X134221363Y-71718316D01*
X134096951Y-71738021D01*
X133972539Y-71757726D01*
X133732941Y-71835576D01*
X133508476Y-71949948D01*
X133304675Y-72098017D01*
X133304670Y-72098021D01*
X133126530Y-72276161D01*
X133126526Y-72276166D01*
X132978457Y-72479967D01*
X132864085Y-72704432D01*
X132786235Y-72944030D01*
X132746825Y-73192854D01*
X101947825Y-73192854D01*
X101908415Y-72944031D01*
X101830566Y-72704437D01*
X101830564Y-72704434D01*
X101830564Y-72704432D01*
X101789072Y-72623000D01*
X101716195Y-72479971D01*
X101697277Y-72453933D01*
X101568123Y-72276166D01*
X101568119Y-72276161D01*
X101389979Y-72098021D01*
X101389974Y-72098017D01*
X101186173Y-71949948D01*
X101186172Y-71949947D01*
X101186170Y-71949946D01*
X101116072Y-71914229D01*
X100961708Y-71835576D01*
X100722110Y-71757726D01*
X100473287Y-71718316D01*
X100221363Y-71718316D01*
X100096951Y-71738021D01*
X99972539Y-71757726D01*
X99732941Y-71835576D01*
X99508476Y-71949948D01*
X99304675Y-72098017D01*
X99304670Y-72098021D01*
X99126530Y-72276161D01*
X99126526Y-72276166D01*
X98978457Y-72479967D01*
X98864085Y-72704432D01*
X98786235Y-72944030D01*
X98746825Y-73192854D01*
X53347325Y-73192854D01*
X53347325Y-70318816D01*
X75841678Y-70318816D01*
X75862159Y-70461272D01*
X75921947Y-70592187D01*
X75921948Y-70592189D01*
X76016197Y-70700959D01*
X76137272Y-70778769D01*
X76137275Y-70778770D01*
X76137274Y-70778770D01*
X76275361Y-70819315D01*
X76275363Y-70819316D01*
X76275364Y-70819316D01*
X76419287Y-70819316D01*
X76419287Y-70819315D01*
X76557378Y-70778769D01*
X76678453Y-70700959D01*
X76772702Y-70592189D01*
X76832490Y-70461273D01*
X76852972Y-70318816D01*
X76832490Y-70176359D01*
X76772702Y-70045443D01*
X76678453Y-69936673D01*
X76557378Y-69858863D01*
X76557376Y-69858862D01*
X76557374Y-69858861D01*
X76557375Y-69858861D01*
X76419288Y-69818316D01*
X76419286Y-69818316D01*
X76275364Y-69818316D01*
X76275361Y-69818316D01*
X76137274Y-69858861D01*
X76016198Y-69936672D01*
X75921948Y-70045442D01*
X75921947Y-70045444D01*
X75862159Y-70176359D01*
X75841678Y-70318816D01*
X53347325Y-70318816D01*
X53347325Y-66318816D01*
X75841678Y-66318816D01*
X75862159Y-66461272D01*
X75921947Y-66592187D01*
X75921948Y-66592189D01*
X76016197Y-66700959D01*
X76137272Y-66778769D01*
X76137275Y-66778770D01*
X76137274Y-66778770D01*
X76275361Y-66819315D01*
X76275363Y-66819316D01*
X76275364Y-66819316D01*
X76419287Y-66819316D01*
X76419287Y-66819315D01*
X76557378Y-66778769D01*
X76678453Y-66700959D01*
X76772702Y-66592189D01*
X76832490Y-66461273D01*
X76852972Y-66318816D01*
X76832490Y-66176359D01*
X76772702Y-66045443D01*
X76678453Y-65936673D01*
X76557378Y-65858863D01*
X76557376Y-65858862D01*
X76557374Y-65858861D01*
X76557375Y-65858861D01*
X76419288Y-65818316D01*
X76419286Y-65818316D01*
X76275364Y-65818316D01*
X76275361Y-65818316D01*
X76137274Y-65858861D01*
X76016198Y-65936672D01*
X75921948Y-66045442D01*
X75921947Y-66045444D01*
X75862159Y-66176359D01*
X75841678Y-66318816D01*
X53347325Y-66318816D01*
X53347325Y-61318816D01*
X131291742Y-61318816D01*
X131312024Y-61524748D01*
X131312025Y-61524750D01*
X131372093Y-61722770D01*
X131469640Y-61905266D01*
X131469642Y-61905268D01*
X131600914Y-62065226D01*
X131697534Y-62144518D01*
X131760875Y-62196501D01*
X131943371Y-62294048D01*
X132141391Y-62354116D01*
X132141390Y-62354116D01*
X132159854Y-62355934D01*
X132347325Y-62374399D01*
X132553259Y-62354116D01*
X132751279Y-62294048D01*
X132933775Y-62196501D01*
X133093735Y-62065226D01*
X133225010Y-61905266D01*
X133322557Y-61722770D01*
X133382625Y-61524750D01*
X133402908Y-61318816D01*
X133382625Y-61112882D01*
X133322557Y-60914862D01*
X133225010Y-60732366D01*
X133173027Y-60669025D01*
X133093735Y-60572405D01*
X132933777Y-60441133D01*
X132933778Y-60441133D01*
X132933775Y-60441131D01*
X132751279Y-60343584D01*
X132553259Y-60283516D01*
X132553257Y-60283515D01*
X132553259Y-60283515D01*
X132347325Y-60263233D01*
X132141392Y-60283515D01*
X131943368Y-60343585D01*
X131833223Y-60402459D01*
X131760875Y-60441131D01*
X131760873Y-60441132D01*
X131760872Y-60441133D01*
X131600914Y-60572405D01*
X131469642Y-60732363D01*
X131372094Y-60914859D01*
X131312024Y-61112883D01*
X131291742Y-61318816D01*
X53347325Y-61318816D01*
X53347325Y-59318816D01*
X59841678Y-59318816D01*
X59862159Y-59461272D01*
X59921947Y-59592187D01*
X59921948Y-59592189D01*
X60016197Y-59700959D01*
X60137272Y-59778769D01*
X60137275Y-59778770D01*
X60137274Y-59778770D01*
X60275361Y-59819315D01*
X60275363Y-59819316D01*
X60275364Y-59819316D01*
X60419287Y-59819316D01*
X60419287Y-59819315D01*
X60557378Y-59778769D01*
X60678453Y-59700959D01*
X60772702Y-59592189D01*
X60832490Y-59461273D01*
X60852972Y-59318816D01*
X60832490Y-59176359D01*
X60772702Y-59045443D01*
X60678453Y-58936673D01*
X60557378Y-58858863D01*
X60557376Y-58858862D01*
X60557374Y-58858861D01*
X60557375Y-58858861D01*
X60419288Y-58818316D01*
X60419286Y-58818316D01*
X60275364Y-58818316D01*
X60275361Y-58818316D01*
X60137274Y-58858861D01*
X60016198Y-58936672D01*
X59921948Y-59045442D01*
X59921947Y-59045444D01*
X59862159Y-59176359D01*
X59841678Y-59318816D01*
X53347325Y-59318816D01*
X53347325Y-58318816D01*
X70841678Y-58318816D01*
X70862159Y-58461272D01*
X70913131Y-58572882D01*
X70921948Y-58592189D01*
X71016197Y-58700959D01*
X71137272Y-58778769D01*
X71137275Y-58778770D01*
X71137274Y-58778770D01*
X71244432Y-58810233D01*
X71271958Y-58818316D01*
X71275361Y-58819315D01*
X71275363Y-58819316D01*
X71275364Y-58819316D01*
X71419287Y-58819316D01*
X71419287Y-58819315D01*
X71557378Y-58778769D01*
X71678453Y-58700959D01*
X71772702Y-58592189D01*
X71832490Y-58461273D01*
X71852972Y-58318816D01*
X75841678Y-58318816D01*
X75862159Y-58461272D01*
X75913131Y-58572882D01*
X75921948Y-58592189D01*
X76016197Y-58700959D01*
X76137272Y-58778769D01*
X76137275Y-58778770D01*
X76137274Y-58778770D01*
X76244432Y-58810233D01*
X76271958Y-58818316D01*
X76275361Y-58819315D01*
X76275363Y-58819316D01*
X76275364Y-58819316D01*
X76419287Y-58819316D01*
X76419287Y-58819315D01*
X76557218Y-58778816D01*
X131291742Y-58778816D01*
X131312024Y-58984748D01*
X131312025Y-58984750D01*
X131372093Y-59182770D01*
X131469640Y-59365266D01*
X131469642Y-59365268D01*
X131600914Y-59525226D01*
X131682508Y-59592187D01*
X131760875Y-59656501D01*
X131943371Y-59754048D01*
X132141391Y-59814116D01*
X132141390Y-59814116D01*
X132159854Y-59815934D01*
X132347325Y-59834399D01*
X132553259Y-59814116D01*
X132751279Y-59754048D01*
X132933775Y-59656501D01*
X133093735Y-59525226D01*
X133225010Y-59365266D01*
X133322557Y-59182770D01*
X133382625Y-58984750D01*
X133402908Y-58778816D01*
X133382625Y-58572882D01*
X133322557Y-58374862D01*
X133225010Y-58192366D01*
X133173027Y-58129025D01*
X133093735Y-58032405D01*
X132933777Y-57901133D01*
X132933778Y-57901133D01*
X132933775Y-57901131D01*
X132751279Y-57803584D01*
X132553259Y-57743516D01*
X132553257Y-57743515D01*
X132553259Y-57743515D01*
X132347325Y-57723233D01*
X132141392Y-57743515D01*
X131943368Y-57803585D01*
X131839956Y-57858861D01*
X131760875Y-57901131D01*
X131760873Y-57901132D01*
X131760872Y-57901133D01*
X131600914Y-58032405D01*
X131469642Y-58192363D01*
X131372094Y-58374859D01*
X131312024Y-58572883D01*
X131291742Y-58778816D01*
X76557218Y-58778816D01*
X76557378Y-58778769D01*
X76678453Y-58700959D01*
X76772702Y-58592189D01*
X76832490Y-58461273D01*
X76852972Y-58318816D01*
X76832490Y-58176359D01*
X76772702Y-58045443D01*
X76678453Y-57936673D01*
X76557378Y-57858863D01*
X76557376Y-57858862D01*
X76557374Y-57858861D01*
X76557375Y-57858861D01*
X76419288Y-57818316D01*
X76419286Y-57818316D01*
X76275364Y-57818316D01*
X76275361Y-57818316D01*
X76137274Y-57858861D01*
X76016198Y-57936672D01*
X75921948Y-58045442D01*
X75921947Y-58045444D01*
X75862159Y-58176359D01*
X75841678Y-58318816D01*
X71852972Y-58318816D01*
X71832490Y-58176359D01*
X71772702Y-58045443D01*
X71678453Y-57936673D01*
X71557378Y-57858863D01*
X71557376Y-57858862D01*
X71557374Y-57858861D01*
X71557375Y-57858861D01*
X71419288Y-57818316D01*
X71419286Y-57818316D01*
X71275364Y-57818316D01*
X71275361Y-57818316D01*
X71137274Y-57858861D01*
X71016198Y-57936672D01*
X70921948Y-58045442D01*
X70921947Y-58045444D01*
X70862159Y-58176359D01*
X70841678Y-58318816D01*
X53347325Y-58318816D01*
X53347325Y-57068816D01*
X77591678Y-57068816D01*
X77612159Y-57211272D01*
X77671947Y-57342187D01*
X77671948Y-57342189D01*
X77766197Y-57450959D01*
X77887272Y-57528769D01*
X77887275Y-57528770D01*
X77887274Y-57528770D01*
X78025361Y-57569315D01*
X78025363Y-57569316D01*
X78025364Y-57569316D01*
X78169287Y-57569316D01*
X78169287Y-57569315D01*
X78307378Y-57528769D01*
X78428453Y-57450959D01*
X78522702Y-57342189D01*
X78582490Y-57211273D01*
X78602972Y-57068816D01*
X78582490Y-56926359D01*
X78522702Y-56795443D01*
X78428453Y-56686673D01*
X78307378Y-56608863D01*
X78307376Y-56608862D01*
X78307374Y-56608861D01*
X78307375Y-56608861D01*
X78169288Y-56568316D01*
X78169286Y-56568316D01*
X78025364Y-56568316D01*
X78025361Y-56568316D01*
X77887274Y-56608861D01*
X77766198Y-56686672D01*
X77671948Y-56795442D01*
X77671947Y-56795444D01*
X77612159Y-56926359D01*
X77591678Y-57068816D01*
X53347325Y-57068816D01*
X53347325Y-49192854D01*
X98746825Y-49192854D01*
X98746825Y-49444777D01*
X98786235Y-49693601D01*
X98864085Y-49933199D01*
X98978457Y-50157664D01*
X99126526Y-50361465D01*
X99126530Y-50361470D01*
X99304670Y-50539610D01*
X99304675Y-50539614D01*
X99482442Y-50668768D01*
X99508480Y-50687686D01*
X99651509Y-50760563D01*
X99732941Y-50802055D01*
X99732943Y-50802055D01*
X99732946Y-50802057D01*
X99972540Y-50879906D01*
X100221363Y-50919316D01*
X100221364Y-50919316D01*
X100473286Y-50919316D01*
X100473287Y-50919316D01*
X100722110Y-50879906D01*
X100961704Y-50802057D01*
X101186170Y-50687686D01*
X101389981Y-50539609D01*
X101568118Y-50361472D01*
X101716195Y-50157661D01*
X101830566Y-49933195D01*
X101908415Y-49693601D01*
X101947825Y-49444778D01*
X101947825Y-49192854D01*
X132746825Y-49192854D01*
X132746825Y-49444777D01*
X132786235Y-49693601D01*
X132864085Y-49933199D01*
X132978457Y-50157664D01*
X133126526Y-50361465D01*
X133126530Y-50361470D01*
X133304670Y-50539610D01*
X133304675Y-50539614D01*
X133482442Y-50668768D01*
X133508480Y-50687686D01*
X133651509Y-50760563D01*
X133732941Y-50802055D01*
X133732943Y-50802055D01*
X133732946Y-50802057D01*
X133972540Y-50879906D01*
X134221363Y-50919316D01*
X134221364Y-50919316D01*
X134473286Y-50919316D01*
X134473287Y-50919316D01*
X134722110Y-50879906D01*
X134961704Y-50802057D01*
X135186170Y-50687686D01*
X135389981Y-50539609D01*
X135568118Y-50361472D01*
X135716195Y-50157661D01*
X135830566Y-49933195D01*
X135908415Y-49693601D01*
X135947825Y-49444778D01*
X135947825Y-49192854D01*
X135908415Y-48944031D01*
X135830566Y-48704437D01*
X135830564Y-48704434D01*
X135830564Y-48704432D01*
X135789072Y-48623000D01*
X135716195Y-48479971D01*
X135697277Y-48453933D01*
X135568123Y-48276166D01*
X135568119Y-48276161D01*
X135389979Y-48098021D01*
X135389974Y-48098017D01*
X135186173Y-47949948D01*
X135186172Y-47949947D01*
X135186170Y-47949946D01*
X135116072Y-47914229D01*
X134961708Y-47835576D01*
X134722110Y-47757726D01*
X134473287Y-47718316D01*
X134221363Y-47718316D01*
X134096951Y-47738021D01*
X133972539Y-47757726D01*
X133732941Y-47835576D01*
X133508476Y-47949948D01*
X133304675Y-48098017D01*
X133304670Y-48098021D01*
X133126530Y-48276161D01*
X133126526Y-48276166D01*
X132978457Y-48479967D01*
X132864085Y-48704432D01*
X132786235Y-48944030D01*
X132746825Y-49192854D01*
X101947825Y-49192854D01*
X101908415Y-48944031D01*
X101830566Y-48704437D01*
X101830564Y-48704434D01*
X101830564Y-48704432D01*
X101789072Y-48623000D01*
X101716195Y-48479971D01*
X101697277Y-48453933D01*
X101568123Y-48276166D01*
X101568119Y-48276161D01*
X101389979Y-48098021D01*
X101389974Y-48098017D01*
X101186173Y-47949948D01*
X101186172Y-47949947D01*
X101186170Y-47949946D01*
X101116072Y-47914229D01*
X100961708Y-47835576D01*
X100722110Y-47757726D01*
X100473287Y-47718316D01*
X100221363Y-47718316D01*
X100096951Y-47738021D01*
X99972539Y-47757726D01*
X99732941Y-47835576D01*
X99508476Y-47949948D01*
X99304675Y-48098017D01*
X99304670Y-48098021D01*
X99126530Y-48276161D01*
X99126526Y-48276166D01*
X98978457Y-48479967D01*
X98864085Y-48704432D01*
X98786235Y-48944030D01*
X98746825Y-49192854D01*
X53347325Y-49192854D01*
X53347325Y-46798343D01*
X53367010Y-46731304D01*
X53419814Y-46685549D01*
X53488972Y-46675605D01*
X53552528Y-46704630D01*
X53581810Y-46742049D01*
X53631130Y-46838846D01*
X53779201Y-47042649D01*
X53779205Y-47042654D01*
X53957345Y-47220794D01*
X53957350Y-47220798D01*
X54135117Y-47349952D01*
X54161155Y-47368870D01*
X54304184Y-47441747D01*
X54385616Y-47483239D01*
X54385618Y-47483239D01*
X54385621Y-47483241D01*
X54625215Y-47561090D01*
X54874038Y-47600500D01*
X54874039Y-47600500D01*
X55125961Y-47600500D01*
X55125962Y-47600500D01*
X55374785Y-47561090D01*
X55614379Y-47483241D01*
X55838845Y-47368870D01*
X56042656Y-47220793D01*
X56220793Y-47042656D01*
X56368870Y-46838845D01*
X56483241Y-46614379D01*
X56561090Y-46374785D01*
X56600500Y-46125962D01*
X56600500Y-45874038D01*
X56561090Y-45625215D01*
X56483241Y-45385621D01*
X56483239Y-45385618D01*
X56483239Y-45385616D01*
X56389506Y-45201656D01*
X56368870Y-45161155D01*
X56349952Y-45135117D01*
X56220798Y-44957350D01*
X56220794Y-44957345D01*
X56042654Y-44779205D01*
X56042649Y-44779201D01*
X55838848Y-44631132D01*
X55838847Y-44631131D01*
X55838845Y-44631130D01*
X55768747Y-44595413D01*
X55614383Y-44516760D01*
X55374785Y-44438910D01*
X55125962Y-44399500D01*
X54874038Y-44399500D01*
X54749626Y-44419205D01*
X54625214Y-44438910D01*
X54385616Y-44516760D01*
X54161151Y-44631132D01*
X53957350Y-44779201D01*
X53957345Y-44779205D01*
X53779205Y-44957345D01*
X53779201Y-44957350D01*
X53631132Y-45161151D01*
X53581810Y-45257951D01*
X53533835Y-45308747D01*
X53466014Y-45325542D01*
X53399879Y-45303005D01*
X53356428Y-45248289D01*
X53347325Y-45201656D01*
X53347325Y-43443316D01*
X53367010Y-43376277D01*
X53419814Y-43330522D01*
X53471325Y-43319316D01*
X151223325Y-43319316D01*
X151290364Y-43339001D01*
G37*
%TD.AperFunction*%
%TD*%
%TA.AperFunction,Conductor*%
%TO.N,+3.3V*%
G36*
X240289864Y-59338501D02*
G01*
X240335619Y-59391305D01*
X240346825Y-59442816D01*
X240346825Y-124194316D01*
X240327140Y-124261355D01*
X240274336Y-124307110D01*
X240222825Y-124318316D01*
X169471325Y-124318316D01*
X169404286Y-124298631D01*
X169358531Y-124245827D01*
X169347325Y-124194316D01*
X169347325Y-123318816D01*
X225841678Y-123318816D01*
X225862159Y-123461272D01*
X225921947Y-123592187D01*
X225921948Y-123592189D01*
X226016197Y-123700959D01*
X226137272Y-123778769D01*
X226137275Y-123778770D01*
X226137274Y-123778770D01*
X226275361Y-123819315D01*
X226275363Y-123819316D01*
X226275364Y-123819316D01*
X226419287Y-123819316D01*
X226419287Y-123819315D01*
X226557378Y-123778769D01*
X226678453Y-123700959D01*
X226772702Y-123592189D01*
X226832490Y-123461273D01*
X226852972Y-123318816D01*
X226832490Y-123176359D01*
X226772702Y-123045443D01*
X226678453Y-122936673D01*
X226557378Y-122858863D01*
X226557376Y-122858862D01*
X226557374Y-122858861D01*
X226557375Y-122858861D01*
X226419288Y-122818316D01*
X226419286Y-122818316D01*
X226275364Y-122818316D01*
X226275361Y-122818316D01*
X226137274Y-122858861D01*
X226016198Y-122936672D01*
X225921948Y-123045442D01*
X225921947Y-123045444D01*
X225862159Y-123176359D01*
X225841678Y-123318816D01*
X169347325Y-123318816D01*
X169347325Y-120318816D01*
X196841678Y-120318816D01*
X196862159Y-120461272D01*
X196921947Y-120592187D01*
X196921948Y-120592189D01*
X197016197Y-120700959D01*
X197137272Y-120778769D01*
X197137275Y-120778770D01*
X197137274Y-120778770D01*
X197244432Y-120810233D01*
X197272605Y-120818506D01*
X197275361Y-120819315D01*
X197275363Y-120819316D01*
X197371492Y-120819316D01*
X197438531Y-120839001D01*
X197459173Y-120855635D01*
X198162814Y-121559276D01*
X198222154Y-121593536D01*
X198231333Y-121598836D01*
X198231337Y-121598838D01*
X198307763Y-121619316D01*
X198307765Y-121619316D01*
X222091787Y-121619316D01*
X222158826Y-121639001D01*
X222204581Y-121691805D01*
X222214525Y-121760963D01*
X222185500Y-121824519D01*
X222143302Y-121856109D01*
X222137273Y-121858862D01*
X222016198Y-121936672D01*
X221921948Y-122045442D01*
X221921947Y-122045444D01*
X221862159Y-122176359D01*
X221841678Y-122318816D01*
X221862159Y-122461272D01*
X221921947Y-122592187D01*
X221921948Y-122592189D01*
X222016197Y-122700959D01*
X222137272Y-122778769D01*
X222137275Y-122778770D01*
X222137274Y-122778770D01*
X222244432Y-122810233D01*
X222271958Y-122818316D01*
X222275361Y-122819315D01*
X222275363Y-122819316D01*
X222275364Y-122819316D01*
X222419287Y-122819316D01*
X222419287Y-122819315D01*
X222557378Y-122778769D01*
X222678453Y-122700959D01*
X222772702Y-122592189D01*
X222832490Y-122461273D01*
X222852972Y-122318816D01*
X222832490Y-122176359D01*
X222772702Y-122045443D01*
X222678453Y-121936673D01*
X222557378Y-121858863D01*
X222557377Y-121858862D01*
X222557376Y-121858862D01*
X222551348Y-121856109D01*
X222498546Y-121810352D01*
X222478863Y-121743312D01*
X222498549Y-121676274D01*
X222551355Y-121630520D01*
X222602863Y-121619316D01*
X234286885Y-121619316D01*
X234286887Y-121619316D01*
X234363314Y-121598837D01*
X234431836Y-121559276D01*
X234487785Y-121503327D01*
X237109612Y-118881498D01*
X237170933Y-118848015D01*
X237240625Y-118852999D01*
X237296558Y-118894871D01*
X237310085Y-118917669D01*
X237337254Y-118977159D01*
X237362753Y-119032993D01*
X237457002Y-119141763D01*
X237578077Y-119219573D01*
X237578080Y-119219574D01*
X237578079Y-119219574D01*
X237685237Y-119251037D01*
X237706207Y-119257195D01*
X237716166Y-119260119D01*
X237716168Y-119260120D01*
X237716169Y-119260120D01*
X237860092Y-119260120D01*
X237860092Y-119260119D01*
X237998183Y-119219573D01*
X238119258Y-119141763D01*
X238213507Y-119032993D01*
X238273295Y-118902077D01*
X238293777Y-118759620D01*
X238273295Y-118617163D01*
X238213507Y-118486247D01*
X238119258Y-118377477D01*
X238065503Y-118342931D01*
X237998182Y-118299666D01*
X237961591Y-118288922D01*
X237902814Y-118251146D01*
X237873790Y-118187590D01*
X237883734Y-118118432D01*
X237908844Y-118082267D01*
X239587785Y-116403327D01*
X239598307Y-116385102D01*
X239627346Y-116334805D01*
X239647825Y-116258378D01*
X239647825Y-77469254D01*
X239627346Y-77392827D01*
X239627342Y-77392820D01*
X239587789Y-77324311D01*
X239587783Y-77324303D01*
X239076720Y-76813240D01*
X239043235Y-76751917D01*
X239041664Y-76707910D01*
X239042972Y-76698816D01*
X239022490Y-76556359D01*
X238962702Y-76425443D01*
X238868453Y-76316673D01*
X238747378Y-76238863D01*
X238747376Y-76238862D01*
X238747374Y-76238861D01*
X238747375Y-76238861D01*
X238609288Y-76198316D01*
X238609286Y-76198316D01*
X238465364Y-76198316D01*
X238465361Y-76198316D01*
X238327274Y-76238861D01*
X238206198Y-76316672D01*
X238111948Y-76425442D01*
X238111947Y-76425444D01*
X238052159Y-76556359D01*
X238031678Y-76698816D01*
X238052159Y-76841272D01*
X238111947Y-76972187D01*
X238111948Y-76972189D01*
X238206197Y-77080959D01*
X238327272Y-77158769D01*
X238327275Y-77158770D01*
X238327274Y-77158770D01*
X238434432Y-77190233D01*
X238462605Y-77198506D01*
X238465361Y-77199315D01*
X238465363Y-77199316D01*
X238561492Y-77199316D01*
X238628531Y-77219001D01*
X238649173Y-77235635D01*
X239010506Y-77596968D01*
X239043991Y-77658291D01*
X239046825Y-77684649D01*
X239046825Y-116042983D01*
X239027140Y-116110022D01*
X239010506Y-116130664D01*
X236024814Y-119116355D01*
X235963491Y-119149840D01*
X235893799Y-119144856D01*
X235837866Y-119102984D01*
X235813449Y-119037520D01*
X235824339Y-118977163D01*
X235832490Y-118959316D01*
X235852972Y-118816859D01*
X235832490Y-118674402D01*
X235772702Y-118543486D01*
X235678453Y-118434716D01*
X235557378Y-118356906D01*
X235557376Y-118356905D01*
X235557374Y-118356904D01*
X235557375Y-118356904D01*
X235419288Y-118316359D01*
X235419286Y-118316359D01*
X235275364Y-118316359D01*
X235275361Y-118316359D01*
X235137274Y-118356904D01*
X235016198Y-118434715D01*
X234921948Y-118543485D01*
X234921947Y-118543487D01*
X234862159Y-118674402D01*
X234841678Y-118816859D01*
X234862159Y-118959315D01*
X234897875Y-119037520D01*
X234921948Y-119090232D01*
X235016197Y-119199002D01*
X235137272Y-119276812D01*
X235137275Y-119276813D01*
X235137274Y-119276813D01*
X235275361Y-119317358D01*
X235275363Y-119317359D01*
X235275364Y-119317359D01*
X235419286Y-119317359D01*
X235525817Y-119286079D01*
X235595686Y-119286079D01*
X235654464Y-119323853D01*
X235683489Y-119387409D01*
X235673545Y-119456567D01*
X235648432Y-119492737D01*
X234159173Y-120981997D01*
X234097850Y-121015482D01*
X234071492Y-121018316D01*
X227602863Y-121018316D01*
X227535824Y-120998631D01*
X227490069Y-120945827D01*
X227480125Y-120876669D01*
X227509150Y-120813113D01*
X227551348Y-120781523D01*
X227557372Y-120778770D01*
X227557378Y-120778769D01*
X227678453Y-120700959D01*
X227772702Y-120592189D01*
X227832490Y-120461273D01*
X227852972Y-120318816D01*
X227832490Y-120176359D01*
X227772702Y-120045443D01*
X227678453Y-119936673D01*
X227557378Y-119858863D01*
X227557376Y-119858862D01*
X227557374Y-119858861D01*
X227557375Y-119858861D01*
X227419288Y-119818316D01*
X227419286Y-119818316D01*
X227275364Y-119818316D01*
X227275361Y-119818316D01*
X227137274Y-119858861D01*
X227016198Y-119936672D01*
X226921948Y-120045442D01*
X226921947Y-120045444D01*
X226862159Y-120176359D01*
X226841678Y-120318816D01*
X226862159Y-120461272D01*
X226921947Y-120592187D01*
X226921948Y-120592189D01*
X227016197Y-120700959D01*
X227137272Y-120778769D01*
X227137274Y-120778769D01*
X227143302Y-120781523D01*
X227196104Y-120827280D01*
X227215787Y-120894320D01*
X227196101Y-120961358D01*
X227143295Y-121007112D01*
X227091787Y-121018316D01*
X216602863Y-121018316D01*
X216535824Y-120998631D01*
X216490069Y-120945827D01*
X216480125Y-120876669D01*
X216509150Y-120813113D01*
X216551348Y-120781523D01*
X216557372Y-120778770D01*
X216557378Y-120778769D01*
X216678453Y-120700959D01*
X216772702Y-120592189D01*
X216832490Y-120461273D01*
X216852972Y-120318816D01*
X216832490Y-120176359D01*
X216772702Y-120045443D01*
X216678453Y-119936673D01*
X216557378Y-119858863D01*
X216557376Y-119858862D01*
X216557374Y-119858861D01*
X216557375Y-119858861D01*
X216419288Y-119818316D01*
X216419286Y-119818316D01*
X216275364Y-119818316D01*
X216275361Y-119818316D01*
X216137274Y-119858861D01*
X216016198Y-119936672D01*
X215921948Y-120045442D01*
X215921947Y-120045444D01*
X215862159Y-120176359D01*
X215841678Y-120318816D01*
X215862159Y-120461272D01*
X215921947Y-120592187D01*
X215921948Y-120592189D01*
X216016197Y-120700959D01*
X216137272Y-120778769D01*
X216137274Y-120778769D01*
X216143302Y-120781523D01*
X216196104Y-120827280D01*
X216215787Y-120894320D01*
X216196101Y-120961358D01*
X216143295Y-121007112D01*
X216091787Y-121018316D01*
X198523158Y-121018316D01*
X198456119Y-120998631D01*
X198435477Y-120981997D01*
X197886720Y-120433240D01*
X197853235Y-120371917D01*
X197851664Y-120327910D01*
X197852972Y-120318816D01*
X197832490Y-120176359D01*
X197772702Y-120045443D01*
X197678453Y-119936673D01*
X197557378Y-119858863D01*
X197557376Y-119858862D01*
X197557374Y-119858861D01*
X197557375Y-119858861D01*
X197419288Y-119818316D01*
X197419286Y-119818316D01*
X197275364Y-119818316D01*
X197275361Y-119818316D01*
X197137274Y-119858861D01*
X197016198Y-119936672D01*
X196921948Y-120045442D01*
X196921947Y-120045444D01*
X196862159Y-120176359D01*
X196841678Y-120318816D01*
X169347325Y-120318816D01*
X169347325Y-119318816D01*
X230841678Y-119318816D01*
X230862159Y-119461272D01*
X230876529Y-119492737D01*
X230921948Y-119592189D01*
X231016197Y-119700959D01*
X231137272Y-119778769D01*
X231137275Y-119778770D01*
X231137274Y-119778770D01*
X231244432Y-119810233D01*
X231271958Y-119818316D01*
X231275361Y-119819315D01*
X231275363Y-119819316D01*
X231275364Y-119819316D01*
X231419287Y-119819316D01*
X231419287Y-119819315D01*
X231557378Y-119778769D01*
X231678453Y-119700959D01*
X231772702Y-119592189D01*
X231832490Y-119461273D01*
X231852972Y-119318816D01*
X231832490Y-119176359D01*
X231804349Y-119114739D01*
X232841678Y-119114739D01*
X232862159Y-119257195D01*
X232921627Y-119387409D01*
X232921948Y-119388112D01*
X233016197Y-119496882D01*
X233137272Y-119574692D01*
X233137275Y-119574693D01*
X233137274Y-119574693D01*
X233275361Y-119615238D01*
X233275363Y-119615239D01*
X233275364Y-119615239D01*
X233419287Y-119615239D01*
X233419287Y-119615238D01*
X233557378Y-119574692D01*
X233678453Y-119496882D01*
X233772702Y-119388112D01*
X233832490Y-119257196D01*
X233852972Y-119114739D01*
X233832490Y-118972282D01*
X233772702Y-118841366D01*
X233678453Y-118732596D01*
X233557378Y-118654786D01*
X233557376Y-118654785D01*
X233557374Y-118654784D01*
X233557375Y-118654784D01*
X233419288Y-118614239D01*
X233419286Y-118614239D01*
X233275364Y-118614239D01*
X233275361Y-118614239D01*
X233137274Y-118654784D01*
X233016198Y-118732595D01*
X232921948Y-118841365D01*
X232921947Y-118841367D01*
X232862159Y-118972282D01*
X232841678Y-119114739D01*
X231804349Y-119114739D01*
X231772702Y-119045443D01*
X231678453Y-118936673D01*
X231557378Y-118858863D01*
X231557376Y-118858862D01*
X231557374Y-118858861D01*
X231557375Y-118858861D01*
X231419288Y-118818316D01*
X231419286Y-118818316D01*
X231275364Y-118818316D01*
X231275361Y-118818316D01*
X231137274Y-118858861D01*
X231016198Y-118936672D01*
X230921948Y-119045442D01*
X230921947Y-119045444D01*
X230862159Y-119176359D01*
X230841678Y-119318816D01*
X169347325Y-119318816D01*
X169347325Y-116318816D01*
X180841678Y-116318816D01*
X180862159Y-116461272D01*
X180921947Y-116592187D01*
X180921948Y-116592189D01*
X181016197Y-116700959D01*
X181137272Y-116778769D01*
X181137275Y-116778770D01*
X181137274Y-116778770D01*
X181244432Y-116810233D01*
X181271958Y-116818316D01*
X181275361Y-116819315D01*
X181275363Y-116819316D01*
X181275364Y-116819316D01*
X181419287Y-116819316D01*
X181419287Y-116819315D01*
X181557378Y-116778769D01*
X181678453Y-116700959D01*
X181772702Y-116592189D01*
X181832490Y-116461273D01*
X181852972Y-116318816D01*
X181832490Y-116176359D01*
X181772702Y-116045443D01*
X181678453Y-115936673D01*
X181557378Y-115858863D01*
X181557376Y-115858862D01*
X181557374Y-115858861D01*
X181557375Y-115858861D01*
X181419288Y-115818316D01*
X181419286Y-115818316D01*
X181275364Y-115818316D01*
X181275361Y-115818316D01*
X181137274Y-115858861D01*
X181016198Y-115936672D01*
X180921948Y-116045442D01*
X180921947Y-116045444D01*
X180862159Y-116176359D01*
X180841678Y-116318816D01*
X169347325Y-116318816D01*
X169347325Y-103043149D01*
X169367010Y-102976110D01*
X169419814Y-102930355D01*
X169488972Y-102920411D01*
X169552528Y-102949436D01*
X169559006Y-102955468D01*
X184807929Y-118204391D01*
X184841414Y-118265714D01*
X184842986Y-118309718D01*
X184841678Y-118318815D01*
X184862159Y-118461272D01*
X184899705Y-118543485D01*
X184921948Y-118592189D01*
X185016197Y-118700959D01*
X185137272Y-118778769D01*
X185137275Y-118778770D01*
X185137274Y-118778770D01*
X185244432Y-118810233D01*
X185271958Y-118818316D01*
X185275361Y-118819315D01*
X185275363Y-118819316D01*
X185275364Y-118819316D01*
X185419287Y-118819316D01*
X185419287Y-118819315D01*
X185557378Y-118778769D01*
X185678453Y-118700959D01*
X185772702Y-118592189D01*
X185832490Y-118461273D01*
X185852972Y-118318816D01*
X199841678Y-118318816D01*
X199862159Y-118461272D01*
X199899705Y-118543485D01*
X199921948Y-118592189D01*
X200016197Y-118700959D01*
X200137272Y-118778769D01*
X200137275Y-118778770D01*
X200137274Y-118778770D01*
X200244432Y-118810233D01*
X200271958Y-118818316D01*
X200275361Y-118819315D01*
X200275363Y-118819316D01*
X200275364Y-118819316D01*
X200419287Y-118819316D01*
X200419287Y-118819315D01*
X200557378Y-118778769D01*
X200678453Y-118700959D01*
X200772702Y-118592189D01*
X200832490Y-118461273D01*
X200852972Y-118318816D01*
X207841678Y-118318816D01*
X207862159Y-118461272D01*
X207899705Y-118543485D01*
X207921948Y-118592189D01*
X208016197Y-118700959D01*
X208137272Y-118778769D01*
X208137275Y-118778770D01*
X208137274Y-118778770D01*
X208244432Y-118810233D01*
X208271958Y-118818316D01*
X208275361Y-118819315D01*
X208275363Y-118819316D01*
X208275364Y-118819316D01*
X208419287Y-118819316D01*
X208419287Y-118819315D01*
X208557378Y-118778769D01*
X208678453Y-118700959D01*
X208772702Y-118592189D01*
X208832490Y-118461273D01*
X208852972Y-118318816D01*
X208851664Y-118309721D01*
X208861604Y-118240565D01*
X208886717Y-118204393D01*
X210435477Y-116655635D01*
X210496800Y-116622150D01*
X210523158Y-116619316D01*
X213091787Y-116619316D01*
X213158826Y-116639001D01*
X213204581Y-116691805D01*
X213214525Y-116760963D01*
X213185500Y-116824519D01*
X213143302Y-116856109D01*
X213137273Y-116858862D01*
X213016198Y-116936672D01*
X212921948Y-117045442D01*
X212921947Y-117045444D01*
X212862159Y-117176359D01*
X212841678Y-117318816D01*
X212862159Y-117461272D01*
X212906916Y-117559274D01*
X212921948Y-117592189D01*
X213016197Y-117700959D01*
X213137272Y-117778769D01*
X213137275Y-117778770D01*
X213137274Y-117778770D01*
X213244432Y-117810233D01*
X213271958Y-117818316D01*
X213275361Y-117819315D01*
X213275363Y-117819316D01*
X213275364Y-117819316D01*
X213419287Y-117819316D01*
X213419287Y-117819315D01*
X213526446Y-117787851D01*
X213557375Y-117778770D01*
X213557375Y-117778769D01*
X213557378Y-117778769D01*
X213678453Y-117700959D01*
X213712113Y-117662112D01*
X213770892Y-117624339D01*
X213805826Y-117619316D01*
X235386885Y-117619316D01*
X235386887Y-117619316D01*
X235463314Y-117598837D01*
X235531836Y-117559276D01*
X235587785Y-117503327D01*
X238587785Y-114503327D01*
X238627347Y-114434804D01*
X238647825Y-114358378D01*
X238647825Y-114279254D01*
X238647825Y-83469254D01*
X238627346Y-83392827D01*
X238627342Y-83392820D01*
X238587789Y-83324311D01*
X238587783Y-83324303D01*
X238076720Y-82813240D01*
X238043235Y-82751917D01*
X238041664Y-82707910D01*
X238042972Y-82698816D01*
X238022490Y-82556359D01*
X237962702Y-82425443D01*
X237868453Y-82316673D01*
X237747378Y-82238863D01*
X237747376Y-82238862D01*
X237747374Y-82238861D01*
X237747375Y-82238861D01*
X237609288Y-82198316D01*
X237609286Y-82198316D01*
X237465364Y-82198316D01*
X237465361Y-82198316D01*
X237327274Y-82238861D01*
X237206198Y-82316672D01*
X237111948Y-82425442D01*
X237101003Y-82449409D01*
X237055247Y-82502212D01*
X236988207Y-82521896D01*
X236921168Y-82502211D01*
X236900528Y-82485577D01*
X234874144Y-80459193D01*
X234840659Y-80397870D01*
X234837825Y-80371512D01*
X234837825Y-75162554D01*
X234857510Y-75095515D01*
X234868112Y-75081351D01*
X234868449Y-75080960D01*
X234868453Y-75080959D01*
X234962702Y-74972189D01*
X235022490Y-74841273D01*
X235042972Y-74698816D01*
X235022490Y-74556359D01*
X234962702Y-74425443D01*
X234868453Y-74316673D01*
X234747378Y-74238863D01*
X234747376Y-74238862D01*
X234747374Y-74238861D01*
X234747375Y-74238861D01*
X234609288Y-74198316D01*
X234609286Y-74198316D01*
X234465364Y-74198316D01*
X234465361Y-74198316D01*
X234327274Y-74238861D01*
X234206198Y-74316672D01*
X234111948Y-74425442D01*
X234111947Y-74425444D01*
X234052159Y-74556359D01*
X234031678Y-74698816D01*
X234052159Y-74841272D01*
X234069803Y-74879906D01*
X234111948Y-74972189D01*
X234206197Y-75080959D01*
X234206200Y-75080960D01*
X234206538Y-75081351D01*
X234235563Y-75144907D01*
X234236825Y-75162554D01*
X234236825Y-80586907D01*
X234250477Y-80637858D01*
X234257304Y-80663335D01*
X234257307Y-80663340D01*
X234296860Y-80731849D01*
X234296866Y-80731857D01*
X237010506Y-83445497D01*
X237043991Y-83506820D01*
X237046825Y-83533178D01*
X237046825Y-113075669D01*
X237027140Y-113142708D01*
X236974336Y-113188463D01*
X236905178Y-113198407D01*
X236841622Y-113169382D01*
X236810031Y-113127181D01*
X236772702Y-113045444D01*
X236772701Y-113045442D01*
X236758122Y-113028617D01*
X236678453Y-112936673D01*
X236557378Y-112858863D01*
X236557376Y-112858862D01*
X236557374Y-112858861D01*
X236557375Y-112858861D01*
X236419288Y-112818316D01*
X236419286Y-112818316D01*
X236275364Y-112818316D01*
X236275361Y-112818316D01*
X236137274Y-112858861D01*
X236016198Y-112936672D01*
X235921948Y-113045442D01*
X235921947Y-113045444D01*
X235862159Y-113176359D01*
X235841678Y-113318816D01*
X235862159Y-113461272D01*
X235921946Y-113592185D01*
X235921948Y-113592189D01*
X236016197Y-113700959D01*
X236137272Y-113778769D01*
X236137275Y-113778770D01*
X236137274Y-113778770D01*
X236218052Y-113802488D01*
X236271958Y-113818316D01*
X236275361Y-113819315D01*
X236275363Y-113819316D01*
X236275364Y-113819316D01*
X236419287Y-113819316D01*
X236419287Y-113819315D01*
X236526446Y-113787851D01*
X236557375Y-113778770D01*
X236557375Y-113778769D01*
X236557378Y-113778769D01*
X236678453Y-113700959D01*
X236772702Y-113592189D01*
X236786507Y-113561962D01*
X236810031Y-113510451D01*
X236855786Y-113457647D01*
X236922825Y-113437962D01*
X236989864Y-113457647D01*
X237035619Y-113510451D01*
X237046825Y-113561962D01*
X237046825Y-114142983D01*
X237027140Y-114210022D01*
X237010506Y-114230664D01*
X235259173Y-115981997D01*
X235197850Y-116015482D01*
X235171492Y-116018316D01*
X230842700Y-116018316D01*
X230775661Y-115998631D01*
X230729906Y-115945827D01*
X230719962Y-115876669D01*
X230722885Y-115863228D01*
X230723165Y-115861275D01*
X230723167Y-115861273D01*
X230743649Y-115718816D01*
X230723167Y-115576359D01*
X230663379Y-115445443D01*
X230569130Y-115336673D01*
X230448055Y-115258863D01*
X230448053Y-115258862D01*
X230448051Y-115258861D01*
X230448052Y-115258861D01*
X230309965Y-115218316D01*
X230309963Y-115218316D01*
X230166041Y-115218316D01*
X230166038Y-115218316D01*
X230027951Y-115258861D01*
X229906875Y-115336672D01*
X229906874Y-115336672D01*
X229906874Y-115336673D01*
X229894292Y-115351193D01*
X229812625Y-115445442D01*
X229812624Y-115445444D01*
X229752836Y-115576359D01*
X229732355Y-115718816D01*
X229754099Y-115870051D01*
X229752281Y-115870312D01*
X229752280Y-115929254D01*
X229714504Y-115988031D01*
X229650947Y-116017054D01*
X229633304Y-116018316D01*
X229523158Y-116018316D01*
X229456119Y-115998631D01*
X229435477Y-115981997D01*
X228453480Y-115000000D01*
X231551999Y-115000000D01*
X231572480Y-115142456D01*
X231625642Y-115258863D01*
X231632269Y-115273373D01*
X231726518Y-115382143D01*
X231847593Y-115459953D01*
X231847596Y-115459954D01*
X231847595Y-115459954D01*
X231954753Y-115491417D01*
X231982279Y-115499500D01*
X231985682Y-115500499D01*
X231985684Y-115500500D01*
X231985685Y-115500500D01*
X232129608Y-115500500D01*
X232129608Y-115500499D01*
X232267699Y-115459953D01*
X232388774Y-115382143D01*
X232483023Y-115273373D01*
X232542811Y-115142457D01*
X232563293Y-115000000D01*
X232542811Y-114857543D01*
X232483023Y-114726627D01*
X232388774Y-114617857D01*
X232267699Y-114540047D01*
X232267697Y-114540046D01*
X232267695Y-114540045D01*
X232267696Y-114540045D01*
X232129609Y-114499500D01*
X232129607Y-114499500D01*
X231985685Y-114499500D01*
X231985682Y-114499500D01*
X231847595Y-114540045D01*
X231726519Y-114617856D01*
X231632269Y-114726626D01*
X231632268Y-114726628D01*
X231572480Y-114857543D01*
X231551999Y-115000000D01*
X228453480Y-115000000D01*
X228213021Y-114759541D01*
X228213013Y-114759535D01*
X228144504Y-114719982D01*
X228144499Y-114719979D01*
X228119022Y-114713152D01*
X228068071Y-114699500D01*
X228068069Y-114699500D01*
X219342763Y-114699500D01*
X219275724Y-114679815D01*
X219255082Y-114663181D01*
X218336819Y-113744918D01*
X218303334Y-113683595D01*
X218300500Y-113657237D01*
X218300500Y-113463738D01*
X218320185Y-113396699D01*
X218330787Y-113382535D01*
X218331124Y-113382144D01*
X218331128Y-113382143D01*
X218425377Y-113273373D01*
X218485165Y-113142457D01*
X218505647Y-113000000D01*
X218505538Y-112999239D01*
X220468359Y-112999239D01*
X227768359Y-112999239D01*
X227768359Y-107874038D01*
X232399500Y-107874038D01*
X232399500Y-108125961D01*
X232438910Y-108374785D01*
X232516760Y-108614383D01*
X232595413Y-108768747D01*
X232621179Y-108819316D01*
X232631132Y-108838848D01*
X232779201Y-109042649D01*
X232779205Y-109042654D01*
X232957345Y-109220794D01*
X232957350Y-109220798D01*
X233135117Y-109349952D01*
X233161155Y-109368870D01*
X233304184Y-109441747D01*
X233385616Y-109483239D01*
X233385618Y-109483239D01*
X233385621Y-109483241D01*
X233625215Y-109561090D01*
X233874038Y-109600500D01*
X233874039Y-109600500D01*
X234125961Y-109600500D01*
X234125962Y-109600500D01*
X234374785Y-109561090D01*
X234614379Y-109483241D01*
X234838845Y-109368870D01*
X235042656Y-109220793D01*
X235220793Y-109042656D01*
X235368870Y-108838845D01*
X235483241Y-108614379D01*
X235561090Y-108374785D01*
X235600500Y-108125962D01*
X235600500Y-107874038D01*
X235561090Y-107625215D01*
X235483241Y-107385621D01*
X235483239Y-107385618D01*
X235483239Y-107385616D01*
X235435279Y-107291491D01*
X235368870Y-107161155D01*
X235331423Y-107109614D01*
X235220798Y-106957350D01*
X235220794Y-106957345D01*
X235042654Y-106779205D01*
X235042649Y-106779201D01*
X234838848Y-106631132D01*
X234838847Y-106631131D01*
X234838845Y-106631130D01*
X234768747Y-106595413D01*
X234614383Y-106516760D01*
X234374785Y-106438910D01*
X234125962Y-106399500D01*
X233874038Y-106399500D01*
X233749626Y-106419205D01*
X233625214Y-106438910D01*
X233385616Y-106516760D01*
X233161151Y-106631132D01*
X232957350Y-106779201D01*
X232957345Y-106779205D01*
X232779205Y-106957345D01*
X232779201Y-106957350D01*
X232631132Y-107161151D01*
X232516760Y-107385616D01*
X232438910Y-107625214D01*
X232399500Y-107874038D01*
X227768359Y-107874038D01*
X227768359Y-94999239D01*
X220468359Y-94999239D01*
X220468359Y-112999239D01*
X218505538Y-112999239D01*
X218485165Y-112857543D01*
X218425377Y-112726627D01*
X218331128Y-112617857D01*
X218210053Y-112540047D01*
X218210051Y-112540046D01*
X218210049Y-112540045D01*
X218210050Y-112540045D01*
X218071963Y-112499500D01*
X218071961Y-112499500D01*
X217928039Y-112499500D01*
X217890455Y-112510535D01*
X217820549Y-112531061D01*
X217750679Y-112531060D01*
X217691901Y-112493285D01*
X217662877Y-112429729D01*
X217662877Y-112394436D01*
X217677238Y-112294553D01*
X217656756Y-112152096D01*
X217596968Y-112021180D01*
X217502719Y-111912410D01*
X217381644Y-111834600D01*
X217381642Y-111834599D01*
X217381640Y-111834598D01*
X217381641Y-111834598D01*
X217243554Y-111794053D01*
X217243552Y-111794053D01*
X217099630Y-111794053D01*
X217099627Y-111794053D01*
X216961540Y-111834598D01*
X216840463Y-111912410D01*
X216840460Y-111912411D01*
X216839369Y-111913672D01*
X216837967Y-111914572D01*
X216833763Y-111918216D01*
X216833238Y-111917611D01*
X216780590Y-111951444D01*
X216710720Y-111951441D01*
X216678621Y-111936781D01*
X216644063Y-111914572D01*
X216557378Y-111858863D01*
X216557376Y-111858862D01*
X216557374Y-111858861D01*
X216557375Y-111858861D01*
X216419288Y-111818316D01*
X216419286Y-111818316D01*
X216275364Y-111818316D01*
X216275361Y-111818316D01*
X216137274Y-111858861D01*
X216016198Y-111936672D01*
X216016197Y-111936672D01*
X216016197Y-111936673D01*
X216003615Y-111951193D01*
X215921948Y-112045442D01*
X215921947Y-112045444D01*
X215862159Y-112176359D01*
X215841678Y-112318816D01*
X215862159Y-112461272D01*
X215894031Y-112531060D01*
X215921948Y-112592189D01*
X216016197Y-112700959D01*
X216137272Y-112778769D01*
X216137275Y-112778770D01*
X216137274Y-112778770D01*
X216244432Y-112810233D01*
X216271958Y-112818316D01*
X216275361Y-112819315D01*
X216275363Y-112819316D01*
X216275364Y-112819316D01*
X216419287Y-112819316D01*
X216419287Y-112819315D01*
X216557378Y-112778769D01*
X216678453Y-112700959D01*
X216679072Y-112700244D01*
X216679541Y-112699704D01*
X216680939Y-112698805D01*
X216685158Y-112695150D01*
X216685683Y-112695756D01*
X216738318Y-112661928D01*
X216808188Y-112661926D01*
X216840295Y-112676588D01*
X216840462Y-112676695D01*
X216840463Y-112676696D01*
X216961538Y-112754506D01*
X216961541Y-112754507D01*
X216961540Y-112754507D01*
X217099627Y-112795052D01*
X217099629Y-112795053D01*
X217099630Y-112795053D01*
X217243552Y-112795053D01*
X217351040Y-112763492D01*
X217420910Y-112763492D01*
X217479688Y-112801266D01*
X217508713Y-112864822D01*
X217508713Y-112900115D01*
X217494353Y-112999998D01*
X217494353Y-112999999D01*
X217514834Y-113142456D01*
X217566572Y-113255744D01*
X217574623Y-113273373D01*
X217668872Y-113382143D01*
X217668875Y-113382144D01*
X217669213Y-113382535D01*
X217698238Y-113446091D01*
X217699500Y-113463738D01*
X217699500Y-113657237D01*
X217679815Y-113724276D01*
X217663181Y-113744918D01*
X215426102Y-115981997D01*
X215364779Y-116015482D01*
X215338421Y-116018316D01*
X210307763Y-116018316D01*
X210269549Y-116028555D01*
X210231334Y-116038795D01*
X210217358Y-116046865D01*
X210217357Y-116046865D01*
X210162820Y-116078351D01*
X210162812Y-116078357D01*
X208459172Y-117781997D01*
X208397849Y-117815482D01*
X208371491Y-117818316D01*
X208275361Y-117818316D01*
X208137274Y-117858861D01*
X208016198Y-117936672D01*
X207921948Y-118045442D01*
X207921947Y-118045444D01*
X207862159Y-118176359D01*
X207841678Y-118318816D01*
X200852972Y-118318816D01*
X200832490Y-118176359D01*
X200772702Y-118045443D01*
X200678453Y-117936673D01*
X200557378Y-117858863D01*
X200557376Y-117858862D01*
X200557374Y-117858861D01*
X200557375Y-117858861D01*
X200419288Y-117818316D01*
X200419286Y-117818316D01*
X200275364Y-117818316D01*
X200275361Y-117818316D01*
X200137274Y-117858861D01*
X200016198Y-117936672D01*
X199921948Y-118045442D01*
X199921947Y-118045444D01*
X199862159Y-118176359D01*
X199841678Y-118318816D01*
X185852972Y-118318816D01*
X185851664Y-118309721D01*
X185861604Y-118240565D01*
X185886717Y-118204393D01*
X189435477Y-114655635D01*
X189496800Y-114622150D01*
X189523158Y-114619316D01*
X200386885Y-114619316D01*
X200386887Y-114619316D01*
X200463314Y-114598837D01*
X200531836Y-114559276D01*
X200587785Y-114503327D01*
X202172296Y-112918816D01*
X204841678Y-112918816D01*
X204862159Y-113061272D01*
X204920246Y-113188463D01*
X204921948Y-113192189D01*
X205016197Y-113300959D01*
X205137272Y-113378769D01*
X205137275Y-113378770D01*
X205137274Y-113378770D01*
X205275361Y-113419315D01*
X205275363Y-113419316D01*
X205275364Y-113419316D01*
X205419287Y-113419316D01*
X205419287Y-113419315D01*
X205557378Y-113378769D01*
X205678453Y-113300959D01*
X205772702Y-113192189D01*
X205832490Y-113061273D01*
X205852972Y-112918816D01*
X205832490Y-112776359D01*
X205772702Y-112645443D01*
X205678453Y-112536673D01*
X205557378Y-112458863D01*
X205557376Y-112458862D01*
X205557374Y-112458861D01*
X205557375Y-112458861D01*
X205419288Y-112418316D01*
X205419286Y-112418316D01*
X205275364Y-112418316D01*
X205275361Y-112418316D01*
X205137274Y-112458861D01*
X205016198Y-112536672D01*
X205016197Y-112536672D01*
X205016197Y-112536673D01*
X205003615Y-112551193D01*
X204921948Y-112645442D01*
X204921947Y-112645444D01*
X204862159Y-112776359D01*
X204841678Y-112918816D01*
X202172296Y-112918816D01*
X203772295Y-111318816D01*
X205841678Y-111318816D01*
X205862159Y-111461272D01*
X205921947Y-111592187D01*
X205921948Y-111592189D01*
X206016197Y-111700959D01*
X206137272Y-111778769D01*
X206137275Y-111778770D01*
X206137274Y-111778770D01*
X206244432Y-111810233D01*
X206271958Y-111818316D01*
X206275361Y-111819315D01*
X206275363Y-111819316D01*
X206275364Y-111819316D01*
X206419287Y-111819316D01*
X206419287Y-111819315D01*
X206557378Y-111778769D01*
X206678453Y-111700959D01*
X206772702Y-111592189D01*
X206832490Y-111461273D01*
X206852972Y-111318816D01*
X206832490Y-111176359D01*
X206772702Y-111045443D01*
X206678453Y-110936673D01*
X206557378Y-110858863D01*
X206557376Y-110858862D01*
X206557374Y-110858861D01*
X206557375Y-110858861D01*
X206419288Y-110818316D01*
X206419286Y-110818316D01*
X206275364Y-110818316D01*
X206275361Y-110818316D01*
X206137274Y-110858861D01*
X206016198Y-110936672D01*
X205921948Y-111045442D01*
X205921947Y-111045444D01*
X205862159Y-111176359D01*
X205841678Y-111318816D01*
X203772295Y-111318816D01*
X207235476Y-107855634D01*
X207296799Y-107822150D01*
X207323157Y-107819316D01*
X207419287Y-107819316D01*
X207419287Y-107819315D01*
X207557378Y-107778769D01*
X207678453Y-107700959D01*
X207772702Y-107592189D01*
X207832490Y-107461273D01*
X207852972Y-107318816D01*
X207832490Y-107176359D01*
X207772702Y-107045443D01*
X207678453Y-106936673D01*
X207557378Y-106858863D01*
X207557376Y-106858862D01*
X207557374Y-106858861D01*
X207557375Y-106858861D01*
X207419288Y-106818316D01*
X207419286Y-106818316D01*
X207275364Y-106818316D01*
X207275361Y-106818316D01*
X207137274Y-106858861D01*
X207016198Y-106936672D01*
X206921948Y-107045442D01*
X206921947Y-107045444D01*
X206862159Y-107176359D01*
X206841678Y-107318816D01*
X206841678Y-107318817D01*
X206842986Y-107327919D01*
X206833038Y-107397077D01*
X206807928Y-107433240D01*
X200259173Y-113981997D01*
X200197850Y-114015482D01*
X200171492Y-114018316D01*
X199646909Y-114018316D01*
X199579870Y-113998631D01*
X199534115Y-113945827D01*
X199524171Y-113876669D01*
X199553196Y-113813113D01*
X199562401Y-113802490D01*
X199622189Y-113671574D01*
X199642671Y-113529117D01*
X199622189Y-113386660D01*
X199562401Y-113255744D01*
X199468152Y-113146974D01*
X199347077Y-113069164D01*
X199347075Y-113069163D01*
X199347073Y-113069162D01*
X199347074Y-113069162D01*
X199208987Y-113028617D01*
X199208985Y-113028617D01*
X199065063Y-113028617D01*
X199065060Y-113028617D01*
X198926973Y-113069162D01*
X198805897Y-113146973D01*
X198711647Y-113255743D01*
X198711646Y-113255745D01*
X198651858Y-113386660D01*
X198631377Y-113529117D01*
X198651858Y-113671573D01*
X198711646Y-113802488D01*
X198711647Y-113802490D01*
X198720852Y-113813113D01*
X198749877Y-113876669D01*
X198739933Y-113945828D01*
X198694178Y-113998632D01*
X198627139Y-114018316D01*
X189307763Y-114018316D01*
X189256811Y-114031968D01*
X189231335Y-114038795D01*
X189171173Y-114073530D01*
X189171172Y-114073529D01*
X189162817Y-114078353D01*
X189162812Y-114078357D01*
X185459172Y-117781997D01*
X185397849Y-117815482D01*
X185371491Y-117818316D01*
X185323158Y-117818316D01*
X185256119Y-117798631D01*
X185235477Y-117781997D01*
X180772296Y-113318816D01*
X183841678Y-113318816D01*
X183862159Y-113461272D01*
X183921946Y-113592185D01*
X183921948Y-113592189D01*
X184016197Y-113700959D01*
X184137272Y-113778769D01*
X184137275Y-113778770D01*
X184137274Y-113778770D01*
X184218052Y-113802488D01*
X184271958Y-113818316D01*
X184275361Y-113819315D01*
X184275363Y-113819316D01*
X184275364Y-113819316D01*
X184419287Y-113819316D01*
X184419287Y-113819315D01*
X184526446Y-113787851D01*
X184557375Y-113778770D01*
X184557375Y-113778769D01*
X184557378Y-113778769D01*
X184678453Y-113700959D01*
X184712113Y-113662112D01*
X184770892Y-113624339D01*
X184805826Y-113619316D01*
X185386885Y-113619316D01*
X185386887Y-113619316D01*
X185463314Y-113598837D01*
X185531836Y-113559276D01*
X185587785Y-113503327D01*
X185772296Y-113318816D01*
X187841678Y-113318816D01*
X187862159Y-113461272D01*
X187921946Y-113592185D01*
X187921948Y-113592189D01*
X188016197Y-113700959D01*
X188137272Y-113778769D01*
X188137275Y-113778770D01*
X188137274Y-113778770D01*
X188218052Y-113802488D01*
X188271958Y-113818316D01*
X188275361Y-113819315D01*
X188275363Y-113819316D01*
X188275364Y-113819316D01*
X188419287Y-113819316D01*
X188419287Y-113819315D01*
X188526446Y-113787851D01*
X188557375Y-113778770D01*
X188557375Y-113778769D01*
X188557378Y-113778769D01*
X188678453Y-113700959D01*
X188772702Y-113592189D01*
X188832490Y-113461273D01*
X188852972Y-113318816D01*
X188832490Y-113176359D01*
X188772702Y-113045443D01*
X188678453Y-112936673D01*
X188557378Y-112858863D01*
X188557376Y-112858862D01*
X188557374Y-112858861D01*
X188557375Y-112858861D01*
X188419288Y-112818316D01*
X188419286Y-112818316D01*
X188275364Y-112818316D01*
X188275361Y-112818316D01*
X188137274Y-112858861D01*
X188016198Y-112936672D01*
X187921948Y-113045442D01*
X187921947Y-113045444D01*
X187862159Y-113176359D01*
X187841678Y-113318816D01*
X185772296Y-113318816D01*
X187119621Y-111971491D01*
X189494353Y-111971491D01*
X189514834Y-112113947D01*
X189571516Y-112238060D01*
X189574623Y-112244864D01*
X189668872Y-112353634D01*
X189789947Y-112431444D01*
X189789950Y-112431445D01*
X189789949Y-112431445D01*
X189928036Y-112471990D01*
X189928038Y-112471991D01*
X189928039Y-112471991D01*
X190071962Y-112471991D01*
X190071962Y-112471990D01*
X190210053Y-112431444D01*
X190331128Y-112353634D01*
X190361298Y-112318816D01*
X192841678Y-112318816D01*
X192862159Y-112461272D01*
X192894031Y-112531060D01*
X192921948Y-112592189D01*
X193016197Y-112700959D01*
X193137272Y-112778769D01*
X193137275Y-112778770D01*
X193137274Y-112778770D01*
X193244432Y-112810233D01*
X193271958Y-112818316D01*
X193275361Y-112819315D01*
X193275363Y-112819316D01*
X193275364Y-112819316D01*
X193419287Y-112819316D01*
X193419287Y-112819315D01*
X193557378Y-112778769D01*
X193678453Y-112700959D01*
X193772702Y-112592189D01*
X193832490Y-112461273D01*
X193852972Y-112318816D01*
X193832490Y-112176359D01*
X193772702Y-112045443D01*
X193678453Y-111936673D01*
X193557378Y-111858863D01*
X193557376Y-111858862D01*
X193557374Y-111858861D01*
X193557375Y-111858861D01*
X193419288Y-111818316D01*
X193419286Y-111818316D01*
X193275364Y-111818316D01*
X193275361Y-111818316D01*
X193137274Y-111858861D01*
X193016198Y-111936672D01*
X193016197Y-111936672D01*
X193016197Y-111936673D01*
X193003615Y-111951193D01*
X192921948Y-112045442D01*
X192921947Y-112045444D01*
X192862159Y-112176359D01*
X192841678Y-112318816D01*
X190361298Y-112318816D01*
X190425377Y-112244864D01*
X190485165Y-112113948D01*
X190505647Y-111971491D01*
X190485165Y-111829034D01*
X190425377Y-111698118D01*
X190331128Y-111589348D01*
X190210053Y-111511538D01*
X190210051Y-111511537D01*
X190210049Y-111511536D01*
X190210050Y-111511536D01*
X190071963Y-111470991D01*
X190071961Y-111470991D01*
X189928039Y-111470991D01*
X189928036Y-111470991D01*
X189789949Y-111511536D01*
X189668873Y-111589347D01*
X189574623Y-111698117D01*
X189574622Y-111698119D01*
X189514834Y-111829034D01*
X189494353Y-111971491D01*
X187119621Y-111971491D01*
X190835477Y-108255635D01*
X190896800Y-108222150D01*
X190923158Y-108219316D01*
X200719925Y-108219316D01*
X200786964Y-108239001D01*
X200832719Y-108291805D01*
X200842663Y-108325669D01*
X200862159Y-108461272D01*
X200921947Y-108592187D01*
X200921948Y-108592189D01*
X201016197Y-108700959D01*
X201137272Y-108778769D01*
X201137275Y-108778770D01*
X201137274Y-108778770D01*
X201275361Y-108819315D01*
X201275363Y-108819316D01*
X201275364Y-108819316D01*
X201419287Y-108819316D01*
X201419287Y-108819315D01*
X201557378Y-108778769D01*
X201678453Y-108700959D01*
X201772702Y-108592189D01*
X201832490Y-108461273D01*
X201852972Y-108318816D01*
X201832490Y-108176359D01*
X201772702Y-108045443D01*
X201678453Y-107936673D01*
X201613635Y-107895017D01*
X201557376Y-107858861D01*
X201506570Y-107843944D01*
X201447792Y-107806170D01*
X201418767Y-107742614D01*
X201428711Y-107673456D01*
X201453821Y-107637289D01*
X201772294Y-107318816D01*
X204841678Y-107318816D01*
X204862159Y-107461272D01*
X204866288Y-107470312D01*
X204921948Y-107592189D01*
X205016197Y-107700959D01*
X205137272Y-107778769D01*
X205137275Y-107778770D01*
X205137274Y-107778770D01*
X205230592Y-107806170D01*
X205272605Y-107818506D01*
X205275361Y-107819315D01*
X205275363Y-107819316D01*
X205275364Y-107819316D01*
X205419287Y-107819316D01*
X205419287Y-107819315D01*
X205557378Y-107778769D01*
X205678453Y-107700959D01*
X205772702Y-107592189D01*
X205832490Y-107461273D01*
X205852972Y-107318816D01*
X205832490Y-107176359D01*
X205772702Y-107045443D01*
X205678453Y-106936673D01*
X205557378Y-106858863D01*
X205557376Y-106858862D01*
X205557374Y-106858861D01*
X205557375Y-106858861D01*
X205419288Y-106818316D01*
X205419286Y-106818316D01*
X205275364Y-106818316D01*
X205275361Y-106818316D01*
X205137274Y-106858861D01*
X205016198Y-106936672D01*
X204921948Y-107045442D01*
X204921947Y-107045444D01*
X204862159Y-107176359D01*
X204841678Y-107318816D01*
X201772294Y-107318816D01*
X210835144Y-98255967D01*
X210896467Y-98222482D01*
X210966159Y-98227466D01*
X211022092Y-98269338D01*
X211046509Y-98334802D01*
X211046825Y-98343648D01*
X211046825Y-100075669D01*
X211027140Y-100142708D01*
X210974336Y-100188463D01*
X210905178Y-100198407D01*
X210841622Y-100169382D01*
X210810031Y-100127181D01*
X210772702Y-100045444D01*
X210772701Y-100045442D01*
X210678453Y-99936673D01*
X210557378Y-99858863D01*
X210557376Y-99858862D01*
X210557374Y-99858861D01*
X210557375Y-99858861D01*
X210419288Y-99818316D01*
X210419286Y-99818316D01*
X210275364Y-99818316D01*
X210275361Y-99818316D01*
X210137274Y-99858861D01*
X210016198Y-99936672D01*
X209921948Y-100045442D01*
X209921947Y-100045444D01*
X209862159Y-100176359D01*
X209841678Y-100318816D01*
X209862159Y-100461272D01*
X209921946Y-100592185D01*
X209921948Y-100592189D01*
X210016197Y-100700959D01*
X210137272Y-100778769D01*
X210137275Y-100778770D01*
X210137274Y-100778770D01*
X210244432Y-100810233D01*
X210271958Y-100818316D01*
X210275361Y-100819315D01*
X210275363Y-100819316D01*
X210275364Y-100819316D01*
X210419287Y-100819316D01*
X210419287Y-100819315D01*
X210557378Y-100778769D01*
X210678453Y-100700959D01*
X210772702Y-100592189D01*
X210786507Y-100561962D01*
X210810031Y-100510451D01*
X210855786Y-100457647D01*
X210922825Y-100437962D01*
X210989864Y-100457647D01*
X211035619Y-100510451D01*
X211046825Y-100561962D01*
X211046825Y-107109614D01*
X211027140Y-107176653D01*
X210974336Y-107222408D01*
X210905178Y-107232352D01*
X210841622Y-107203327D01*
X210811218Y-107156019D01*
X210808849Y-107157101D01*
X210787162Y-107109614D01*
X210745377Y-107018118D01*
X210651128Y-106909348D01*
X210530053Y-106831538D01*
X210530051Y-106831537D01*
X210530049Y-106831536D01*
X210530050Y-106831536D01*
X210391963Y-106790991D01*
X210391961Y-106790991D01*
X210248039Y-106790991D01*
X210248036Y-106790991D01*
X210109949Y-106831536D01*
X209988873Y-106909347D01*
X209894623Y-107018117D01*
X209894622Y-107018119D01*
X209834834Y-107149034D01*
X209814353Y-107291491D01*
X209834834Y-107433947D01*
X209851442Y-107470312D01*
X209894623Y-107564864D01*
X209988872Y-107673634D01*
X210109947Y-107751444D01*
X210109950Y-107751445D01*
X210109949Y-107751445D01*
X210248036Y-107791990D01*
X210248038Y-107791991D01*
X210248039Y-107791991D01*
X210391962Y-107791991D01*
X210391962Y-107791990D01*
X210530053Y-107751444D01*
X210651128Y-107673634D01*
X210745377Y-107564864D01*
X210805165Y-107433948D01*
X210805165Y-107433947D01*
X210808849Y-107425881D01*
X210811219Y-107426963D01*
X210841619Y-107379657D01*
X210905174Y-107350630D01*
X210974333Y-107360571D01*
X211027138Y-107406324D01*
X211046825Y-107473363D01*
X211046825Y-113142982D01*
X211027140Y-113210021D01*
X211010506Y-113230663D01*
X210459172Y-113781997D01*
X210397849Y-113815482D01*
X210371491Y-113818316D01*
X210275361Y-113818316D01*
X210137274Y-113858861D01*
X210016198Y-113936672D01*
X209921948Y-114045442D01*
X209921947Y-114045444D01*
X209862159Y-114176359D01*
X209841678Y-114318816D01*
X209862159Y-114461272D01*
X209896699Y-114536903D01*
X209921948Y-114592189D01*
X210016197Y-114700959D01*
X210137272Y-114778769D01*
X210137275Y-114778770D01*
X210137274Y-114778770D01*
X210275361Y-114819315D01*
X210275363Y-114819316D01*
X210275364Y-114819316D01*
X210419287Y-114819316D01*
X210419287Y-114819315D01*
X210557378Y-114778769D01*
X210678453Y-114700959D01*
X210772702Y-114592189D01*
X210832490Y-114461273D01*
X210852972Y-114318816D01*
X210851664Y-114309721D01*
X210858303Y-114263532D01*
X212845037Y-114263532D01*
X212865518Y-114405988D01*
X212909972Y-114503326D01*
X212925307Y-114536905D01*
X213019556Y-114645675D01*
X213140631Y-114723485D01*
X213140634Y-114723486D01*
X213140633Y-114723486D01*
X213247791Y-114754949D01*
X213263424Y-114759540D01*
X213278720Y-114764031D01*
X213278722Y-114764032D01*
X213278723Y-114764032D01*
X213422646Y-114764032D01*
X213422646Y-114764031D01*
X213560737Y-114723485D01*
X213681812Y-114645675D01*
X213776061Y-114536905D01*
X213835849Y-114405989D01*
X213856331Y-114263532D01*
X213835849Y-114121075D01*
X213776061Y-113990159D01*
X213681812Y-113881389D01*
X213560737Y-113803579D01*
X213560735Y-113803578D01*
X213560733Y-113803577D01*
X213560734Y-113803577D01*
X213422647Y-113763032D01*
X213422645Y-113763032D01*
X213278723Y-113763032D01*
X213278720Y-113763032D01*
X213140633Y-113803577D01*
X213019557Y-113881388D01*
X212925307Y-113990158D01*
X212925306Y-113990160D01*
X212865518Y-114121075D01*
X212845037Y-114263532D01*
X210858303Y-114263532D01*
X210861604Y-114240565D01*
X210886717Y-114204393D01*
X211587785Y-113503327D01*
X211627347Y-113434804D01*
X211647825Y-113358378D01*
X211647825Y-113279254D01*
X211647825Y-107318816D01*
X212841678Y-107318816D01*
X212862159Y-107461272D01*
X212866288Y-107470312D01*
X212921948Y-107592189D01*
X213016197Y-107700959D01*
X213137272Y-107778769D01*
X213137275Y-107778770D01*
X213137274Y-107778770D01*
X213230592Y-107806170D01*
X213272605Y-107818506D01*
X213275361Y-107819315D01*
X213275363Y-107819316D01*
X213275364Y-107819316D01*
X213419287Y-107819316D01*
X213419287Y-107819315D01*
X213557378Y-107778769D01*
X213678453Y-107700959D01*
X213772702Y-107592189D01*
X213832490Y-107461273D01*
X213852972Y-107318816D01*
X214841678Y-107318816D01*
X214862159Y-107461272D01*
X214866288Y-107470312D01*
X214921948Y-107592189D01*
X215016197Y-107700959D01*
X215137272Y-107778769D01*
X215137275Y-107778770D01*
X215137274Y-107778770D01*
X215230592Y-107806170D01*
X215272605Y-107818506D01*
X215275361Y-107819315D01*
X215275363Y-107819316D01*
X215275364Y-107819316D01*
X215419287Y-107819316D01*
X215419287Y-107819315D01*
X215557378Y-107778769D01*
X215678453Y-107700959D01*
X215772702Y-107592189D01*
X215832490Y-107461273D01*
X215852972Y-107318816D01*
X217841678Y-107318816D01*
X217862159Y-107461272D01*
X217866288Y-107470312D01*
X217921948Y-107592189D01*
X218016197Y-107700959D01*
X218137272Y-107778769D01*
X218137275Y-107778770D01*
X218137274Y-107778770D01*
X218230592Y-107806170D01*
X218272605Y-107818506D01*
X218275361Y-107819315D01*
X218275363Y-107819316D01*
X218275364Y-107819316D01*
X218419287Y-107819316D01*
X218419287Y-107819315D01*
X218557378Y-107778769D01*
X218678453Y-107700959D01*
X218772702Y-107592189D01*
X218832490Y-107461273D01*
X218852972Y-107318816D01*
X218832490Y-107176359D01*
X218772702Y-107045443D01*
X218678453Y-106936673D01*
X218557378Y-106858863D01*
X218557376Y-106858862D01*
X218557374Y-106858861D01*
X218557375Y-106858861D01*
X218419288Y-106818316D01*
X218419286Y-106818316D01*
X218275364Y-106818316D01*
X218275361Y-106818316D01*
X218137274Y-106858861D01*
X218016198Y-106936672D01*
X217921948Y-107045442D01*
X217921947Y-107045444D01*
X217862159Y-107176359D01*
X217841678Y-107318816D01*
X215852972Y-107318816D01*
X215832490Y-107176359D01*
X215772702Y-107045443D01*
X215678453Y-106936673D01*
X215557378Y-106858863D01*
X215557376Y-106858862D01*
X215557374Y-106858861D01*
X215557375Y-106858861D01*
X215419288Y-106818316D01*
X215419286Y-106818316D01*
X215275364Y-106818316D01*
X215275361Y-106818316D01*
X215137274Y-106858861D01*
X215016198Y-106936672D01*
X214921948Y-107045442D01*
X214921947Y-107045444D01*
X214862159Y-107176359D01*
X214841678Y-107318816D01*
X213852972Y-107318816D01*
X213832490Y-107176359D01*
X213772702Y-107045443D01*
X213678453Y-106936673D01*
X213557378Y-106858863D01*
X213557376Y-106858862D01*
X213557374Y-106858861D01*
X213557375Y-106858861D01*
X213419288Y-106818316D01*
X213419286Y-106818316D01*
X213275364Y-106818316D01*
X213275361Y-106818316D01*
X213137274Y-106858861D01*
X213016198Y-106936672D01*
X212921948Y-107045442D01*
X212921947Y-107045444D01*
X212862159Y-107176359D01*
X212841678Y-107318816D01*
X211647825Y-107318816D01*
X211647825Y-101318816D01*
X215841678Y-101318816D01*
X215862159Y-101461272D01*
X215921947Y-101592187D01*
X215921948Y-101592189D01*
X216016197Y-101700959D01*
X216137272Y-101778769D01*
X216137275Y-101778770D01*
X216137274Y-101778770D01*
X216244432Y-101810233D01*
X216271958Y-101818316D01*
X216275361Y-101819315D01*
X216275363Y-101819316D01*
X216275364Y-101819316D01*
X216419287Y-101819316D01*
X216419287Y-101819315D01*
X216557378Y-101778769D01*
X216678453Y-101700959D01*
X216772702Y-101592189D01*
X216832490Y-101461273D01*
X216852972Y-101318816D01*
X216832490Y-101176359D01*
X216772702Y-101045443D01*
X216678453Y-100936673D01*
X216557378Y-100858863D01*
X216557376Y-100858862D01*
X216557374Y-100858861D01*
X216557375Y-100858861D01*
X216419288Y-100818316D01*
X216419286Y-100818316D01*
X216275364Y-100818316D01*
X216275361Y-100818316D01*
X216137274Y-100858861D01*
X216016198Y-100936672D01*
X215921948Y-101045442D01*
X215921947Y-101045444D01*
X215862159Y-101176359D01*
X215841678Y-101318816D01*
X211647825Y-101318816D01*
X211647825Y-98494648D01*
X211667510Y-98427609D01*
X211684140Y-98406971D01*
X212235476Y-97855634D01*
X212296799Y-97822150D01*
X212323157Y-97819316D01*
X212419287Y-97819316D01*
X212419287Y-97819315D01*
X212557378Y-97778769D01*
X212678453Y-97700959D01*
X212772702Y-97592189D01*
X212832490Y-97461273D01*
X212852972Y-97318816D01*
X212832490Y-97176359D01*
X212772702Y-97045443D01*
X212678453Y-96936673D01*
X212557378Y-96858863D01*
X212557376Y-96858862D01*
X212557374Y-96858861D01*
X212557375Y-96858861D01*
X212419288Y-96818316D01*
X212419286Y-96818316D01*
X212275364Y-96818316D01*
X212275361Y-96818316D01*
X212137274Y-96858861D01*
X212016198Y-96936672D01*
X211941038Y-97023412D01*
X211882260Y-97061186D01*
X211812390Y-97061186D01*
X211753612Y-97023412D01*
X211678453Y-96936673D01*
X211557378Y-96858863D01*
X211557376Y-96858862D01*
X211557374Y-96858861D01*
X211557375Y-96858861D01*
X211419288Y-96818316D01*
X211419286Y-96818316D01*
X211275364Y-96818316D01*
X211275361Y-96818316D01*
X211137274Y-96858861D01*
X211016198Y-96936672D01*
X210921948Y-97045442D01*
X210921947Y-97045444D01*
X210862159Y-97176359D01*
X210841678Y-97318816D01*
X210841678Y-97318817D01*
X210842986Y-97327919D01*
X210833038Y-97397077D01*
X210807928Y-97433240D01*
X200659173Y-107581997D01*
X200597850Y-107615482D01*
X200571492Y-107618316D01*
X197952023Y-107618316D01*
X197884984Y-107598631D01*
X197839229Y-107545827D01*
X197829285Y-107476669D01*
X197832208Y-107463228D01*
X197832488Y-107461275D01*
X197832490Y-107461273D01*
X197852972Y-107318816D01*
X197851664Y-107309721D01*
X197861604Y-107240565D01*
X197886717Y-107204393D01*
X200474781Y-104616331D01*
X200514342Y-104547809D01*
X200534821Y-104471382D01*
X200534821Y-94993192D01*
X201167302Y-94993192D01*
X201187783Y-95135648D01*
X201247571Y-95266563D01*
X201247572Y-95266565D01*
X201341821Y-95375335D01*
X201462896Y-95453145D01*
X201462899Y-95453146D01*
X201462898Y-95453146D01*
X201600985Y-95493691D01*
X201600987Y-95493692D01*
X201600988Y-95493692D01*
X201744911Y-95493692D01*
X201744911Y-95493691D01*
X201883002Y-95453145D01*
X202004077Y-95375335D01*
X202098326Y-95266565D01*
X202158114Y-95135649D01*
X202178596Y-94993192D01*
X202158114Y-94850735D01*
X202098326Y-94719819D01*
X202004077Y-94611049D01*
X201883002Y-94533239D01*
X201883000Y-94533238D01*
X201882998Y-94533237D01*
X201882999Y-94533237D01*
X201744912Y-94492692D01*
X201744910Y-94492692D01*
X201600988Y-94492692D01*
X201600985Y-94492692D01*
X201462898Y-94533237D01*
X201341822Y-94611048D01*
X201247572Y-94719818D01*
X201247571Y-94719820D01*
X201187783Y-94850735D01*
X201167302Y-94993192D01*
X200534821Y-94993192D01*
X200534821Y-89895558D01*
X200554506Y-89828519D01*
X200565108Y-89814355D01*
X200565445Y-89813964D01*
X200565449Y-89813963D01*
X200659698Y-89705193D01*
X200719486Y-89574277D01*
X200739968Y-89431820D01*
X200719486Y-89289363D01*
X200659698Y-89158447D01*
X200565449Y-89049677D01*
X200444374Y-88971867D01*
X200444372Y-88971866D01*
X200444370Y-88971865D01*
X200444371Y-88971865D01*
X200306284Y-88931320D01*
X200306282Y-88931320D01*
X200162360Y-88931320D01*
X200162357Y-88931320D01*
X200024270Y-88971865D01*
X199903194Y-89049676D01*
X199808944Y-89158446D01*
X199808943Y-89158448D01*
X199749155Y-89289363D01*
X199728674Y-89431820D01*
X199749155Y-89574276D01*
X199808943Y-89705191D01*
X199808944Y-89705193D01*
X199903193Y-89813963D01*
X199903196Y-89813964D01*
X199903534Y-89814355D01*
X199932559Y-89877911D01*
X199933821Y-89895558D01*
X199933821Y-92904682D01*
X199914136Y-92971721D01*
X199861332Y-93017476D01*
X199792174Y-93027420D01*
X199728618Y-92998395D01*
X199716108Y-92985885D01*
X199703835Y-92971721D01*
X199673466Y-92936673D01*
X199552391Y-92858863D01*
X199552389Y-92858862D01*
X199552387Y-92858861D01*
X199552388Y-92858861D01*
X199414301Y-92818316D01*
X199414299Y-92818316D01*
X199270377Y-92818316D01*
X199270374Y-92818316D01*
X199132287Y-92858861D01*
X199011211Y-92936672D01*
X198916961Y-93045442D01*
X198916960Y-93045444D01*
X198857172Y-93176359D01*
X198836691Y-93318816D01*
X198857172Y-93461272D01*
X198916960Y-93592187D01*
X198916961Y-93592189D01*
X199011210Y-93700959D01*
X199132285Y-93778769D01*
X199132288Y-93778770D01*
X199132287Y-93778770D01*
X199270374Y-93819315D01*
X199270376Y-93819316D01*
X199270377Y-93819316D01*
X199414300Y-93819316D01*
X199414300Y-93819315D01*
X199552391Y-93778769D01*
X199673466Y-93700959D01*
X199716108Y-93651746D01*
X199774885Y-93613972D01*
X199844755Y-93613972D01*
X199903533Y-93651746D01*
X199932559Y-93715301D01*
X199933821Y-93732949D01*
X199933821Y-104255986D01*
X199914136Y-104323025D01*
X199897502Y-104343667D01*
X197459172Y-106781997D01*
X197397849Y-106815482D01*
X197371491Y-106818316D01*
X197275361Y-106818316D01*
X197137274Y-106858861D01*
X197016198Y-106936672D01*
X196921948Y-107045442D01*
X196921947Y-107045444D01*
X196862159Y-107176359D01*
X196841678Y-107318816D01*
X196863422Y-107470051D01*
X196861604Y-107470312D01*
X196861603Y-107529254D01*
X196823827Y-107588031D01*
X196760270Y-107617054D01*
X196742627Y-107618316D01*
X190952023Y-107618316D01*
X190884984Y-107598631D01*
X190839229Y-107545827D01*
X190829285Y-107476669D01*
X190832208Y-107463228D01*
X190832488Y-107461275D01*
X190832490Y-107461273D01*
X190852972Y-107318816D01*
X190832490Y-107176359D01*
X190772702Y-107045443D01*
X190678453Y-106936673D01*
X190557378Y-106858863D01*
X190557376Y-106858862D01*
X190557374Y-106858861D01*
X190557375Y-106858861D01*
X190419288Y-106818316D01*
X190419286Y-106818316D01*
X190275364Y-106818316D01*
X190275361Y-106818316D01*
X190137274Y-106858861D01*
X190016198Y-106936672D01*
X189921948Y-107045442D01*
X189921947Y-107045444D01*
X189862159Y-107176359D01*
X189841678Y-107318816D01*
X189862159Y-107461272D01*
X189866288Y-107470312D01*
X189921948Y-107592189D01*
X190016197Y-107700959D01*
X190081014Y-107742614D01*
X190137273Y-107778770D01*
X190188077Y-107793687D01*
X190246855Y-107831461D01*
X190275880Y-107895017D01*
X190265936Y-107964175D01*
X190240823Y-108000345D01*
X186031609Y-112209559D01*
X185970286Y-112243044D01*
X185900594Y-112238060D01*
X185844661Y-112196188D01*
X185831134Y-112173390D01*
X185821409Y-112152096D01*
X185772702Y-112045443D01*
X185678453Y-111936673D01*
X185557378Y-111858863D01*
X185557376Y-111858862D01*
X185557374Y-111858861D01*
X185557375Y-111858861D01*
X185419288Y-111818316D01*
X185419286Y-111818316D01*
X185275364Y-111818316D01*
X185275361Y-111818316D01*
X185137274Y-111858861D01*
X185016198Y-111936672D01*
X185016197Y-111936672D01*
X185016197Y-111936673D01*
X185003615Y-111951193D01*
X184921948Y-112045442D01*
X184921947Y-112045444D01*
X184862159Y-112176359D01*
X184841678Y-112318816D01*
X184862159Y-112461272D01*
X184894031Y-112531060D01*
X184921948Y-112592189D01*
X185016197Y-112700959D01*
X185137272Y-112778769D01*
X185137274Y-112778769D01*
X185143302Y-112781523D01*
X185196104Y-112827280D01*
X185215787Y-112894320D01*
X185196101Y-112961358D01*
X185143295Y-113007112D01*
X185091787Y-113018316D01*
X184805826Y-113018316D01*
X184738787Y-112998631D01*
X184712113Y-112975519D01*
X184678453Y-112936673D01*
X184557378Y-112858863D01*
X184557376Y-112858862D01*
X184557374Y-112858861D01*
X184557375Y-112858861D01*
X184419288Y-112818316D01*
X184419286Y-112818316D01*
X184275364Y-112818316D01*
X184275361Y-112818316D01*
X184137274Y-112858861D01*
X184016198Y-112936672D01*
X183921948Y-113045442D01*
X183921947Y-113045444D01*
X183862159Y-113176359D01*
X183841678Y-113318816D01*
X180772296Y-113318816D01*
X179772296Y-112318816D01*
X181841678Y-112318816D01*
X181862159Y-112461272D01*
X181894031Y-112531060D01*
X181921948Y-112592189D01*
X182016197Y-112700959D01*
X182137272Y-112778769D01*
X182137275Y-112778770D01*
X182137274Y-112778770D01*
X182244432Y-112810233D01*
X182271958Y-112818316D01*
X182275361Y-112819315D01*
X182275363Y-112819316D01*
X182275364Y-112819316D01*
X182419287Y-112819316D01*
X182419287Y-112819315D01*
X182557378Y-112778769D01*
X182678453Y-112700959D01*
X182772702Y-112592189D01*
X182832490Y-112461273D01*
X182852972Y-112318816D01*
X182832490Y-112176359D01*
X182772702Y-112045443D01*
X182678453Y-111936673D01*
X182557378Y-111858863D01*
X182557376Y-111858862D01*
X182557374Y-111858861D01*
X182557375Y-111858861D01*
X182419288Y-111818316D01*
X182419286Y-111818316D01*
X182275364Y-111818316D01*
X182275361Y-111818316D01*
X182137274Y-111858861D01*
X182016198Y-111936672D01*
X182016197Y-111936672D01*
X182016197Y-111936673D01*
X182003615Y-111951193D01*
X181921948Y-112045442D01*
X181921947Y-112045444D01*
X181862159Y-112176359D01*
X181841678Y-112318816D01*
X179772296Y-112318816D01*
X174772296Y-107318816D01*
X179841678Y-107318816D01*
X179862159Y-107461272D01*
X179866288Y-107470312D01*
X179921948Y-107592189D01*
X180016197Y-107700959D01*
X180137272Y-107778769D01*
X180137275Y-107778770D01*
X180137274Y-107778770D01*
X180230592Y-107806170D01*
X180272605Y-107818506D01*
X180275361Y-107819315D01*
X180275363Y-107819316D01*
X180275364Y-107819316D01*
X180419287Y-107819316D01*
X180419287Y-107819315D01*
X180557378Y-107778769D01*
X180678453Y-107700959D01*
X180772702Y-107592189D01*
X180832490Y-107461273D01*
X180852972Y-107318816D01*
X184841678Y-107318816D01*
X184862159Y-107461272D01*
X184866288Y-107470312D01*
X184921948Y-107592189D01*
X185016197Y-107700959D01*
X185137272Y-107778769D01*
X185137275Y-107778770D01*
X185137274Y-107778770D01*
X185230592Y-107806170D01*
X185272605Y-107818506D01*
X185275361Y-107819315D01*
X185275363Y-107819316D01*
X185275364Y-107819316D01*
X185419287Y-107819316D01*
X185419287Y-107819315D01*
X185557378Y-107778769D01*
X185678453Y-107700959D01*
X185772702Y-107592189D01*
X185832490Y-107461273D01*
X185852972Y-107318816D01*
X186841678Y-107318816D01*
X186862159Y-107461272D01*
X186866288Y-107470312D01*
X186921948Y-107592189D01*
X187016197Y-107700959D01*
X187137272Y-107778769D01*
X187137275Y-107778770D01*
X187137274Y-107778770D01*
X187230592Y-107806170D01*
X187272605Y-107818506D01*
X187275361Y-107819315D01*
X187275363Y-107819316D01*
X187275364Y-107819316D01*
X187419287Y-107819316D01*
X187419287Y-107819315D01*
X187557378Y-107778769D01*
X187678453Y-107700959D01*
X187772702Y-107592189D01*
X187832490Y-107461273D01*
X187852972Y-107318816D01*
X187832490Y-107176359D01*
X187772702Y-107045443D01*
X187678453Y-106936673D01*
X187557378Y-106858863D01*
X187557376Y-106858862D01*
X187557374Y-106858861D01*
X187557375Y-106858861D01*
X187419288Y-106818316D01*
X187419286Y-106818316D01*
X187275364Y-106818316D01*
X187275361Y-106818316D01*
X187137274Y-106858861D01*
X187016198Y-106936672D01*
X186921948Y-107045442D01*
X186921947Y-107045444D01*
X186862159Y-107176359D01*
X186841678Y-107318816D01*
X185852972Y-107318816D01*
X185832490Y-107176359D01*
X185772702Y-107045443D01*
X185678453Y-106936673D01*
X185557378Y-106858863D01*
X185557376Y-106858862D01*
X185557374Y-106858861D01*
X185557375Y-106858861D01*
X185419288Y-106818316D01*
X185419286Y-106818316D01*
X185275364Y-106818316D01*
X185275361Y-106818316D01*
X185137274Y-106858861D01*
X185016198Y-106936672D01*
X184921948Y-107045442D01*
X184921947Y-107045444D01*
X184862159Y-107176359D01*
X184841678Y-107318816D01*
X180852972Y-107318816D01*
X180832490Y-107176359D01*
X180772702Y-107045443D01*
X180678453Y-106936673D01*
X180557378Y-106858863D01*
X180557376Y-106858862D01*
X180557374Y-106858861D01*
X180557375Y-106858861D01*
X180419288Y-106818316D01*
X180419286Y-106818316D01*
X180275364Y-106818316D01*
X180275361Y-106818316D01*
X180137274Y-106858861D01*
X180016198Y-106936672D01*
X179921948Y-107045442D01*
X179921947Y-107045444D01*
X179862159Y-107176359D01*
X179841678Y-107318816D01*
X174772296Y-107318816D01*
X169772296Y-102318816D01*
X193841678Y-102318816D01*
X193862159Y-102461272D01*
X193921947Y-102592187D01*
X193921948Y-102592189D01*
X194016197Y-102700959D01*
X194137272Y-102778769D01*
X194137275Y-102778770D01*
X194137274Y-102778770D01*
X194275361Y-102819315D01*
X194275363Y-102819316D01*
X194275364Y-102819316D01*
X194419287Y-102819316D01*
X194419287Y-102819315D01*
X194557378Y-102778769D01*
X194678453Y-102700959D01*
X194772702Y-102592189D01*
X194832490Y-102461273D01*
X194852972Y-102318816D01*
X196841678Y-102318816D01*
X196862159Y-102461272D01*
X196921947Y-102592187D01*
X196921948Y-102592189D01*
X197016197Y-102700959D01*
X197137272Y-102778769D01*
X197137275Y-102778770D01*
X197137274Y-102778770D01*
X197275361Y-102819315D01*
X197275363Y-102819316D01*
X197275364Y-102819316D01*
X197419287Y-102819316D01*
X197419287Y-102819315D01*
X197557378Y-102778769D01*
X197678453Y-102700959D01*
X197772702Y-102592189D01*
X197801506Y-102529117D01*
X198631377Y-102529117D01*
X198651858Y-102671573D01*
X198700814Y-102778769D01*
X198711647Y-102802490D01*
X198805896Y-102911260D01*
X198926971Y-102989070D01*
X198926974Y-102989071D01*
X198926973Y-102989071D01*
X199065060Y-103029616D01*
X199065062Y-103029617D01*
X199065063Y-103029617D01*
X199208986Y-103029617D01*
X199208986Y-103029616D01*
X199347077Y-102989070D01*
X199468152Y-102911260D01*
X199562401Y-102802490D01*
X199622189Y-102671574D01*
X199642671Y-102529117D01*
X199622189Y-102386660D01*
X199562401Y-102255744D01*
X199468152Y-102146974D01*
X199347077Y-102069164D01*
X199347075Y-102069163D01*
X199347073Y-102069162D01*
X199347074Y-102069162D01*
X199208987Y-102028617D01*
X199208985Y-102028617D01*
X199065063Y-102028617D01*
X199065060Y-102028617D01*
X198926973Y-102069162D01*
X198805897Y-102146973D01*
X198711647Y-102255743D01*
X198711646Y-102255745D01*
X198651858Y-102386660D01*
X198631377Y-102529117D01*
X197801506Y-102529117D01*
X197832490Y-102461273D01*
X197852972Y-102318816D01*
X197832490Y-102176359D01*
X197772702Y-102045443D01*
X197678453Y-101936673D01*
X197557378Y-101858863D01*
X197557376Y-101858862D01*
X197557374Y-101858861D01*
X197557375Y-101858861D01*
X197419288Y-101818316D01*
X197419286Y-101818316D01*
X197275364Y-101818316D01*
X197275361Y-101818316D01*
X197137274Y-101858861D01*
X197016198Y-101936672D01*
X196921948Y-102045442D01*
X196921947Y-102045444D01*
X196862159Y-102176359D01*
X196841678Y-102318816D01*
X194852972Y-102318816D01*
X194832490Y-102176359D01*
X194772702Y-102045443D01*
X194678453Y-101936673D01*
X194557378Y-101858863D01*
X194557376Y-101858862D01*
X194557374Y-101858861D01*
X194557375Y-101858861D01*
X194419288Y-101818316D01*
X194419286Y-101818316D01*
X194275364Y-101818316D01*
X194275361Y-101818316D01*
X194137274Y-101858861D01*
X194016198Y-101936672D01*
X193921948Y-102045442D01*
X193921947Y-102045444D01*
X193862159Y-102176359D01*
X193841678Y-102318816D01*
X169772296Y-102318816D01*
X169383644Y-101930164D01*
X169350159Y-101868841D01*
X169347325Y-101842483D01*
X169347325Y-100318816D01*
X179841678Y-100318816D01*
X179862159Y-100461272D01*
X179921946Y-100592185D01*
X179921948Y-100592189D01*
X180016197Y-100700959D01*
X180137272Y-100778769D01*
X180137275Y-100778770D01*
X180137274Y-100778770D01*
X180244432Y-100810233D01*
X180271958Y-100818316D01*
X180275361Y-100819315D01*
X180275363Y-100819316D01*
X180275364Y-100819316D01*
X180419287Y-100819316D01*
X180419287Y-100819315D01*
X180557378Y-100778769D01*
X180678453Y-100700959D01*
X180772702Y-100592189D01*
X180832490Y-100461273D01*
X180852972Y-100318816D01*
X180832490Y-100176359D01*
X180772702Y-100045443D01*
X180750363Y-100019662D01*
X183140832Y-100019662D01*
X183161313Y-100162118D01*
X183167817Y-100176359D01*
X183221102Y-100293035D01*
X183315351Y-100401805D01*
X183436426Y-100479615D01*
X183436429Y-100479616D01*
X183436428Y-100479616D01*
X183574515Y-100520161D01*
X183574517Y-100520162D01*
X183574518Y-100520162D01*
X183718441Y-100520162D01*
X183718441Y-100520161D01*
X183856532Y-100479615D01*
X183977607Y-100401805D01*
X184071856Y-100293035D01*
X184131644Y-100162119D01*
X184152126Y-100019662D01*
X184131644Y-99877205D01*
X184071856Y-99746289D01*
X183977607Y-99637519D01*
X183856532Y-99559709D01*
X183856530Y-99559708D01*
X183856528Y-99559707D01*
X183856529Y-99559707D01*
X183718442Y-99519162D01*
X183718440Y-99519162D01*
X183574518Y-99519162D01*
X183574515Y-99519162D01*
X183436428Y-99559707D01*
X183315352Y-99637518D01*
X183221102Y-99746288D01*
X183221101Y-99746290D01*
X183161313Y-99877205D01*
X183140832Y-100019662D01*
X180750363Y-100019662D01*
X180678453Y-99936673D01*
X180557378Y-99858863D01*
X180557376Y-99858862D01*
X180557374Y-99858861D01*
X180557375Y-99858861D01*
X180419288Y-99818316D01*
X180419286Y-99818316D01*
X180275364Y-99818316D01*
X180275361Y-99818316D01*
X180137274Y-99858861D01*
X180016198Y-99936672D01*
X179921948Y-100045442D01*
X179921947Y-100045444D01*
X179862159Y-100176359D01*
X179841678Y-100318816D01*
X169347325Y-100318816D01*
X169347325Y-99318816D01*
X173841678Y-99318816D01*
X173862159Y-99461272D01*
X173888597Y-99519162D01*
X173921948Y-99592189D01*
X174016197Y-99700959D01*
X174137272Y-99778769D01*
X174137275Y-99778770D01*
X174137274Y-99778770D01*
X174244432Y-99810233D01*
X174271958Y-99818316D01*
X174275361Y-99819315D01*
X174275363Y-99819316D01*
X174275364Y-99819316D01*
X174419287Y-99819316D01*
X174419287Y-99819315D01*
X174557378Y-99778769D01*
X174678453Y-99700959D01*
X174772702Y-99592189D01*
X174832490Y-99461273D01*
X174852972Y-99318816D01*
X178841678Y-99318816D01*
X178862159Y-99461272D01*
X178888597Y-99519162D01*
X178921948Y-99592189D01*
X179016197Y-99700959D01*
X179137272Y-99778769D01*
X179137275Y-99778770D01*
X179137274Y-99778770D01*
X179244432Y-99810233D01*
X179271958Y-99818316D01*
X179275361Y-99819315D01*
X179275363Y-99819316D01*
X179275364Y-99819316D01*
X179419287Y-99819316D01*
X179419287Y-99819315D01*
X179557378Y-99778769D01*
X179678453Y-99700959D01*
X179772702Y-99592189D01*
X179832490Y-99461273D01*
X179852972Y-99318816D01*
X179832490Y-99176359D01*
X179772702Y-99045443D01*
X179678453Y-98936673D01*
X179557378Y-98858863D01*
X179557376Y-98858862D01*
X179557374Y-98858861D01*
X179557375Y-98858861D01*
X179419288Y-98818316D01*
X179419286Y-98818316D01*
X179275364Y-98818316D01*
X179275361Y-98818316D01*
X179137274Y-98858861D01*
X179016198Y-98936672D01*
X178921948Y-99045442D01*
X178921947Y-99045444D01*
X178862159Y-99176359D01*
X178841678Y-99318816D01*
X174852972Y-99318816D01*
X174832490Y-99176359D01*
X174772702Y-99045443D01*
X174678453Y-98936673D01*
X174557378Y-98858863D01*
X174557376Y-98858862D01*
X174557374Y-98858861D01*
X174557375Y-98858861D01*
X174419288Y-98818316D01*
X174419286Y-98818316D01*
X174275364Y-98818316D01*
X174275361Y-98818316D01*
X174137274Y-98858861D01*
X174016198Y-98936672D01*
X173921948Y-99045442D01*
X173921947Y-99045444D01*
X173862159Y-99176359D01*
X173841678Y-99318816D01*
X169347325Y-99318816D01*
X169347325Y-98318816D01*
X174841678Y-98318816D01*
X174862159Y-98461272D01*
X174877402Y-98494648D01*
X174921948Y-98592189D01*
X175016197Y-98700959D01*
X175137272Y-98778769D01*
X175137275Y-98778770D01*
X175137274Y-98778770D01*
X175244432Y-98810233D01*
X175271958Y-98818316D01*
X175275361Y-98819315D01*
X175275363Y-98819316D01*
X175275364Y-98819316D01*
X175419287Y-98819316D01*
X175419287Y-98819315D01*
X175557378Y-98778769D01*
X175678453Y-98700959D01*
X175772702Y-98592189D01*
X175832490Y-98461273D01*
X175852972Y-98318816D01*
X175832490Y-98176359D01*
X175772702Y-98045443D01*
X175678453Y-97936673D01*
X175557378Y-97858863D01*
X175557376Y-97858862D01*
X175557374Y-97858861D01*
X175557375Y-97858861D01*
X175419288Y-97818316D01*
X175419286Y-97818316D01*
X175275364Y-97818316D01*
X175275361Y-97818316D01*
X175137274Y-97858861D01*
X175016198Y-97936672D01*
X174921948Y-98045442D01*
X174921947Y-98045444D01*
X174862159Y-98176359D01*
X174841678Y-98318816D01*
X169347325Y-98318816D01*
X169347325Y-95318816D01*
X191007302Y-95318816D01*
X191027783Y-95461272D01*
X191042589Y-95493691D01*
X191087572Y-95592189D01*
X191181821Y-95700959D01*
X191302896Y-95778769D01*
X191302899Y-95778770D01*
X191302898Y-95778770D01*
X191440985Y-95819315D01*
X191440987Y-95819316D01*
X191440988Y-95819316D01*
X191584911Y-95819316D01*
X191584911Y-95819315D01*
X191723002Y-95778769D01*
X191844077Y-95700959D01*
X191938326Y-95592189D01*
X191998114Y-95461273D01*
X192018596Y-95318816D01*
X193841678Y-95318816D01*
X193862159Y-95461272D01*
X193876965Y-95493691D01*
X193921948Y-95592189D01*
X194016197Y-95700959D01*
X194137272Y-95778769D01*
X194137275Y-95778770D01*
X194137274Y-95778770D01*
X194275361Y-95819315D01*
X194275363Y-95819316D01*
X194275364Y-95819316D01*
X194419287Y-95819316D01*
X194419287Y-95819315D01*
X194557378Y-95778769D01*
X194678453Y-95700959D01*
X194772702Y-95592189D01*
X194832490Y-95461273D01*
X194852972Y-95318816D01*
X194832490Y-95176359D01*
X194772702Y-95045443D01*
X194678453Y-94936673D01*
X194557378Y-94858863D01*
X194557376Y-94858862D01*
X194557374Y-94858861D01*
X194557375Y-94858861D01*
X194419288Y-94818316D01*
X194419286Y-94818316D01*
X194275364Y-94818316D01*
X194275361Y-94818316D01*
X194137274Y-94858861D01*
X194016198Y-94936672D01*
X193921948Y-95045442D01*
X193921947Y-95045444D01*
X193862159Y-95176359D01*
X193841678Y-95318816D01*
X192018596Y-95318816D01*
X191998114Y-95176359D01*
X191938326Y-95045443D01*
X191844077Y-94936673D01*
X191723002Y-94858863D01*
X191723000Y-94858862D01*
X191722998Y-94858861D01*
X191722999Y-94858861D01*
X191584912Y-94818316D01*
X191584910Y-94818316D01*
X191440988Y-94818316D01*
X191440985Y-94818316D01*
X191302898Y-94858861D01*
X191181822Y-94936672D01*
X191087572Y-95045442D01*
X191087571Y-95045444D01*
X191027783Y-95176359D01*
X191007302Y-95318816D01*
X169347325Y-95318816D01*
X169347325Y-91318816D01*
X172841678Y-91318816D01*
X172862159Y-91461272D01*
X172900600Y-91545444D01*
X172921948Y-91592189D01*
X173016197Y-91700959D01*
X173137272Y-91778769D01*
X173137275Y-91778770D01*
X173137274Y-91778770D01*
X173244432Y-91810233D01*
X173273661Y-91818816D01*
X173275361Y-91819315D01*
X173275363Y-91819316D01*
X173275364Y-91819316D01*
X173419287Y-91819316D01*
X173419287Y-91819315D01*
X173420986Y-91818816D01*
X183341678Y-91818816D01*
X183362159Y-91961272D01*
X183421947Y-92092187D01*
X183421948Y-92092189D01*
X183516197Y-92200959D01*
X183637272Y-92278769D01*
X183637275Y-92278770D01*
X183637274Y-92278770D01*
X183775361Y-92319315D01*
X183775363Y-92319316D01*
X183775364Y-92319316D01*
X183919287Y-92319316D01*
X183919287Y-92319315D01*
X184057378Y-92278769D01*
X184178453Y-92200959D01*
X184272702Y-92092189D01*
X184332490Y-91961273D01*
X184352972Y-91818816D01*
X184332490Y-91676359D01*
X184272702Y-91545443D01*
X184178453Y-91436673D01*
X184057378Y-91358863D01*
X184057376Y-91358862D01*
X184057374Y-91358861D01*
X184057375Y-91358861D01*
X183919288Y-91318316D01*
X183919286Y-91318316D01*
X183775364Y-91318316D01*
X183775361Y-91318316D01*
X183637274Y-91358861D01*
X183516198Y-91436672D01*
X183421948Y-91545442D01*
X183421947Y-91545444D01*
X183362159Y-91676359D01*
X183341678Y-91818816D01*
X173420986Y-91818816D01*
X173557378Y-91778769D01*
X173678453Y-91700959D01*
X173772702Y-91592189D01*
X173832490Y-91461273D01*
X173852972Y-91318816D01*
X173832490Y-91176359D01*
X173772702Y-91045443D01*
X173678453Y-90936673D01*
X173557378Y-90858863D01*
X173557376Y-90858862D01*
X173557374Y-90858861D01*
X173557375Y-90858861D01*
X173419288Y-90818316D01*
X173419286Y-90818316D01*
X173275364Y-90818316D01*
X173275361Y-90818316D01*
X173137274Y-90858861D01*
X173016198Y-90936672D01*
X172921948Y-91045442D01*
X172921947Y-91045444D01*
X172862159Y-91176359D01*
X172841678Y-91318816D01*
X169347325Y-91318816D01*
X169347325Y-87318816D01*
X193547302Y-87318816D01*
X193567783Y-87461272D01*
X193627571Y-87592187D01*
X193627572Y-87592189D01*
X193721821Y-87700959D01*
X193842896Y-87778769D01*
X193842899Y-87778770D01*
X193842898Y-87778770D01*
X193980985Y-87819315D01*
X193980987Y-87819316D01*
X193980988Y-87819316D01*
X194124911Y-87819316D01*
X194124911Y-87819315D01*
X194263002Y-87778769D01*
X194384077Y-87700959D01*
X194478326Y-87592189D01*
X194538114Y-87461273D01*
X194558596Y-87318816D01*
X194538114Y-87176359D01*
X194478326Y-87045443D01*
X194384077Y-86936673D01*
X194263002Y-86858863D01*
X194263000Y-86858862D01*
X194262998Y-86858861D01*
X194262999Y-86858861D01*
X194124912Y-86818316D01*
X194124910Y-86818316D01*
X193980988Y-86818316D01*
X193980985Y-86818316D01*
X193842898Y-86858861D01*
X193721822Y-86936672D01*
X193627572Y-87045442D01*
X193627571Y-87045444D01*
X193567783Y-87176359D01*
X193547302Y-87318816D01*
X169347325Y-87318816D01*
X169347325Y-86318816D01*
X195841678Y-86318816D01*
X195862159Y-86461272D01*
X195921947Y-86592187D01*
X195921948Y-86592189D01*
X196016197Y-86700959D01*
X196137272Y-86778769D01*
X196137275Y-86778770D01*
X196137274Y-86778770D01*
X196244432Y-86810233D01*
X196271958Y-86818316D01*
X196275361Y-86819315D01*
X196275363Y-86819316D01*
X196275364Y-86819316D01*
X196419287Y-86819316D01*
X196419287Y-86819315D01*
X196557378Y-86778769D01*
X196678453Y-86700959D01*
X196772702Y-86592189D01*
X196832490Y-86461273D01*
X196852972Y-86318816D01*
X207841678Y-86318816D01*
X207862159Y-86461272D01*
X207921947Y-86592187D01*
X207921948Y-86592189D01*
X208016197Y-86700959D01*
X208137272Y-86778769D01*
X208137275Y-86778770D01*
X208137274Y-86778770D01*
X208244432Y-86810233D01*
X208271958Y-86818316D01*
X208275361Y-86819315D01*
X208275363Y-86819316D01*
X208275364Y-86819316D01*
X208419287Y-86819316D01*
X208419287Y-86819315D01*
X208557378Y-86778769D01*
X208678453Y-86700959D01*
X208772702Y-86592189D01*
X208832490Y-86461273D01*
X208852972Y-86318816D01*
X209841678Y-86318816D01*
X209862159Y-86461272D01*
X209921947Y-86592187D01*
X209921948Y-86592189D01*
X210016197Y-86700959D01*
X210137272Y-86778769D01*
X210137275Y-86778770D01*
X210137274Y-86778770D01*
X210244432Y-86810233D01*
X210271958Y-86818316D01*
X210275361Y-86819315D01*
X210275363Y-86819316D01*
X210275364Y-86819316D01*
X210419287Y-86819316D01*
X210419287Y-86819315D01*
X210557378Y-86778769D01*
X210678453Y-86700959D01*
X210772702Y-86592189D01*
X210832490Y-86461273D01*
X210852972Y-86318816D01*
X211841678Y-86318816D01*
X211862159Y-86461272D01*
X211921947Y-86592187D01*
X211921948Y-86592189D01*
X212016197Y-86700959D01*
X212137272Y-86778769D01*
X212137275Y-86778770D01*
X212137274Y-86778770D01*
X212244432Y-86810233D01*
X212271958Y-86818316D01*
X212275361Y-86819315D01*
X212275363Y-86819316D01*
X212275364Y-86819316D01*
X212419287Y-86819316D01*
X212419287Y-86819315D01*
X212557378Y-86778769D01*
X212678453Y-86700959D01*
X212772702Y-86592189D01*
X212832490Y-86461273D01*
X212852972Y-86318816D01*
X214841678Y-86318816D01*
X214862159Y-86461272D01*
X214921947Y-86592187D01*
X214921948Y-86592189D01*
X215016197Y-86700959D01*
X215137272Y-86778769D01*
X215137275Y-86778770D01*
X215137274Y-86778770D01*
X215244432Y-86810233D01*
X215271958Y-86818316D01*
X215275361Y-86819315D01*
X215275363Y-86819316D01*
X215275364Y-86819316D01*
X215419287Y-86819316D01*
X215419287Y-86819315D01*
X215557378Y-86778769D01*
X215678453Y-86700959D01*
X215772702Y-86592189D01*
X215832490Y-86461273D01*
X215852972Y-86318816D01*
X215832490Y-86176359D01*
X215772702Y-86045443D01*
X215678453Y-85936673D01*
X215557378Y-85858863D01*
X215557376Y-85858862D01*
X215557374Y-85858861D01*
X215557375Y-85858861D01*
X215419288Y-85818316D01*
X215419286Y-85818316D01*
X215275364Y-85818316D01*
X215275361Y-85818316D01*
X215137274Y-85858861D01*
X215016198Y-85936672D01*
X214921948Y-86045442D01*
X214921947Y-86045444D01*
X214862159Y-86176359D01*
X214841678Y-86318816D01*
X212852972Y-86318816D01*
X212832490Y-86176359D01*
X212772702Y-86045443D01*
X212678453Y-85936673D01*
X212557378Y-85858863D01*
X212557376Y-85858862D01*
X212557374Y-85858861D01*
X212557375Y-85858861D01*
X212419288Y-85818316D01*
X212419286Y-85818316D01*
X212275364Y-85818316D01*
X212275361Y-85818316D01*
X212137274Y-85858861D01*
X212016198Y-85936672D01*
X211921948Y-86045442D01*
X211921947Y-86045444D01*
X211862159Y-86176359D01*
X211841678Y-86318816D01*
X210852972Y-86318816D01*
X210832490Y-86176359D01*
X210772702Y-86045443D01*
X210678453Y-85936673D01*
X210557378Y-85858863D01*
X210557376Y-85858862D01*
X210557374Y-85858861D01*
X210557375Y-85858861D01*
X210419288Y-85818316D01*
X210419286Y-85818316D01*
X210275364Y-85818316D01*
X210275361Y-85818316D01*
X210137274Y-85858861D01*
X210016198Y-85936672D01*
X209921948Y-86045442D01*
X209921947Y-86045444D01*
X209862159Y-86176359D01*
X209841678Y-86318816D01*
X208852972Y-86318816D01*
X208832490Y-86176359D01*
X208772702Y-86045443D01*
X208678453Y-85936673D01*
X208557378Y-85858863D01*
X208557376Y-85858862D01*
X208557374Y-85858861D01*
X208557375Y-85858861D01*
X208419288Y-85818316D01*
X208419286Y-85818316D01*
X208275364Y-85818316D01*
X208275361Y-85818316D01*
X208137274Y-85858861D01*
X208016198Y-85936672D01*
X207921948Y-86045442D01*
X207921947Y-86045444D01*
X207862159Y-86176359D01*
X207841678Y-86318816D01*
X196852972Y-86318816D01*
X196832490Y-86176359D01*
X196772702Y-86045443D01*
X196678453Y-85936673D01*
X196557378Y-85858863D01*
X196557376Y-85858862D01*
X196557374Y-85858861D01*
X196557375Y-85858861D01*
X196419288Y-85818316D01*
X196419286Y-85818316D01*
X196275364Y-85818316D01*
X196275361Y-85818316D01*
X196137274Y-85858861D01*
X196016198Y-85936672D01*
X195921948Y-86045442D01*
X195921947Y-86045444D01*
X195862159Y-86176359D01*
X195841678Y-86318816D01*
X169347325Y-86318816D01*
X169347325Y-84429442D01*
X223760893Y-84429442D01*
X223760893Y-84681365D01*
X223800303Y-84930189D01*
X223878153Y-85169787D01*
X223992525Y-85394252D01*
X224140594Y-85598053D01*
X224140598Y-85598058D01*
X224318738Y-85776198D01*
X224318743Y-85776202D01*
X224432517Y-85858863D01*
X224522548Y-85924274D01*
X224665577Y-85997151D01*
X224747009Y-86038643D01*
X224747011Y-86038643D01*
X224747014Y-86038645D01*
X224986608Y-86116494D01*
X225235431Y-86155904D01*
X225235432Y-86155904D01*
X225487354Y-86155904D01*
X225487355Y-86155904D01*
X225736178Y-86116494D01*
X225975772Y-86038645D01*
X226200238Y-85924274D01*
X226404049Y-85776197D01*
X226582186Y-85598060D01*
X226730263Y-85394249D01*
X226844634Y-85169783D01*
X226922483Y-84930189D01*
X226961893Y-84681366D01*
X226961893Y-84429442D01*
X226922483Y-84180619D01*
X226844634Y-83941025D01*
X226844632Y-83941022D01*
X226844632Y-83941020D01*
X226803140Y-83859588D01*
X226730263Y-83716559D01*
X226687929Y-83658291D01*
X226582191Y-83512754D01*
X226582187Y-83512749D01*
X226404047Y-83334609D01*
X226404042Y-83334605D01*
X226200241Y-83186536D01*
X226200240Y-83186535D01*
X226200238Y-83186534D01*
X226130140Y-83150817D01*
X225975776Y-83072164D01*
X225736178Y-82994314D01*
X225487355Y-82954904D01*
X225235431Y-82954904D01*
X225111019Y-82974609D01*
X224986607Y-82994314D01*
X224747009Y-83072164D01*
X224522544Y-83186536D01*
X224318743Y-83334605D01*
X224318738Y-83334609D01*
X224140598Y-83512749D01*
X224140594Y-83512754D01*
X223992525Y-83716555D01*
X223878153Y-83941020D01*
X223800303Y-84180618D01*
X223760893Y-84429442D01*
X169347325Y-84429442D01*
X169347325Y-78318816D01*
X226841678Y-78318816D01*
X226862159Y-78461272D01*
X226921947Y-78592187D01*
X226921948Y-78592189D01*
X227016197Y-78700959D01*
X227137272Y-78778769D01*
X227137275Y-78778770D01*
X227137274Y-78778770D01*
X227275361Y-78819315D01*
X227275363Y-78819316D01*
X227275364Y-78819316D01*
X227419287Y-78819316D01*
X227419287Y-78819315D01*
X227557378Y-78778769D01*
X227678453Y-78700959D01*
X227772702Y-78592189D01*
X227832490Y-78461273D01*
X227852972Y-78318816D01*
X227832490Y-78176359D01*
X227772702Y-78045443D01*
X227678453Y-77936673D01*
X227557378Y-77858863D01*
X227557376Y-77858862D01*
X227557374Y-77858861D01*
X227557375Y-77858861D01*
X227419288Y-77818316D01*
X227419286Y-77818316D01*
X227275364Y-77818316D01*
X227275361Y-77818316D01*
X227137274Y-77858861D01*
X227016198Y-77936672D01*
X226921948Y-78045442D01*
X226921947Y-78045444D01*
X226862159Y-78176359D01*
X226841678Y-78318816D01*
X169347325Y-78318816D01*
X169347325Y-76063816D01*
X208096678Y-76063816D01*
X208117159Y-76206272D01*
X208176947Y-76337187D01*
X208176948Y-76337189D01*
X208271197Y-76445959D01*
X208392272Y-76523769D01*
X208392275Y-76523770D01*
X208392274Y-76523770D01*
X208530361Y-76564315D01*
X208530363Y-76564316D01*
X208530364Y-76564316D01*
X208674287Y-76564316D01*
X208674287Y-76564315D01*
X208812378Y-76523769D01*
X208933453Y-76445959D01*
X209027702Y-76337189D01*
X209087490Y-76206273D01*
X209107972Y-76063816D01*
X209087490Y-75921359D01*
X209085656Y-75917345D01*
X209074542Y-75893006D01*
X209072547Y-75879128D01*
X226841678Y-75879128D01*
X226862159Y-76021584D01*
X226881446Y-76063816D01*
X226921948Y-76152501D01*
X227016197Y-76261271D01*
X227137272Y-76339081D01*
X227137275Y-76339082D01*
X227137274Y-76339082D01*
X227275361Y-76379627D01*
X227275363Y-76379628D01*
X227275364Y-76379628D01*
X227419287Y-76379628D01*
X227419287Y-76379627D01*
X227557378Y-76339081D01*
X227678453Y-76261271D01*
X227772702Y-76152501D01*
X227832490Y-76021585D01*
X227852972Y-75879128D01*
X227832490Y-75736671D01*
X227772702Y-75605755D01*
X227678453Y-75496985D01*
X227557378Y-75419175D01*
X227557376Y-75419174D01*
X227557374Y-75419173D01*
X227557375Y-75419173D01*
X227419288Y-75378628D01*
X227419286Y-75378628D01*
X227275364Y-75378628D01*
X227275361Y-75378628D01*
X227137274Y-75419173D01*
X227016198Y-75496984D01*
X226921948Y-75605754D01*
X226921947Y-75605756D01*
X226862159Y-75736671D01*
X226841678Y-75879128D01*
X209072547Y-75879128D01*
X209064598Y-75823848D01*
X209093623Y-75760292D01*
X209152401Y-75722518D01*
X209222270Y-75722518D01*
X209267200Y-75735710D01*
X209338139Y-75756540D01*
X209338140Y-75756540D01*
X209482063Y-75756540D01*
X209482063Y-75756539D01*
X209620154Y-75715993D01*
X209741229Y-75638183D01*
X209835478Y-75529413D01*
X209895266Y-75398497D01*
X209915748Y-75256040D01*
X209895266Y-75113583D01*
X209835478Y-74982667D01*
X209741229Y-74873897D01*
X209620154Y-74796087D01*
X209620152Y-74796086D01*
X209620150Y-74796085D01*
X209620151Y-74796085D01*
X209482064Y-74755540D01*
X209482062Y-74755540D01*
X209338140Y-74755540D01*
X209338137Y-74755540D01*
X209200050Y-74796085D01*
X209078974Y-74873896D01*
X208984724Y-74982666D01*
X208984723Y-74982668D01*
X208924935Y-75113583D01*
X208904454Y-75256040D01*
X208924935Y-75398496D01*
X208937884Y-75426850D01*
X208947827Y-75496009D01*
X208918801Y-75559564D01*
X208860022Y-75597338D01*
X208790155Y-75597337D01*
X208674288Y-75563316D01*
X208674286Y-75563316D01*
X208530364Y-75563316D01*
X208530361Y-75563316D01*
X208392274Y-75603861D01*
X208271198Y-75681672D01*
X208176948Y-75790442D01*
X208176947Y-75790444D01*
X208117159Y-75921359D01*
X208096678Y-76063816D01*
X169347325Y-76063816D01*
X169347325Y-73192854D01*
X194246825Y-73192854D01*
X194246825Y-73444778D01*
X194270173Y-73592189D01*
X194286235Y-73693601D01*
X194364085Y-73933199D01*
X194478457Y-74157664D01*
X194626526Y-74361465D01*
X194626530Y-74361470D01*
X194804670Y-74539610D01*
X194804675Y-74539614D01*
X194827723Y-74556359D01*
X195008480Y-74687686D01*
X195141651Y-74755540D01*
X195232941Y-74802055D01*
X195232943Y-74802055D01*
X195232946Y-74802057D01*
X195472540Y-74879906D01*
X195721363Y-74919316D01*
X195721364Y-74919316D01*
X195973286Y-74919316D01*
X195973287Y-74919316D01*
X196222110Y-74879906D01*
X196461704Y-74802057D01*
X196686170Y-74687686D01*
X196889981Y-74539609D01*
X197068118Y-74361472D01*
X197216195Y-74157661D01*
X197330566Y-73933195D01*
X197408415Y-73693601D01*
X197447825Y-73444778D01*
X197447825Y-73318816D01*
X226841678Y-73318816D01*
X226862159Y-73461272D01*
X226921947Y-73592187D01*
X226921948Y-73592189D01*
X227016197Y-73700959D01*
X227137272Y-73778769D01*
X227137275Y-73778770D01*
X227137274Y-73778770D01*
X227275361Y-73819315D01*
X227275363Y-73819316D01*
X227275364Y-73819316D01*
X227419287Y-73819316D01*
X227419287Y-73819315D01*
X227557378Y-73778769D01*
X227678453Y-73700959D01*
X227772702Y-73592189D01*
X227832490Y-73461273D01*
X227852972Y-73318816D01*
X227832490Y-73176359D01*
X227772702Y-73045443D01*
X227678453Y-72936673D01*
X227557378Y-72858863D01*
X227557376Y-72858862D01*
X227557374Y-72858861D01*
X227557375Y-72858861D01*
X227419288Y-72818316D01*
X227419286Y-72818316D01*
X227275364Y-72818316D01*
X227275361Y-72818316D01*
X227137274Y-72858861D01*
X227016198Y-72936672D01*
X226921948Y-73045442D01*
X226921947Y-73045444D01*
X226862159Y-73176359D01*
X226841678Y-73318816D01*
X197447825Y-73318816D01*
X197447825Y-73192854D01*
X197408415Y-72944031D01*
X197330566Y-72704437D01*
X197330564Y-72704434D01*
X197330564Y-72704432D01*
X197289072Y-72623000D01*
X197216195Y-72479971D01*
X197197277Y-72453933D01*
X197068123Y-72276166D01*
X197068119Y-72276161D01*
X196889979Y-72098021D01*
X196889974Y-72098017D01*
X196686173Y-71949948D01*
X196686172Y-71949947D01*
X196686170Y-71949946D01*
X196616072Y-71914229D01*
X196461708Y-71835576D01*
X196222110Y-71757726D01*
X195973287Y-71718316D01*
X195721363Y-71718316D01*
X195596951Y-71738021D01*
X195472539Y-71757726D01*
X195232941Y-71835576D01*
X195008476Y-71949948D01*
X194804675Y-72098017D01*
X194804670Y-72098021D01*
X194626530Y-72276161D01*
X194626526Y-72276166D01*
X194478457Y-72479967D01*
X194364085Y-72704432D01*
X194286235Y-72944030D01*
X194286235Y-72944031D01*
X194246825Y-73192854D01*
X169347325Y-73192854D01*
X169347325Y-70698816D01*
X226841678Y-70698816D01*
X226862159Y-70841272D01*
X226921947Y-70972187D01*
X226921948Y-70972189D01*
X227016197Y-71080959D01*
X227137272Y-71158769D01*
X227137275Y-71158770D01*
X227137274Y-71158770D01*
X227275361Y-71199315D01*
X227275363Y-71199316D01*
X227275364Y-71199316D01*
X227419287Y-71199316D01*
X227419287Y-71199315D01*
X227557378Y-71158769D01*
X227678453Y-71080959D01*
X227772702Y-70972189D01*
X227832490Y-70841273D01*
X227852972Y-70698816D01*
X227832490Y-70556359D01*
X227772702Y-70425443D01*
X227680310Y-70318816D01*
X233841678Y-70318816D01*
X233862159Y-70461272D01*
X233905585Y-70556359D01*
X233921948Y-70592189D01*
X234016197Y-70700959D01*
X234137272Y-70778769D01*
X234137275Y-70778770D01*
X234137274Y-70778770D01*
X234275361Y-70819315D01*
X234275363Y-70819316D01*
X234275364Y-70819316D01*
X234419287Y-70819316D01*
X234419287Y-70819315D01*
X234557378Y-70778769D01*
X234678453Y-70700959D01*
X234772702Y-70592189D01*
X234832490Y-70461273D01*
X234852972Y-70318816D01*
X234832490Y-70176359D01*
X234772702Y-70045443D01*
X234678453Y-69936673D01*
X234557378Y-69858863D01*
X234557376Y-69858862D01*
X234557374Y-69858861D01*
X234557375Y-69858861D01*
X234419288Y-69818316D01*
X234419286Y-69818316D01*
X234275364Y-69818316D01*
X234275361Y-69818316D01*
X234137274Y-69858861D01*
X234016198Y-69936672D01*
X233921948Y-70045442D01*
X233921947Y-70045444D01*
X233862159Y-70176359D01*
X233841678Y-70318816D01*
X227680310Y-70318816D01*
X227678453Y-70316673D01*
X227557378Y-70238863D01*
X227557376Y-70238862D01*
X227557374Y-70238861D01*
X227557375Y-70238861D01*
X227419288Y-70198316D01*
X227419286Y-70198316D01*
X227275364Y-70198316D01*
X227275361Y-70198316D01*
X227137274Y-70238861D01*
X227016198Y-70316672D01*
X226921948Y-70425442D01*
X226921947Y-70425444D01*
X226862159Y-70556359D01*
X226841678Y-70698816D01*
X169347325Y-70698816D01*
X169347325Y-68158816D01*
X226841678Y-68158816D01*
X226862159Y-68301272D01*
X226921947Y-68432187D01*
X226921948Y-68432189D01*
X227016197Y-68540959D01*
X227137272Y-68618769D01*
X227137275Y-68618770D01*
X227137274Y-68618770D01*
X227275361Y-68659315D01*
X227275363Y-68659316D01*
X227275364Y-68659316D01*
X227419287Y-68659316D01*
X227419287Y-68659315D01*
X227557378Y-68618769D01*
X227678453Y-68540959D01*
X227772702Y-68432189D01*
X227832490Y-68301273D01*
X227852972Y-68158816D01*
X227832490Y-68016359D01*
X227772702Y-67885443D01*
X227678453Y-67776673D01*
X227557378Y-67698863D01*
X227557376Y-67698862D01*
X227557374Y-67698861D01*
X227557375Y-67698861D01*
X227557222Y-67698816D01*
X234031678Y-67698816D01*
X234052159Y-67841272D01*
X234072332Y-67885443D01*
X234111948Y-67972189D01*
X234206197Y-68080959D01*
X234327272Y-68158769D01*
X234327275Y-68158770D01*
X234327274Y-68158770D01*
X234465361Y-68199315D01*
X234465363Y-68199316D01*
X234465364Y-68199316D01*
X234609287Y-68199316D01*
X234609287Y-68199315D01*
X234747378Y-68158769D01*
X234868453Y-68080959D01*
X234962702Y-67972189D01*
X235022490Y-67841273D01*
X235042972Y-67698816D01*
X235022490Y-67556359D01*
X234962702Y-67425443D01*
X234868453Y-67316673D01*
X234747378Y-67238863D01*
X234747376Y-67238862D01*
X234747374Y-67238861D01*
X234747375Y-67238861D01*
X234609288Y-67198316D01*
X234609286Y-67198316D01*
X234465364Y-67198316D01*
X234465361Y-67198316D01*
X234327274Y-67238861D01*
X234206198Y-67316672D01*
X234111948Y-67425442D01*
X234111947Y-67425444D01*
X234052159Y-67556359D01*
X234031678Y-67698816D01*
X227557222Y-67698816D01*
X227419288Y-67658316D01*
X227419286Y-67658316D01*
X227275364Y-67658316D01*
X227275361Y-67658316D01*
X227137274Y-67698861D01*
X227016198Y-67776672D01*
X226921948Y-67885442D01*
X226921947Y-67885444D01*
X226862159Y-68016359D01*
X226841678Y-68158816D01*
X169347325Y-68158816D01*
X169347325Y-60182153D01*
X226841678Y-60182153D01*
X226862159Y-60324609D01*
X226921947Y-60455524D01*
X226921948Y-60455526D01*
X227016197Y-60564296D01*
X227137272Y-60642106D01*
X227137275Y-60642107D01*
X227137274Y-60642107D01*
X227275361Y-60682652D01*
X227275363Y-60682653D01*
X227275364Y-60682653D01*
X227419287Y-60682653D01*
X227419287Y-60682652D01*
X227557378Y-60642106D01*
X227678453Y-60564296D01*
X227772702Y-60455526D01*
X227832490Y-60324610D01*
X227833323Y-60318816D01*
X233841678Y-60318816D01*
X233862159Y-60461272D01*
X233921947Y-60592187D01*
X233921948Y-60592189D01*
X234016197Y-60700959D01*
X234137272Y-60778769D01*
X234137275Y-60778770D01*
X234137274Y-60778770D01*
X234275361Y-60819315D01*
X234275363Y-60819316D01*
X234275364Y-60819316D01*
X234419287Y-60819316D01*
X234419287Y-60819315D01*
X234557378Y-60778769D01*
X234678453Y-60700959D01*
X234772702Y-60592189D01*
X234832490Y-60461273D01*
X234852972Y-60318816D01*
X234832490Y-60176359D01*
X234772702Y-60045443D01*
X234678453Y-59936673D01*
X234557378Y-59858863D01*
X234557376Y-59858862D01*
X234557374Y-59858861D01*
X234557375Y-59858861D01*
X234419288Y-59818316D01*
X234419286Y-59818316D01*
X234275364Y-59818316D01*
X234275361Y-59818316D01*
X234137274Y-59858861D01*
X234016198Y-59936672D01*
X233921948Y-60045442D01*
X233921947Y-60045444D01*
X233862159Y-60176359D01*
X233841678Y-60318816D01*
X227833323Y-60318816D01*
X227852972Y-60182153D01*
X227832490Y-60039696D01*
X227772702Y-59908780D01*
X227678453Y-59800010D01*
X227557378Y-59722200D01*
X227557376Y-59722199D01*
X227557374Y-59722198D01*
X227557375Y-59722198D01*
X227419288Y-59681653D01*
X227419286Y-59681653D01*
X227275364Y-59681653D01*
X227275361Y-59681653D01*
X227137274Y-59722198D01*
X227016198Y-59800009D01*
X226921948Y-59908779D01*
X226921947Y-59908781D01*
X226862159Y-60039696D01*
X226841678Y-60182153D01*
X169347325Y-60182153D01*
X169347325Y-59442816D01*
X169367010Y-59375777D01*
X169419814Y-59330022D01*
X169471325Y-59318816D01*
X240222825Y-59318816D01*
X240289864Y-59338501D01*
G37*
%TD.AperFunction*%
%TD*%
M02*
