M48
; DRILL file {KiCad 8.0.9-8.0.9-0~ubuntu22.04.1} date 2025-06-19T12:15:14-0400
; FORMAT={-:-/ absolute / metric / decimal}
; #@! TF.CreationDate,2025-06-19T12:15:14-04:00
; #@! TF.GenerationSoftware,Kicad,Pcbnew,8.0.9-8.0.9-0~ubuntu22.04.1
; #@! TF.FileFunction,Plated,1,4,PTH
FMAT,2
METRIC
; #@! TA.AperFunction,Plated,PTH,ViaDrill
T1C0.300
; #@! TA.AperFunction,Plated,PTH,ComponentDrill
T2C1.000
%
G90
G05
T1
X59.847Y-77.819
X60.347Y-59.319
X60.847Y-100.319
X64.347Y-88.319
X67.747Y-110.158
X69.347Y-92.319
X71.347Y-58.319
X72.347Y-80.319
X76.347Y-58.319
X76.347Y-66.319
X76.347Y-70.319
X76.347Y-95.319
X78.097Y-57.069
X79.347Y-110.319
X83.722Y-117.819
X84.347Y-88.319
X86.222Y-101.319
X92.347Y-88.319
X92.347Y-114.319
X102.347Y-86.319
X102.347Y-90.319
X103.347Y-88.319
X104.397Y-86.369
X105.347Y-91.319
X107.347Y-94.319
X107.947Y-82.319
X108.347Y-85.319
X111.347Y-91.319
X114.347Y-89.319
X116.347Y-104.319
X116.347Y-114.319
X119.347Y-95.319
X119.347Y-108.319
X119.347Y-114.319
X125.347Y-99.819
X126.347Y-105.575
X126.347Y-111.319
X126.347Y-117.319
X134.347Y-99.319
X136.347Y-92.319
X140.347Y-92.319
X142.347Y-113.319
X143.347Y-92.319
X143.347Y-113.319
X144.338Y-108.086
X144.347Y-101.319
X144.347Y-106.819
X144.347Y-109.359
X144.347Y-110.629
X146.347Y-101.319
X146.347Y-120.319
X148.347Y-101.319
X148.347Y-117.319
X152.069Y-120.319
X155.347Y-82.319
X157.347Y-99.319
X159.047Y-80.019
X172.22Y-107.191
X173.347Y-91.319
X174.347Y-99.319
X175.347Y-98.319
X178.813Y-91.319
X179.347Y-99.319
X180.347Y-100.319
X180.347Y-107.319
X181.347Y-116.319
X182.347Y-112.319
X183.646Y-100.02
X183.847Y-91.819
X184.347Y-113.319
X185.347Y-107.319
X185.347Y-112.319
X185.347Y-118.319
X187.347Y-107.319
X188.347Y-113.319
X190.0Y-111.971
X190.347Y-107.319
X191.513Y-95.319
X193.347Y-107.319
X193.347Y-112.319
X194.053Y-87.319
X194.347Y-95.319
X194.347Y-102.319
X196.347Y-86.319
X197.347Y-102.319
X197.347Y-107.319
X197.347Y-120.319
X199.137Y-102.529
X199.137Y-113.529
X199.342Y-93.319
X200.234Y-89.432
X200.347Y-118.319
X201.347Y-108.319
X201.673Y-94.993
X205.347Y-107.319
X205.347Y-112.919
X206.347Y-111.319
X207.347Y-107.319
X208.347Y-86.319
X208.347Y-118.319
X208.602Y-76.064
X209.41Y-75.256
X210.32Y-107.291
X210.347Y-86.319
X210.347Y-100.319
X210.347Y-114.319
X211.347Y-97.319
X212.347Y-86.319
X212.347Y-97.319
X213.347Y-107.319
X213.347Y-117.319
X213.351Y-114.264
X215.347Y-86.319
X215.347Y-107.319
X216.347Y-101.319
X216.347Y-112.319
X216.347Y-120.319
X217.172Y-112.295
X218.0Y-113.0
X218.347Y-107.319
X219.453Y-87.54
X219.785Y-78.651
X222.0Y-116.719
X222.347Y-122.319
X224.755Y-116.0
X226.347Y-123.319
X227.347Y-55.319
X227.347Y-57.779
X227.347Y-60.182
X227.347Y-68.159
X227.347Y-70.699
X227.347Y-73.319
X227.347Y-75.879
X227.347Y-78.319
X227.347Y-120.319
X228.44Y-116.26
X230.238Y-115.719
X231.347Y-119.319
X232.058Y-115.0
X233.347Y-119.115
X234.347Y-55.319
X234.347Y-58.319
X234.347Y-60.319
X234.347Y-64.319
X234.347Y-70.319
X234.537Y-67.699
X234.537Y-74.699
X235.347Y-118.817
X236.347Y-113.319
X237.537Y-82.699
X237.788Y-118.76
X238.537Y-76.699
T2
X132.347Y-58.779
X132.347Y-61.319
X132.347Y-63.859
X160.372Y-56.239
X160.372Y-58.779
X160.372Y-61.319
X160.372Y-63.859
X160.372Y-66.399
M30
