%TF.GenerationSoftware,KiCad,Pcbnew,8.0.9-8.0.9-0~ubuntu22.04.1*%
%TF.CreationDate,2025-06-19T12:15:33-04:00*%
%TF.ProjectId,digital_waters,64696769-7461-46c5-9f77-61746572732e,rev?*%
%TF.SameCoordinates,Original*%
%TF.FileFunction,Copper,L2,Inr*%
%TF.FilePolarity,Positive*%
%FSLAX46Y46*%
G04 Gerber Fmt 4.6, Leading zero omitted, Abs format (unit mm)*
G04 Created by KiCad (PCBNEW 8.0.9-8.0.9-0~ubuntu22.04.1) date 2025-06-19 12:15:33*
%MOMM*%
%LPD*%
G01*
G04 APERTURE LIST*
%TA.AperFunction,ComponentPad*%
%ADD10R,1.700000X1.700000*%
%TD*%
%TA.AperFunction,ComponentPad*%
%ADD11O,1.700000X1.700000*%
%TD*%
%TA.AperFunction,ViaPad*%
%ADD12C,0.600000*%
%TD*%
%TA.AperFunction,Conductor*%
%ADD13C,0.500000*%
%TD*%
%TA.AperFunction,Conductor*%
%ADD14C,0.200000*%
%TD*%
G04 APERTURE END LIST*
D10*
%TO.N,+VSW*%
%TO.C,J18*%
X160372325Y-56238816D03*
D11*
X160372325Y-58778816D03*
%TO.N,GNDD*%
X160372325Y-61318816D03*
%TO.N,/I2C_SDA*%
X160372325Y-63858816D03*
%TO.N,/I2C_SCL*%
X160372325Y-66398816D03*
%TD*%
D10*
%TO.N,GNDA*%
%TO.C,J17*%
X132347325Y-63858816D03*
D11*
%TO.N,+VSW*%
X132347325Y-61318816D03*
%TO.N,Net-(J17-Pin_3)*%
X132347325Y-58778816D03*
%TD*%
D12*
%TO.N,GNDA*%
X114347325Y-89318816D03*
X143347325Y-113318816D03*
X140347325Y-92318816D03*
X119347325Y-108318816D03*
X103347325Y-88318816D03*
X143347325Y-92318816D03*
X136347325Y-92318816D03*
X119347325Y-114318816D03*
X142347325Y-113318816D03*
X92347325Y-88318816D03*
X119347325Y-95318816D03*
%TO.N,/Power/+2.5V_REF*%
X69347325Y-92318816D03*
X72347325Y-80318816D03*
%TO.N,+3.3V*%
X193347325Y-107318816D03*
X219453118Y-87540477D03*
X234347325Y-64318816D03*
X172220000Y-107191491D03*
X178812949Y-91318816D03*
X219784825Y-78651316D03*
%TO.N,+5V*%
X227347325Y-68158816D03*
X173347325Y-91318816D03*
%TO.N,VDDA*%
X134347325Y-99318816D03*
X111347325Y-91318816D03*
%TO.N,/Power/+2.5V_REF_BUF_A*%
X59847325Y-77818816D03*
X102347325Y-86318816D03*
%TO.N,/Micocontroller/GPIO_22*%
X190347325Y-107318816D03*
X216347325Y-101318816D03*
X227347325Y-78318816D03*
X213350684Y-114263532D03*
%TO.N,/Micocontroller/GPIO_21*%
X208347325Y-118318816D03*
X234537325Y-74698816D03*
X218000000Y-113000000D03*
%TO.N,/Micocontroller/GPIO_5*%
X238537325Y-76698816D03*
X197347325Y-120318816D03*
%TO.N,/Micocontroller/GPIO_4*%
X180347325Y-100318816D03*
X180347325Y-107318816D03*
X188347325Y-113318816D03*
X227347325Y-70698816D03*
%TO.N,Net-(J2-In)*%
X67747325Y-110158498D03*
X64347325Y-88318816D03*
%TO.N,/EN{slash}~{SH_0}*%
X207347325Y-107318816D03*
X185347325Y-118318816D03*
X157347325Y-99318816D03*
%TO.N,Net-(R12-Pad2)*%
X84347325Y-88318816D03*
X126347325Y-111318816D03*
%TO.N,Net-(U5B--)*%
X126347325Y-117318816D03*
X76347325Y-95318816D03*
%TO.N,/Micocontroller/GPIO_14*%
X234347325Y-70318816D03*
X191512949Y-95318816D03*
X179347325Y-99318816D03*
%TO.N,Net-(R21-Pad2)*%
X92347325Y-114318816D03*
X79347325Y-110318816D03*
%TO.N,/Micocontroller/GPIO_15*%
X182347325Y-112318816D03*
X227347325Y-73318816D03*
X183646479Y-100019662D03*
X181347325Y-116318816D03*
%TO.N,/I2C_SCL*%
X209410101Y-75256040D03*
X159047325Y-80018816D03*
X175347325Y-98318816D03*
X194052949Y-87318816D03*
%TO.N,/I2C_SDA*%
X208602325Y-76063816D03*
X196347325Y-86318816D03*
X174347325Y-99318816D03*
X155347325Y-82318816D03*
%TO.N,/Micocontroller/GPIO_12*%
X194347325Y-95318816D03*
X227347325Y-75879128D03*
X210347325Y-100318816D03*
%TO.N,/Micocontroller/GPIO_1*%
X237537325Y-82698816D03*
X206347325Y-111318816D03*
X213347325Y-117318816D03*
%TO.N,/Micocontroller/GPIO_25*%
X197347325Y-107318816D03*
X200234321Y-89431820D03*
X234537325Y-67698816D03*
%TO.N,/SPI_MOSI*%
X194347325Y-102318816D03*
X216347325Y-120318816D03*
X146347325Y-120318816D03*
X144347325Y-109358816D03*
%TO.N,/SPI_SCLK*%
X152069402Y-120318816D03*
X199137024Y-113529117D03*
X144347325Y-106818816D03*
X199137024Y-102529117D03*
%TO.N,/SPI_MISO*%
X197347325Y-102318816D03*
X144337787Y-108086424D03*
X148347325Y-117318816D03*
X200347325Y-118318816D03*
%TO.N,/SPI_CS0*%
X144347325Y-110628816D03*
X201347325Y-108318816D03*
X183847325Y-91818816D03*
%TO.N,/Base_Sensor/VBATT_BUF*%
X199342338Y-93318816D03*
X116347325Y-104318816D03*
%TO.N,/Base_Sensor/TEMP_SENSE_BUF*%
X116347325Y-114318816D03*
X201672949Y-94993192D03*
%TO.N,Net-(U4A--)*%
X71347325Y-58318816D03*
X125347325Y-99818816D03*
%TO.N,Net-(R24-Pad1)*%
X78097325Y-57068816D03*
X126347325Y-105575465D03*
%TO.N,/Base_Sensor/+4.096_REF_BUF_A*%
X83722325Y-117818816D03*
X105347325Y-91318816D03*
%TO.N,/Power/+2.5V_REF_BUF_B*%
X102347325Y-90318816D03*
X60847325Y-100318816D03*
%TO.N,/Power/+4.096_REF_BUF_B*%
X60347325Y-59318816D03*
X104397325Y-86368816D03*
%TO.N,+VSW*%
X76347325Y-70318816D03*
X76347325Y-58318816D03*
X107947325Y-82318816D03*
X144347325Y-101318816D03*
X148347325Y-101318816D03*
X107347325Y-94318816D03*
X76347325Y-66318816D03*
X146347325Y-101318816D03*
X86222325Y-101318816D03*
X108347325Y-85318816D03*
%TO.N,/Micocontroller/GPIO_2_ESP*%
X211347325Y-97318816D03*
X234347325Y-55318816D03*
X184347325Y-113318816D03*
%TO.N,/Micocontroller/GPIO_3_ESP*%
X210347325Y-114318816D03*
X234347325Y-58318816D03*
X212347325Y-97318816D03*
%TO.N,/Micocontroller/GPIO_34_ESP*%
X227347325Y-57778816D03*
X210347325Y-86318816D03*
%TO.N,/Micocontroller/GPIO_35_ESP*%
X208347325Y-86318816D03*
X227347325Y-55318816D03*
%TO.N,/Micocontroller/GPIO_39_ESP*%
X212347325Y-86318816D03*
X234347325Y-60318816D03*
%TO.N,/Micocontroller/GPIO_36_ESP*%
X227347325Y-60182153D03*
X215347325Y-86318816D03*
%TO.N,/Micocontroller/GPIO_27_PI*%
X187347325Y-107318816D03*
X231347325Y-119318816D03*
%TO.N,/Micocontroller/GPIO_7_PI*%
X233347325Y-119114739D03*
X205347325Y-112918816D03*
%TO.N,/Micocontroller/GPIO_0_PI*%
X205347325Y-107318816D03*
X237788130Y-118759620D03*
%TO.N,/Micocontroller/GPIO_20_PI*%
X224755279Y-116000000D03*
X217171591Y-112294553D03*
%TO.N,/Micocontroller/GPIO_23_PI*%
X222347325Y-122318816D03*
X190000000Y-111971491D03*
%TO.N,/Micocontroller/GPIO_13_PI*%
X213347325Y-107318816D03*
X230238002Y-115718816D03*
%TO.N,/Micocontroller/GPIO_24_PI*%
X193347325Y-112318816D03*
X235347325Y-118816859D03*
%TO.N,/Micocontroller/GPIO_19_PI*%
X232057646Y-115000000D03*
X215347325Y-107318816D03*
%TO.N,/Micocontroller/GPIO_26_PI*%
X218347325Y-107318816D03*
X236347325Y-113318816D03*
%TO.N,/Micocontroller/GPIO_16_PI*%
X216347325Y-112318816D03*
X222000000Y-116718816D03*
%TO.N,/Micocontroller/GPIO_18_PI*%
X185347325Y-112318816D03*
X226347325Y-123318816D03*
%TO.N,/Micocontroller/GPIO_17_PI*%
X185347325Y-107318816D03*
X227347325Y-120318816D03*
%TO.N,/Micocontroller/GPIO_6_PI*%
X210320000Y-107291491D03*
X228439778Y-116259798D03*
%TD*%
D13*
%TO.N,VDDA*%
X131347325Y-91318816D02*
X111347325Y-91318816D01*
X134347325Y-99318816D02*
X134347325Y-94318816D01*
X134347325Y-94318816D02*
X131347325Y-91318816D01*
%TO.N,/Power/+2.5V_REF_BUF_A*%
X62847325Y-77818816D02*
X59847325Y-77818816D01*
X102347325Y-86318816D02*
X66347325Y-86318816D01*
X66347325Y-86318816D02*
X64347325Y-84318816D01*
X64347325Y-84318816D02*
X64347325Y-79318816D01*
X64347325Y-79318816D02*
X62847325Y-77818816D01*
D14*
%TO.N,/Micocontroller/GPIO_22*%
X222347325Y-82318816D02*
X222347325Y-90915419D01*
X196347325Y-101318816D02*
X190347325Y-107318816D01*
X227347325Y-78318816D02*
X226347325Y-78318816D01*
X216347325Y-101318816D02*
X196347325Y-101318816D01*
X222347325Y-90915419D02*
X216347325Y-96915419D01*
X216347325Y-96915419D02*
X216347325Y-101318816D01*
X226347325Y-78318816D02*
X222347325Y-82318816D01*
%TO.N,/Micocontroller/GPIO_4*%
X226967325Y-70698816D02*
X227347325Y-70698816D01*
X180347325Y-107318816D02*
X182347325Y-107318816D01*
X220347325Y-91218361D02*
X220347325Y-80318816D01*
X182347325Y-107318816D02*
X188347325Y-113318816D01*
X212246870Y-99318816D02*
X220347325Y-91218361D01*
X181347325Y-99318816D02*
X212246870Y-99318816D01*
X225347325Y-72318816D02*
X226967325Y-70698816D01*
X225347325Y-75318816D02*
X225347325Y-72318816D01*
X220347325Y-80318816D02*
X225347325Y-75318816D01*
X180347325Y-100318816D02*
X181347325Y-99318816D01*
%TO.N,Net-(J2-In)*%
X64347325Y-90318816D02*
X59347325Y-95318816D01*
X59347325Y-102318816D02*
X67187007Y-110158498D01*
X64347325Y-88318816D02*
X64347325Y-90318816D01*
X67187007Y-110158498D02*
X67747325Y-110158498D01*
X59347325Y-95318816D02*
X59347325Y-102318816D01*
%TO.N,/Micocontroller/GPIO_14*%
X225567325Y-70098816D02*
X234127325Y-70098816D01*
X191512949Y-98484440D02*
X191947325Y-98918816D01*
X179747325Y-98918816D02*
X193347325Y-98918816D01*
X193347325Y-98918816D02*
X212081184Y-98918816D01*
X179347325Y-99318816D02*
X179747325Y-98918816D01*
X212081184Y-98918816D02*
X218853118Y-92146882D01*
X224347325Y-75005973D02*
X224347325Y-71318816D01*
X191512949Y-95318816D02*
X191512949Y-98484440D01*
X218853118Y-87291948D02*
X219347325Y-86797741D01*
X234127325Y-70098816D02*
X234347325Y-70318816D01*
X219347325Y-86797741D02*
X219347325Y-80005973D01*
X219347325Y-80005973D02*
X224347325Y-75005973D01*
X218853118Y-92146882D02*
X218853118Y-87291948D01*
X224347325Y-71318816D02*
X225567325Y-70098816D01*
X191947325Y-98918816D02*
X193347325Y-98918816D01*
%TO.N,Net-(R21-Pad2)*%
X92347325Y-114318816D02*
X88247325Y-118418816D01*
X80347325Y-111318816D02*
X79347325Y-110318816D01*
X82447325Y-118418816D02*
X80347325Y-116318816D01*
X88247325Y-118418816D02*
X82447325Y-118418816D01*
X80347325Y-116318816D02*
X80347325Y-111318816D01*
%TO.N,/Micocontroller/GPIO_15*%
X183947325Y-99718816D02*
X212412556Y-99718816D01*
X221347325Y-90784047D02*
X221347325Y-80601659D01*
X226347325Y-74318816D02*
X227347325Y-73318816D01*
X226347325Y-75601659D02*
X226347325Y-74318816D01*
X221347325Y-80601659D02*
X226347325Y-75601659D01*
X212412556Y-99718816D02*
X221347325Y-90784047D01*
X181347325Y-113318816D02*
X182347325Y-112318816D01*
X181347325Y-116318816D02*
X181347325Y-113318816D01*
X183646479Y-100019662D02*
X183947325Y-99718816D01*
%TO.N,/Micocontroller/GPIO_12*%
X221947325Y-81279128D02*
X221947325Y-90749733D01*
X227347325Y-75879128D02*
X221947325Y-81279128D01*
X221947325Y-90749733D02*
X212378242Y-100318816D01*
X212378242Y-100318816D02*
X210347325Y-100318816D01*
%TO.N,/Base_Sensor/VBATT_BUF*%
X117347325Y-103318816D02*
X116347325Y-104318816D01*
X156347325Y-103318816D02*
X117347325Y-103318816D01*
X199342338Y-93318816D02*
X198342338Y-94318816D01*
X198342338Y-94318816D02*
X165347325Y-94318816D01*
X165347325Y-94318816D02*
X156347325Y-103318816D01*
%TO.N,/Base_Sensor/TEMP_SENSE_BUF*%
X155913011Y-104318816D02*
X118347325Y-104318816D01*
X198021701Y-94993192D02*
X197747325Y-94718816D01*
X116347325Y-106318816D02*
X116347325Y-114318816D01*
X118347325Y-104318816D02*
X116347325Y-106318816D01*
X197747325Y-94718816D02*
X165513011Y-94718816D01*
X201672949Y-94993192D02*
X198021701Y-94993192D01*
X165513011Y-94718816D02*
X155913011Y-104318816D01*
D13*
%TO.N,/Base_Sensor/+4.096_REF_BUF_A*%
X104347325Y-92318816D02*
X105347325Y-91318816D01*
X82347325Y-116443816D02*
X82347325Y-95318816D01*
X82347325Y-95318816D02*
X85347325Y-92318816D01*
X83722325Y-117818816D02*
X82347325Y-116443816D01*
X85347325Y-92318816D02*
X104347325Y-92318816D01*
%TO.N,/Power/+2.5V_REF_BUF_B*%
X102347325Y-90318816D02*
X68347325Y-90318816D01*
X60847325Y-97818816D02*
X60847325Y-100318816D01*
X68347325Y-90318816D02*
X60847325Y-97818816D01*
%TO.N,/Power/+4.096_REF_BUF_B*%
X99347325Y-79318816D02*
X76347325Y-79318816D01*
X60347325Y-63318816D02*
X60347325Y-59318816D01*
X76347325Y-79318816D02*
X60347325Y-63318816D01*
X104397325Y-86368816D02*
X104397325Y-84368816D01*
X104397325Y-84368816D02*
X99347325Y-79318816D01*
D14*
%TO.N,/Micocontroller/GPIO_2_ESP*%
X212347325Y-93670287D02*
X216347325Y-89670287D01*
X220347325Y-56318816D02*
X233347325Y-56318816D01*
X233347325Y-56318816D02*
X234347325Y-55318816D01*
X216347325Y-89670287D02*
X216347325Y-60318816D01*
X216347325Y-60318816D02*
X220347325Y-56318816D01*
X212347325Y-96318816D02*
X212347325Y-93670287D01*
X211347325Y-97318816D02*
X212347325Y-96318816D01*
%TO.N,/Micocontroller/GPIO_3_ESP*%
X233347325Y-59318816D02*
X234347325Y-58318816D01*
X212347325Y-97318816D02*
X217347325Y-92318816D01*
X217347325Y-60318816D02*
X218347325Y-59318816D01*
X217347325Y-92318816D02*
X217347325Y-60318816D01*
X218347325Y-59318816D02*
X233347325Y-59318816D01*
%TO.N,/Micocontroller/GPIO_27_PI*%
X192347325Y-112318816D02*
X187347325Y-107318816D01*
X196347325Y-119318816D02*
X192347325Y-115318816D01*
X192347325Y-115318816D02*
X192347325Y-112318816D01*
X231347325Y-119318816D02*
X196347325Y-119318816D01*
%TO.N,/Micocontroller/GPIO_7_PI*%
X205347325Y-113318816D02*
X205347325Y-112918816D01*
X210747325Y-118718816D02*
X205347325Y-113318816D01*
X233347325Y-119114739D02*
X232951402Y-118718816D01*
X232951402Y-118718816D02*
X210747325Y-118718816D01*
%TO.N,/Micocontroller/GPIO_0_PI*%
X209747325Y-111718816D02*
X205347325Y-107318816D01*
X218918816Y-117918816D02*
X212718816Y-111718816D01*
X237788130Y-118759620D02*
X236947326Y-117918816D01*
X236947326Y-117918816D02*
X218918816Y-117918816D01*
X212718816Y-111718816D02*
X209747325Y-111718816D01*
%TO.N,/Micocontroller/GPIO_20_PI*%
X219938519Y-116000000D02*
X217171591Y-113233072D01*
X224755279Y-116000000D02*
X219938519Y-116000000D01*
X217171591Y-113233072D02*
X217171591Y-112294553D01*
%TO.N,/Micocontroller/GPIO_23_PI*%
X190000000Y-111971491D02*
X190000000Y-114971491D01*
X190000000Y-114971491D02*
X197347325Y-122318816D01*
X197347325Y-122318816D02*
X222347325Y-122318816D01*
%TO.N,/Micocontroller/GPIO_13_PI*%
X219000000Y-113434314D02*
X219000000Y-112585785D01*
X229519186Y-115000000D02*
X220565686Y-115000000D01*
X213947325Y-107918816D02*
X213347325Y-107318816D01*
X220565686Y-115000000D02*
X219000000Y-113434314D01*
X230238002Y-115718816D02*
X229519186Y-115000000D01*
X219000000Y-112585785D02*
X214333031Y-107918816D01*
X214333031Y-107918816D02*
X213947325Y-107918816D01*
%TO.N,/Micocontroller/GPIO_24_PI*%
X212318816Y-112318816D02*
X193347325Y-112318816D01*
X235347325Y-118816859D02*
X234849282Y-118318816D01*
X234849282Y-118318816D02*
X218318816Y-118318816D01*
X218318816Y-118318816D02*
X212318816Y-112318816D01*
%TO.N,/Micocontroller/GPIO_19_PI*%
X229684872Y-114600000D02*
X220731372Y-114600000D01*
X220731372Y-114600000D02*
X219400000Y-113268628D01*
X230084872Y-115000000D02*
X229684872Y-114600000D01*
X219400000Y-113268628D02*
X219400000Y-111371491D01*
X219400000Y-111371491D02*
X215347325Y-107318816D01*
X232057646Y-115000000D02*
X230084872Y-115000000D01*
%TO.N,/Micocontroller/GPIO_26_PI*%
X236347325Y-113318816D02*
X235666141Y-114000000D01*
X220697058Y-114000000D02*
X219800000Y-113102942D01*
X235666141Y-114000000D02*
X220697058Y-114000000D01*
X219800000Y-108771491D02*
X218347325Y-107318816D01*
X219800000Y-113102942D02*
X219800000Y-108771491D01*
%TO.N,/Micocontroller/GPIO_16_PI*%
X220000000Y-117000000D02*
X216347325Y-113347325D01*
X221718816Y-117000000D02*
X220000000Y-117000000D01*
X222000000Y-116718816D02*
X221718816Y-117000000D01*
X216347325Y-113347325D02*
X216347325Y-112318816D01*
%TO.N,/Micocontroller/GPIO_18_PI*%
X196347325Y-123318816D02*
X185347325Y-112318816D01*
X226347325Y-123318816D02*
X196347325Y-123318816D01*
%TO.N,/Micocontroller/GPIO_17_PI*%
X186347325Y-107318816D02*
X191347325Y-112318816D01*
X191347325Y-115318816D02*
X197487204Y-121458695D01*
X191347325Y-112318816D02*
X191347325Y-115318816D01*
X226207446Y-121458695D02*
X227347325Y-120318816D01*
X185347325Y-107318816D02*
X186347325Y-107318816D01*
X197487204Y-121458695D02*
X226207446Y-121458695D01*
%TO.N,/Micocontroller/GPIO_6_PI*%
X218600000Y-112751471D02*
X214167345Y-108318816D01*
X214167345Y-108318816D02*
X211347325Y-108318816D01*
X220400000Y-115400000D02*
X218600000Y-113600000D01*
X227579980Y-115400000D02*
X220400000Y-115400000D01*
X218600000Y-113600000D02*
X218600000Y-112751471D01*
X228439778Y-116259798D02*
X227579980Y-115400000D01*
X211347325Y-108318816D02*
X210320000Y-107291491D01*
%TD*%
%TA.AperFunction,Conductor*%
%TO.N,+VSW*%
G36*
X77290364Y-57338501D02*
G01*
X77336119Y-57391305D01*
X77347325Y-57442816D01*
X77347325Y-60318816D01*
X107847325Y-60318816D01*
X107865606Y-60318816D01*
X107886659Y-60307320D01*
X107913017Y-60304486D01*
X133834379Y-60304486D01*
X133901418Y-60324171D01*
X133947173Y-60376975D01*
X133958379Y-60428486D01*
X133958379Y-62194816D01*
X133938694Y-62261855D01*
X133885890Y-62307610D01*
X133834379Y-62318816D01*
X108847325Y-62318816D01*
X108847325Y-100318816D01*
X125263018Y-100318816D01*
X125270009Y-100319316D01*
X125275364Y-100319316D01*
X125424641Y-100319316D01*
X125431632Y-100318816D01*
X149223325Y-100318816D01*
X149290364Y-100338501D01*
X149336119Y-100391305D01*
X149347325Y-100442816D01*
X149347325Y-102194816D01*
X149327640Y-102261855D01*
X149274836Y-102307610D01*
X149223325Y-102318816D01*
X107458379Y-102318816D01*
X85471325Y-102318816D01*
X85404286Y-102299131D01*
X85358531Y-102246327D01*
X85347325Y-102194816D01*
X85347325Y-100442816D01*
X85367010Y-100375777D01*
X85419814Y-100330022D01*
X85471325Y-100318816D01*
X106347325Y-100318816D01*
X106347325Y-62318816D01*
X77764583Y-62318816D01*
X77764583Y-71194816D01*
X77744898Y-71261855D01*
X77692094Y-71307610D01*
X77640583Y-71318816D01*
X74971325Y-71318816D01*
X74904286Y-71299131D01*
X74858531Y-71246327D01*
X74847325Y-71194816D01*
X74847325Y-57442816D01*
X74867010Y-57375777D01*
X74919814Y-57330022D01*
X74971325Y-57318816D01*
X77223325Y-57318816D01*
X77290364Y-57338501D01*
G37*
%TD.AperFunction*%
%TD*%
M02*
