%TF.GenerationSoftware,KiCad,Pcbnew,8.0.9-8.0.9-0~ubuntu22.04.1*%
%TF.CreationDate,2025-06-19T12:15:33-04:00*%
%TF.ProjectId,digital_waters,64696769-7461-46c5-9f77-61746572732e,rev?*%
%TF.SameCoordinates,Original*%
%TF.FileFunction,Soldermask,Top*%
%TF.FilePolarity,Negative*%
%FSLAX46Y46*%
G04 Gerber Fmt 4.6, Leading zero omitted, Abs format (unit mm)*
G04 Created by KiCad (PCBNEW 8.0.9-8.0.9-0~ubuntu22.04.1) date 2025-06-19 12:15:33*
%MOMM*%
%LPD*%
G01*
G04 APERTURE LIST*
G04 Aperture macros list*
%AMRoundRect*
0 Rectangle with rounded corners*
0 $1 Rounding radius*
0 $2 $3 $4 $5 $6 $7 $8 $9 X,Y pos of 4 corners*
0 Add a 4 corners polygon primitive as box body*
4,1,4,$2,$3,$4,$5,$6,$7,$8,$9,$2,$3,0*
0 Add four circle primitives for the rounded corners*
1,1,$1+$1,$2,$3*
1,1,$1+$1,$4,$5*
1,1,$1+$1,$6,$7*
1,1,$1+$1,$8,$9*
0 Add four rect primitives between the rounded corners*
20,1,$1+$1,$2,$3,$4,$5,0*
20,1,$1+$1,$4,$5,$6,$7,0*
20,1,$1+$1,$6,$7,$8,$9,0*
20,1,$1+$1,$8,$9,$2,$3,0*%
G04 Aperture macros list end*
%ADD10RoundRect,0.250000X0.412500X1.100000X-0.412500X1.100000X-0.412500X-1.100000X0.412500X-1.100000X0*%
%ADD11RoundRect,0.250000X-0.412500X-1.100000X0.412500X-1.100000X0.412500X1.100000X-0.412500X1.100000X0*%
%ADD12R,1.000000X1.900000*%
%ADD13RoundRect,0.100000X0.637500X0.100000X-0.637500X0.100000X-0.637500X-0.100000X0.637500X-0.100000X0*%
%ADD14RoundRect,0.150000X0.150000X-0.512500X0.150000X0.512500X-0.150000X0.512500X-0.150000X-0.512500X0*%
%ADD15RoundRect,0.250000X1.075000X-0.400000X1.075000X0.400000X-1.075000X0.400000X-1.075000X-0.400000X0*%
%ADD16R,1.000000X3.150000*%
%ADD17RoundRect,0.250000X1.100000X-0.412500X1.100000X0.412500X-1.100000X0.412500X-1.100000X-0.412500X0*%
%ADD18RoundRect,0.250000X0.400000X1.075000X-0.400000X1.075000X-0.400000X-1.075000X0.400000X-1.075000X0*%
%ADD19RoundRect,0.250000X-0.400000X-1.075000X0.400000X-1.075000X0.400000X1.075000X-0.400000X1.075000X0*%
%ADD20RoundRect,0.150000X-0.825000X-0.150000X0.825000X-0.150000X0.825000X0.150000X-0.825000X0.150000X0*%
%ADD21R,1.000000X2.510000*%
%ADD22C,2.700000*%
%ADD23RoundRect,0.250000X-1.075000X0.400000X-1.075000X-0.400000X1.075000X-0.400000X1.075000X0.400000X0*%
%ADD24R,2.510000X1.000000*%
%ADD25R,3.150000X1.000000*%
%ADD26C,3.000000*%
%ADD27RoundRect,0.150000X-0.150000X0.825000X-0.150000X-0.825000X0.150000X-0.825000X0.150000X0.825000X0*%
%ADD28R,0.400000X0.900000*%
%ADD29RoundRect,0.150000X-0.512500X-0.150000X0.512500X-0.150000X0.512500X0.150000X-0.512500X0.150000X0*%
%ADD30R,1.700000X1.700000*%
%ADD31O,1.700000X1.700000*%
%ADD32RoundRect,0.150000X-0.587500X-0.150000X0.587500X-0.150000X0.587500X0.150000X-0.587500X0.150000X0*%
%ADD33RoundRect,0.150000X0.587500X0.150000X-0.587500X0.150000X-0.587500X-0.150000X0.587500X-0.150000X0*%
%ADD34R,1.000000X3.000000*%
%ADD35RoundRect,0.150000X0.825000X0.150000X-0.825000X0.150000X-0.825000X-0.150000X0.825000X-0.150000X0*%
G04 APERTURE END LIST*
D10*
%TO.C,C5*%
X124747325Y-102818816D03*
X121622325Y-102818816D03*
%TD*%
D11*
%TO.C,C88*%
X86222325Y-99318816D03*
X89347325Y-99318816D03*
%TD*%
D12*
%TO.C,J11*%
X171197024Y-118137156D03*
X173737024Y-114837156D03*
X176277024Y-118137156D03*
X178817024Y-114837156D03*
X181357024Y-118137156D03*
X183897024Y-114837156D03*
X186437024Y-118137156D03*
X188977024Y-114837156D03*
X191517024Y-118137156D03*
X194057024Y-114837156D03*
X196597024Y-118137156D03*
X199137024Y-114837156D03*
X201677024Y-118137156D03*
X204217024Y-114837156D03*
X206757024Y-118137156D03*
X209297024Y-114837156D03*
X211837024Y-118137156D03*
X214377024Y-114837156D03*
X216917024Y-118137156D03*
X219457024Y-114837156D03*
%TD*%
D13*
%TO.C,U13*%
X106084825Y-90268816D03*
X106084825Y-89618816D03*
X106084825Y-88968816D03*
X106084825Y-88318816D03*
X106084825Y-87668816D03*
X106084825Y-87018816D03*
X106084825Y-86368816D03*
X100359825Y-86368816D03*
X100359825Y-87018816D03*
X100359825Y-87668816D03*
X100359825Y-88318816D03*
X100359825Y-88968816D03*
X100359825Y-89618816D03*
X100359825Y-90268816D03*
%TD*%
D11*
%TO.C,C27*%
X59722325Y-106818816D03*
X62847325Y-106818816D03*
%TD*%
D10*
%TO.C,C25*%
X124747325Y-97818816D03*
X121622325Y-97818816D03*
%TD*%
D11*
%TO.C,C26*%
X110215868Y-85337133D03*
X113340868Y-85337133D03*
%TD*%
D14*
%TO.C,U9*%
X107947325Y-80818816D03*
X108897325Y-80818816D03*
X109847325Y-80818816D03*
X109847325Y-78543816D03*
X107947325Y-78543816D03*
%TD*%
D15*
%TO.C,R25*%
X80347325Y-58918816D03*
X80347325Y-55818816D03*
%TD*%
D16*
%TO.C,J9*%
X223437644Y-121231932D03*
X223437644Y-116181932D03*
X225977644Y-121231932D03*
X225977644Y-116181932D03*
X228517644Y-121231932D03*
X228517644Y-116181932D03*
X231057644Y-121231932D03*
X231057644Y-116181932D03*
X233597644Y-121231932D03*
X233597644Y-116181932D03*
X236137644Y-121231932D03*
X236137644Y-116181932D03*
X238677644Y-121231932D03*
X238677644Y-116181932D03*
%TD*%
D17*
%TO.C,C7*%
X86347325Y-94318816D03*
X86347325Y-91193816D03*
%TD*%
D18*
%TO.C,R39*%
X191847325Y-85818816D03*
X188747325Y-85818816D03*
%TD*%
D17*
%TO.C,C4*%
X76847325Y-84818816D03*
X76847325Y-81693816D03*
%TD*%
D19*
%TO.C,R51*%
X93847325Y-113318816D03*
X96947325Y-113318816D03*
%TD*%
D20*
%TO.C,U4*%
X70872325Y-59413816D03*
X70872325Y-60683816D03*
X70872325Y-61953816D03*
X70872325Y-63223816D03*
X75822325Y-63223816D03*
X75822325Y-61953816D03*
X75822325Y-60683816D03*
X75822325Y-59413816D03*
%TD*%
D21*
%TO.C,J14*%
X121347325Y-89628816D03*
X123887325Y-86318816D03*
%TD*%
D10*
%TO.C,C13*%
X104847325Y-82318816D03*
X101722325Y-82318816D03*
%TD*%
D18*
%TO.C,R6*%
X83347325Y-62318816D03*
X80247325Y-62318816D03*
%TD*%
D22*
%TO.C,H4*%
X134347325Y-73318816D03*
%TD*%
D23*
%TO.C,R9*%
X78847325Y-98768816D03*
X78847325Y-101868816D03*
%TD*%
D22*
%TO.C,H10*%
X225361393Y-84555404D03*
%TD*%
%TO.C,H2*%
X100347325Y-73318816D03*
%TD*%
D23*
%TO.C,R10*%
X80847325Y-81618816D03*
X80847325Y-84718816D03*
%TD*%
D19*
%TO.C,R50*%
X102747325Y-109358816D03*
X105847325Y-109358816D03*
%TD*%
D24*
%TO.C,J3*%
X59347325Y-95818816D03*
X62657325Y-98358816D03*
%TD*%
D10*
%TO.C,C18*%
X96485343Y-92337966D03*
X93360343Y-92337966D03*
%TD*%
D11*
%TO.C,C20*%
X60722325Y-53318816D03*
X63847325Y-53318816D03*
%TD*%
D17*
%TO.C,C6*%
X82347325Y-94312655D03*
X82347325Y-91187655D03*
%TD*%
D25*
%TO.C,J8*%
X236587325Y-80858816D03*
X231537325Y-80858816D03*
X236587325Y-78318816D03*
X231537325Y-78318816D03*
X236587325Y-75778816D03*
X231537325Y-75778816D03*
X236587325Y-73238816D03*
X231537325Y-73238816D03*
X236587325Y-70698816D03*
X231537325Y-70698816D03*
X236587325Y-68158816D03*
X231537325Y-68158816D03*
X236587325Y-65618816D03*
X231537325Y-65618816D03*
%TD*%
D19*
%TO.C,R8*%
X127747325Y-99818816D03*
X130847325Y-99818816D03*
%TD*%
D15*
%TO.C,R46*%
X69487007Y-108418816D03*
X69487007Y-105318816D03*
%TD*%
D25*
%TO.C,J12*%
X154347325Y-120858816D03*
X149297325Y-120858816D03*
X154347325Y-118318816D03*
X149297325Y-118318816D03*
%TD*%
D24*
%TO.C,J5*%
X106847325Y-103858816D03*
X103537325Y-101318816D03*
%TD*%
%TO.C,J1*%
X58692325Y-73048816D03*
X62002325Y-75588816D03*
%TD*%
D23*
%TO.C,R21*%
X78847325Y-105218816D03*
X78847325Y-108318816D03*
%TD*%
D19*
%TO.C,R19*%
X127747325Y-111318816D03*
X130847325Y-111318816D03*
%TD*%
D26*
%TO.C,TP3*%
X103347325Y-78318816D03*
%TD*%
D20*
%TO.C,U1*%
X137397325Y-103008816D03*
X137397325Y-104278816D03*
X137397325Y-105548816D03*
X137397325Y-106818816D03*
X137397325Y-108088816D03*
X137397325Y-109358816D03*
X137397325Y-110628816D03*
X137397325Y-111898816D03*
X142347325Y-111898816D03*
X142347325Y-110628816D03*
X142347325Y-109358816D03*
X142347325Y-108088816D03*
X142347325Y-106818816D03*
X142347325Y-105548816D03*
X142347325Y-104278816D03*
X142347325Y-103008816D03*
%TD*%
D14*
%TO.C,U6*%
X154592357Y-98786419D03*
X155542357Y-98786419D03*
X156492357Y-98786419D03*
X156492357Y-96511419D03*
X155542357Y-96511419D03*
X154592357Y-96511419D03*
%TD*%
D18*
%TO.C,R4*%
X153447325Y-111818816D03*
X150347325Y-111818816D03*
%TD*%
D27*
%TO.C,U2*%
X214617325Y-73318816D03*
X213347325Y-73318816D03*
X212077325Y-73318816D03*
X210807325Y-73318816D03*
X210807325Y-78268816D03*
X212077325Y-78268816D03*
X213347325Y-78268816D03*
X214617325Y-78268816D03*
%TD*%
D24*
%TO.C,J4*%
X58847325Y-57818816D03*
X62157325Y-60358816D03*
X58847325Y-62898816D03*
%TD*%
%TO.C,JP3*%
X115347325Y-103398816D03*
X112037325Y-100858816D03*
X115347325Y-98318816D03*
%TD*%
D18*
%TO.C,R18*%
X63947325Y-66818816D03*
X60847325Y-66818816D03*
%TD*%
D12*
%TO.C,J16*%
X219452949Y-89431820D03*
X216912949Y-92731820D03*
X214372949Y-89431820D03*
X211832949Y-92731820D03*
X209292949Y-89431820D03*
X206752949Y-92731820D03*
X204212949Y-89431820D03*
X201672949Y-92731820D03*
X199132949Y-89431820D03*
X196592949Y-92731820D03*
X194052949Y-89431820D03*
X191512949Y-92731820D03*
X188972949Y-89431820D03*
X186432949Y-92731820D03*
X183892949Y-89431820D03*
X181352949Y-92731820D03*
X178812949Y-89431820D03*
X176272949Y-92731820D03*
X173732949Y-89431820D03*
X171192949Y-92731820D03*
%TD*%
D11*
%TO.C,C46*%
X153347325Y-64307584D03*
X156472325Y-64307584D03*
%TD*%
D15*
%TO.C,R7*%
X98847325Y-107318816D03*
X98847325Y-104218816D03*
%TD*%
D17*
%TO.C,C34*%
X148347325Y-99258155D03*
X148347325Y-96133155D03*
%TD*%
D11*
%TO.C,C22*%
X59722325Y-103038816D03*
X62847325Y-103038816D03*
%TD*%
%TO.C,C48*%
X153347325Y-60470084D03*
X156472325Y-60470084D03*
%TD*%
%TO.C,C95*%
X154682325Y-90168816D03*
X157807325Y-90168816D03*
%TD*%
D22*
%TO.C,H12*%
X225361393Y-107555404D03*
%TD*%
D17*
%TO.C,C32*%
X221347325Y-77088816D03*
X221347325Y-73963816D03*
%TD*%
D11*
%TO.C,C28*%
X59722325Y-79818816D03*
X62847325Y-79818816D03*
%TD*%
D22*
%TO.C,H14*%
X220000000Y-46000000D03*
%TD*%
D11*
%TO.C,C87*%
X86222325Y-103318816D03*
X89347325Y-103318816D03*
%TD*%
D24*
%TO.C,JP4*%
X115347325Y-115398816D03*
X112037325Y-112858816D03*
X115347325Y-110318816D03*
%TD*%
D11*
%TO.C,C19*%
X60722325Y-49318816D03*
X63847325Y-49318816D03*
%TD*%
D24*
%TO.C,J2*%
X62657325Y-116858816D03*
X59347325Y-114318816D03*
%TD*%
D28*
%TO.C,RN1*%
X67747325Y-114318816D03*
X68547325Y-114318816D03*
X69347325Y-114318816D03*
X70147325Y-114318816D03*
X70147325Y-112618816D03*
X69347325Y-112618816D03*
X68547325Y-112618816D03*
X67747325Y-112618816D03*
%TD*%
D11*
%TO.C,C93*%
X154682325Y-86668816D03*
X157807325Y-86668816D03*
%TD*%
D22*
%TO.C,H7*%
X195847325Y-49318816D03*
%TD*%
D18*
%TO.C,R38*%
X191847325Y-82318816D03*
X188747325Y-82318816D03*
%TD*%
D29*
%TO.C,U3*%
X60072325Y-87563816D03*
X60072325Y-88513816D03*
X60072325Y-89463816D03*
X62347325Y-89463816D03*
X62347325Y-87563816D03*
%TD*%
D22*
%TO.C,H16*%
X234000000Y-108000000D03*
%TD*%
%TO.C,H13*%
X55000000Y-46000000D03*
%TD*%
D23*
%TO.C,R26*%
X84347325Y-55818816D03*
X84347325Y-58918816D03*
%TD*%
D26*
%TO.C,TP2*%
X66347325Y-77318816D03*
%TD*%
D10*
%TO.C,C12*%
X104847325Y-94318816D03*
X101722325Y-94318816D03*
%TD*%
%TO.C,C3*%
X105847325Y-113358816D03*
X102722325Y-113358816D03*
%TD*%
D30*
%TO.C,J18*%
X160372325Y-56238816D03*
D31*
X160372325Y-58778816D03*
X160372325Y-61318816D03*
X160372325Y-63858816D03*
X160372325Y-66398816D03*
%TD*%
D15*
%TO.C,R22*%
X66847325Y-63318816D03*
X66847325Y-60218816D03*
%TD*%
D12*
%TO.C,U17*%
X152767325Y-83318816D03*
X155307325Y-80018816D03*
X157847325Y-83318816D03*
X160387325Y-80018816D03*
%TD*%
D23*
%TO.C,R49*%
X94347325Y-98718816D03*
X94347325Y-101818816D03*
%TD*%
D25*
%TO.C,J10*%
X231297325Y-55238816D03*
X236347325Y-55238816D03*
X231297325Y-57778816D03*
X236347325Y-57778816D03*
X231297325Y-60318816D03*
X236347325Y-60318816D03*
%TD*%
D10*
%TO.C,C2*%
X96847325Y-117318816D03*
X93722325Y-117318816D03*
%TD*%
D23*
%TO.C,R17*%
X68847325Y-81718816D03*
X68847325Y-84818816D03*
%TD*%
D22*
%TO.C,H8*%
X195847325Y-73318816D03*
%TD*%
D23*
%TO.C,R3*%
X72847325Y-81718816D03*
X72847325Y-84818816D03*
%TD*%
%TO.C,R11*%
X71347325Y-92718816D03*
X71347325Y-95818816D03*
%TD*%
D11*
%TO.C,C8*%
X83722325Y-115818816D03*
X86847325Y-115818816D03*
%TD*%
D22*
%TO.C,H11*%
X167361393Y-107555404D03*
%TD*%
%TO.C,H5*%
X159347325Y-49318816D03*
%TD*%
D11*
%TO.C,C21*%
X59722325Y-83818816D03*
X62847325Y-83818816D03*
%TD*%
D17*
%TO.C,C33*%
X139628373Y-99314561D03*
X139628373Y-96189561D03*
%TD*%
D18*
%TO.C,R52*%
X70847325Y-117818816D03*
X67747325Y-117818816D03*
%TD*%
D32*
%TO.C,U7*%
X110284825Y-88368816D03*
X110284825Y-90268816D03*
X112159825Y-89318816D03*
%TD*%
D11*
%TO.C,C16*%
X83722325Y-119818816D03*
X86847325Y-119818816D03*
%TD*%
D26*
%TO.C,TP5*%
X77347325Y-115318816D03*
%TD*%
D17*
%TO.C,C31*%
X217847325Y-77151316D03*
X217847325Y-74026316D03*
%TD*%
D10*
%TO.C,C23*%
X124747325Y-108318816D03*
X121622325Y-108318816D03*
%TD*%
D22*
%TO.C,H15*%
X55000000Y-122000000D03*
%TD*%
D15*
%TO.C,R42*%
X73847325Y-108418816D03*
X73847325Y-105318816D03*
%TD*%
D22*
%TO.C,H6*%
X159347325Y-73318816D03*
%TD*%
%TO.C,H3*%
X134347325Y-49318816D03*
%TD*%
D30*
%TO.C,J17*%
X132347325Y-63858816D03*
D31*
X132347325Y-61318816D03*
X132347325Y-58778816D03*
%TD*%
D19*
%TO.C,R20*%
X127747325Y-116818816D03*
X130847325Y-116818816D03*
%TD*%
D10*
%TO.C,C92*%
X74347325Y-70318816D03*
X71222325Y-70318816D03*
%TD*%
D23*
%TO.C,R47*%
X98847325Y-98718816D03*
X98847325Y-101818816D03*
%TD*%
D27*
%TO.C,U5*%
X78777325Y-88827655D03*
X77507325Y-88827655D03*
X76237325Y-88827655D03*
X74967325Y-88827655D03*
X74967325Y-93777655D03*
X76237325Y-93777655D03*
X77507325Y-93777655D03*
X78777325Y-93777655D03*
%TD*%
D23*
%TO.C,R48*%
X94347325Y-104218816D03*
X94347325Y-107318816D03*
%TD*%
D33*
%TO.C,U8*%
X96284825Y-89268816D03*
X96284825Y-87368816D03*
X94409825Y-88318816D03*
%TD*%
D10*
%TO.C,C24*%
X124747325Y-113818816D03*
X121622325Y-113818816D03*
%TD*%
D17*
%TO.C,C35*%
X144334291Y-99258155D03*
X144334291Y-96133155D03*
%TD*%
D22*
%TO.C,H1*%
X100347325Y-49318816D03*
%TD*%
D19*
%TO.C,R1*%
X127747325Y-91318816D03*
X130847325Y-91318816D03*
%TD*%
D17*
%TO.C,C58*%
X66847325Y-95818816D03*
X66847325Y-92693816D03*
%TD*%
D34*
%TO.C,J24*%
X172220000Y-105028508D03*
X172220000Y-110068508D03*
X174760000Y-105028508D03*
X174760000Y-110068508D03*
X177300000Y-105028508D03*
X177300000Y-110068508D03*
X179840000Y-105028508D03*
X179840000Y-110068508D03*
X182380000Y-105028508D03*
X182380000Y-110068508D03*
X184920000Y-105028508D03*
X184920000Y-110068508D03*
X187460000Y-105028508D03*
X187460000Y-110068508D03*
X190000000Y-105028508D03*
X190000000Y-110068508D03*
X192540000Y-105028508D03*
X192540000Y-110068508D03*
X195080000Y-105028508D03*
X195080000Y-110068508D03*
X197620000Y-105028508D03*
X197620000Y-110068508D03*
X200160000Y-105028508D03*
X200160000Y-110068508D03*
X202700000Y-105028508D03*
X202700000Y-110068508D03*
X205240000Y-105028508D03*
X205240000Y-110068508D03*
X207780000Y-105028508D03*
X207780000Y-110068508D03*
X210320000Y-105028508D03*
X210320000Y-110068508D03*
X212860000Y-105028508D03*
X212860000Y-110068508D03*
X215400000Y-105028508D03*
X215400000Y-110068508D03*
X217940000Y-105028508D03*
X217940000Y-110068508D03*
X220480000Y-105028508D03*
X220480000Y-110068508D03*
%TD*%
D17*
%TO.C,C29*%
X136147325Y-99318816D03*
X136147325Y-96193816D03*
%TD*%
D23*
%TO.C,R12*%
X84847325Y-81718816D03*
X84847325Y-84818816D03*
%TD*%
D10*
%TO.C,C17*%
X96347325Y-84319412D03*
X93222325Y-84319412D03*
%TD*%
%TO.C,C91*%
X74347325Y-66318816D03*
X71222325Y-66318816D03*
%TD*%
D22*
%TO.C,H9*%
X167361393Y-84555404D03*
%TD*%
D19*
%TO.C,R24*%
X127725404Y-105575465D03*
X130825404Y-105575465D03*
%TD*%
D35*
%TO.C,U11*%
X89347325Y-109858816D03*
X89347325Y-108588816D03*
X89347325Y-107318816D03*
X89347325Y-106048816D03*
X84397325Y-106048816D03*
X84397325Y-107318816D03*
X84397325Y-108588816D03*
X84397325Y-109858816D03*
%TD*%
D22*
%TO.C,H17*%
X166000000Y-122000000D03*
%TD*%
D25*
%TO.C,J13*%
X231347325Y-46318816D03*
X236397325Y-46318816D03*
X231347325Y-48858816D03*
X236397325Y-48858816D03*
%TD*%
D10*
%TO.C,C1*%
X124733730Y-93402492D03*
X121608730Y-93402492D03*
%TD*%
M02*
