%TF.GenerationSoftware,KiCad,Pcbnew,8.0.9-8.0.9-0~ubuntu22.04.1*%
%TF.CreationDate,2025-06-19T12:15:33-04:00*%
%TF.ProjectId,digital_waters,64696769-7461-46c5-9f77-61746572732e,rev?*%
%TF.SameCoordinates,Original*%
%TF.FileFunction,Copper,L3,Inr*%
%TF.FilePolarity,Positive*%
%FSLAX46Y46*%
G04 Gerber Fmt 4.6, Leading zero omitted, Abs format (unit mm)*
G04 Created by KiCad (PCBNEW 8.0.9-8.0.9-0~ubuntu22.04.1) date 2025-06-19 12:15:33*
%MOMM*%
%LPD*%
G01*
G04 APERTURE LIST*
%TA.AperFunction,ComponentPad*%
%ADD10R,1.700000X1.700000*%
%TD*%
%TA.AperFunction,ComponentPad*%
%ADD11O,1.700000X1.700000*%
%TD*%
%TA.AperFunction,ViaPad*%
%ADD12C,0.600000*%
%TD*%
%TA.AperFunction,Conductor*%
%ADD13C,0.200000*%
%TD*%
%TA.AperFunction,Conductor*%
%ADD14C,0.500000*%
%TD*%
G04 APERTURE END LIST*
D10*
%TO.N,+VSW*%
%TO.C,J18*%
X160372325Y-56238816D03*
D11*
X160372325Y-58778816D03*
%TO.N,GNDD*%
X160372325Y-61318816D03*
%TO.N,/I2C_SDA*%
X160372325Y-63858816D03*
%TO.N,/I2C_SCL*%
X160372325Y-66398816D03*
%TD*%
D10*
%TO.N,GNDA*%
%TO.C,J17*%
X132347325Y-63858816D03*
D11*
%TO.N,+VSW*%
X132347325Y-61318816D03*
%TO.N,Net-(J17-Pin_3)*%
X132347325Y-58778816D03*
%TD*%
D12*
%TO.N,GNDA*%
X114347325Y-89318816D03*
X143347325Y-113318816D03*
X140347325Y-92318816D03*
X119347325Y-108318816D03*
X103347325Y-88318816D03*
X143347325Y-92318816D03*
X136347325Y-92318816D03*
X119347325Y-114318816D03*
X142347325Y-113318816D03*
X92347325Y-88318816D03*
X119347325Y-95318816D03*
%TO.N,/Power/+2.5V_REF*%
X69347325Y-92318816D03*
X72347325Y-80318816D03*
%TO.N,+3.3V*%
X193347325Y-107318816D03*
X219453118Y-87540477D03*
X234347325Y-64318816D03*
X172220000Y-107191491D03*
X178812949Y-91318816D03*
X219784825Y-78651316D03*
%TO.N,+5V*%
X227347325Y-68158816D03*
X173347325Y-91318816D03*
%TO.N,VDDA*%
X134347325Y-99318816D03*
X111347325Y-91318816D03*
%TO.N,/Power/+2.5V_REF_BUF_A*%
X59847325Y-77818816D03*
X102347325Y-86318816D03*
%TO.N,/Micocontroller/GPIO_22*%
X190347325Y-107318816D03*
X216347325Y-101318816D03*
X227347325Y-78318816D03*
X213350684Y-114263532D03*
%TO.N,/Micocontroller/GPIO_21*%
X208347325Y-118318816D03*
X234537325Y-74698816D03*
X218000000Y-113000000D03*
%TO.N,/Micocontroller/GPIO_5*%
X238537325Y-76698816D03*
X197347325Y-120318816D03*
%TO.N,/Micocontroller/GPIO_4*%
X180347325Y-100318816D03*
X180347325Y-107318816D03*
X188347325Y-113318816D03*
X227347325Y-70698816D03*
%TO.N,Net-(J2-In)*%
X67747325Y-110158498D03*
X64347325Y-88318816D03*
%TO.N,/EN{slash}~{SH_0}*%
X207347325Y-107318816D03*
X185347325Y-118318816D03*
X157347325Y-99318816D03*
%TO.N,Net-(R12-Pad2)*%
X84347325Y-88318816D03*
X126347325Y-111318816D03*
%TO.N,Net-(U5B--)*%
X126347325Y-117318816D03*
X76347325Y-95318816D03*
%TO.N,/Micocontroller/GPIO_14*%
X234347325Y-70318816D03*
X191512949Y-95318816D03*
X179347325Y-99318816D03*
%TO.N,Net-(R21-Pad2)*%
X92347325Y-114318816D03*
X79347325Y-110318816D03*
%TO.N,/Micocontroller/GPIO_15*%
X182347325Y-112318816D03*
X227347325Y-73318816D03*
X183646479Y-100019662D03*
X181347325Y-116318816D03*
%TO.N,/I2C_SCL*%
X209410101Y-75256040D03*
X159047325Y-80018816D03*
X175347325Y-98318816D03*
X194052949Y-87318816D03*
%TO.N,/I2C_SDA*%
X208602325Y-76063816D03*
X196347325Y-86318816D03*
X174347325Y-99318816D03*
X155347325Y-82318816D03*
%TO.N,/Micocontroller/GPIO_12*%
X194347325Y-95318816D03*
X227347325Y-75879128D03*
X210347325Y-100318816D03*
%TO.N,/Micocontroller/GPIO_1*%
X237537325Y-82698816D03*
X206347325Y-111318816D03*
X213347325Y-117318816D03*
%TO.N,/Micocontroller/GPIO_25*%
X197347325Y-107318816D03*
X200234321Y-89431820D03*
X234537325Y-67698816D03*
%TO.N,/SPI_MOSI*%
X194347325Y-102318816D03*
X216347325Y-120318816D03*
X146347325Y-120318816D03*
X144347325Y-109358816D03*
%TO.N,/SPI_SCLK*%
X152069402Y-120318816D03*
X199137024Y-113529117D03*
X144347325Y-106818816D03*
X199137024Y-102529117D03*
%TO.N,/SPI_MISO*%
X197347325Y-102318816D03*
X144337787Y-108086424D03*
X148347325Y-117318816D03*
X200347325Y-118318816D03*
%TO.N,/SPI_CS0*%
X144347325Y-110628816D03*
X201347325Y-108318816D03*
X183847325Y-91818816D03*
%TO.N,/Base_Sensor/VBATT_BUF*%
X199342338Y-93318816D03*
X116347325Y-104318816D03*
%TO.N,/Base_Sensor/TEMP_SENSE_BUF*%
X116347325Y-114318816D03*
X201672949Y-94993192D03*
%TO.N,Net-(U4A--)*%
X71347325Y-58318816D03*
X125347325Y-99818816D03*
%TO.N,Net-(R24-Pad1)*%
X78097325Y-57068816D03*
X126347325Y-105575465D03*
%TO.N,/Base_Sensor/+4.096_REF_BUF_A*%
X83722325Y-117818816D03*
X105347325Y-91318816D03*
%TO.N,/Power/+2.5V_REF_BUF_B*%
X102347325Y-90318816D03*
X60847325Y-100318816D03*
%TO.N,/Power/+4.096_REF_BUF_B*%
X60347325Y-59318816D03*
X104397325Y-86368816D03*
%TO.N,+VSW*%
X76347325Y-70318816D03*
X76347325Y-58318816D03*
X107947325Y-82318816D03*
X144347325Y-101318816D03*
X148347325Y-101318816D03*
X107347325Y-94318816D03*
X76347325Y-66318816D03*
X146347325Y-101318816D03*
X86222325Y-101318816D03*
X108347325Y-85318816D03*
%TO.N,/Micocontroller/GPIO_2_ESP*%
X211347325Y-97318816D03*
X234347325Y-55318816D03*
X184347325Y-113318816D03*
%TO.N,/Micocontroller/GPIO_3_ESP*%
X210347325Y-114318816D03*
X234347325Y-58318816D03*
X212347325Y-97318816D03*
%TO.N,/Micocontroller/GPIO_34_ESP*%
X227347325Y-57778816D03*
X210347325Y-86318816D03*
%TO.N,/Micocontroller/GPIO_35_ESP*%
X208347325Y-86318816D03*
X227347325Y-55318816D03*
%TO.N,/Micocontroller/GPIO_39_ESP*%
X212347325Y-86318816D03*
X234347325Y-60318816D03*
%TO.N,/Micocontroller/GPIO_36_ESP*%
X227347325Y-60182153D03*
X215347325Y-86318816D03*
%TO.N,/Micocontroller/GPIO_27_PI*%
X187347325Y-107318816D03*
X231347325Y-119318816D03*
%TO.N,/Micocontroller/GPIO_7_PI*%
X233347325Y-119114739D03*
X205347325Y-112918816D03*
%TO.N,/Micocontroller/GPIO_0_PI*%
X205347325Y-107318816D03*
X237788130Y-118759620D03*
%TO.N,/Micocontroller/GPIO_20_PI*%
X224755279Y-116000000D03*
X217171591Y-112294553D03*
%TO.N,/Micocontroller/GPIO_23_PI*%
X222347325Y-122318816D03*
X190000000Y-111971491D03*
%TO.N,/Micocontroller/GPIO_13_PI*%
X213347325Y-107318816D03*
X230238002Y-115718816D03*
%TO.N,/Micocontroller/GPIO_24_PI*%
X193347325Y-112318816D03*
X235347325Y-118816859D03*
%TO.N,/Micocontroller/GPIO_19_PI*%
X232057646Y-115000000D03*
X215347325Y-107318816D03*
%TO.N,/Micocontroller/GPIO_26_PI*%
X218347325Y-107318816D03*
X236347325Y-113318816D03*
%TO.N,/Micocontroller/GPIO_16_PI*%
X216347325Y-112318816D03*
X222000000Y-116718816D03*
%TO.N,/Micocontroller/GPIO_18_PI*%
X185347325Y-112318816D03*
X226347325Y-123318816D03*
%TO.N,/Micocontroller/GPIO_17_PI*%
X185347325Y-107318816D03*
X227347325Y-120318816D03*
%TO.N,/Micocontroller/GPIO_6_PI*%
X210320000Y-107291491D03*
X228439778Y-116259798D03*
%TD*%
D13*
%TO.N,/Power/+2.5V_REF*%
X72347325Y-80318816D02*
X69347325Y-83318816D01*
X69347325Y-83318816D02*
X69347325Y-92318816D01*
D14*
%TO.N,+5V*%
X176347325Y-88318816D02*
X173347325Y-91318816D01*
X218347325Y-70318816D02*
X218347325Y-84379477D01*
X198347325Y-88318816D02*
X176347325Y-88318816D01*
X220507325Y-68158816D02*
X218347325Y-70318816D01*
X215407986Y-87318816D02*
X199347325Y-87318816D01*
X199347325Y-87318816D02*
X198347325Y-88318816D01*
X227347325Y-68158816D02*
X220507325Y-68158816D01*
X218347325Y-84379477D02*
X215407986Y-87318816D01*
D13*
%TO.N,/Micocontroller/GPIO_22*%
X216347325Y-111266891D02*
X213350684Y-114263532D01*
X216347325Y-101318816D02*
X216347325Y-111266891D01*
%TO.N,Net-(R12-Pad2)*%
X113347325Y-111318816D02*
X90347325Y-88318816D01*
X126347325Y-111318816D02*
X113347325Y-111318816D01*
X90347325Y-88318816D02*
X84347325Y-88318816D01*
%TO.N,Net-(U5B--)*%
X76347325Y-95318816D02*
X90347325Y-95318816D01*
X112347325Y-117318816D02*
X126347325Y-117318816D01*
X90347325Y-95318816D02*
X112347325Y-117318816D01*
%TO.N,/I2C_SCL*%
X159347325Y-85318816D02*
X172347325Y-98318816D01*
X209410101Y-76256040D02*
X198347325Y-87318816D01*
X209410101Y-75256040D02*
X209410101Y-76256040D01*
X186347325Y-79318816D02*
X194052949Y-87024440D01*
X172347325Y-98318816D02*
X175347325Y-98318816D01*
X159047325Y-80018816D02*
X159347325Y-80318816D01*
X159047325Y-80018816D02*
X159747325Y-79318816D01*
X198347325Y-87318816D02*
X194052949Y-87318816D01*
X159747325Y-79318816D02*
X186347325Y-79318816D01*
X194052949Y-87024440D02*
X194052949Y-87318816D01*
X159347325Y-80318816D02*
X159347325Y-85318816D01*
%TO.N,/I2C_SDA*%
X174347325Y-99318816D02*
X172781639Y-99318816D01*
X198347325Y-86318816D02*
X196347325Y-86318816D01*
X157098796Y-77718816D02*
X155347325Y-79470287D01*
X187747325Y-77718816D02*
X157098796Y-77718816D01*
X155347325Y-79470287D02*
X155347325Y-82318816D01*
X196347325Y-86318816D02*
X187747325Y-77718816D01*
X155781639Y-82318816D02*
X155347325Y-82318816D01*
X172781639Y-99318816D02*
X155781639Y-82318816D01*
X208602325Y-76063816D02*
X198347325Y-86318816D01*
%TO.N,/Micocontroller/GPIO_12*%
X194347325Y-95318816D02*
X195347325Y-96318816D01*
X202347325Y-96318816D02*
X206347325Y-100318816D01*
X206347325Y-100318816D02*
X210347325Y-100318816D01*
X195347325Y-96318816D02*
X202347325Y-96318816D01*
%TO.N,/Micocontroller/GPIO_1*%
X213347325Y-117318816D02*
X212347325Y-117318816D01*
X212347325Y-117318816D02*
X206347325Y-111318816D01*
%TO.N,/Micocontroller/GPIO_25*%
X219347325Y-85111800D02*
X219347325Y-79062345D01*
X221347325Y-69318816D02*
X232917325Y-69318816D01*
X219184825Y-71481316D02*
X221347325Y-69318816D01*
X200460329Y-89431820D02*
X200573333Y-89318816D01*
X200573333Y-89318816D02*
X215140309Y-89318816D01*
X219347325Y-79062345D02*
X219184825Y-78899845D01*
X200234321Y-89431820D02*
X200460329Y-89431820D01*
X232917325Y-69318816D02*
X234537325Y-67698816D01*
X219184825Y-78899845D02*
X219184825Y-71481316D01*
X215140309Y-89318816D02*
X219347325Y-85111800D01*
%TO.N,/SPI_MOSI*%
X196347325Y-104318816D02*
X194347325Y-102318816D01*
X216347325Y-120318816D02*
X200347325Y-120318816D01*
X164347325Y-102318816D02*
X157307325Y-109358816D01*
X196347325Y-116318816D02*
X196347325Y-104318816D01*
X194347325Y-102318816D02*
X164347325Y-102318816D01*
X200347325Y-120318816D02*
X196347325Y-116318816D01*
X144347325Y-109358816D02*
X157307325Y-109358816D01*
%TO.N,/SPI_SCLK*%
X163347325Y-101318816D02*
X157847325Y-106818816D01*
X199137024Y-102529117D02*
X199137024Y-113529117D01*
X157847325Y-106818816D02*
X144347325Y-106818816D01*
X197926723Y-101318816D02*
X163347325Y-101318816D01*
X199137024Y-102529117D02*
X197926723Y-101318816D01*
%TO.N,/SPI_MISO*%
X196747325Y-101718816D02*
X197347325Y-102318816D01*
X163947325Y-101718816D02*
X196747325Y-101718816D01*
X198347325Y-116318816D02*
X200347325Y-118318816D01*
X197347325Y-102318816D02*
X198347325Y-103318816D01*
X144337787Y-108086424D02*
X157579717Y-108086424D01*
X198347325Y-103318816D02*
X198347325Y-116318816D01*
X157579717Y-108086424D02*
X163947325Y-101718816D01*
%TO.N,/SPI_CS0*%
X174747325Y-100918816D02*
X183847325Y-91818816D01*
X144347325Y-110628816D02*
X143502325Y-110628816D01*
X142347325Y-109473816D02*
X142347325Y-107318816D01*
X142347325Y-107318816D02*
X143447325Y-106218816D01*
X143447325Y-106218816D02*
X157664482Y-106218816D01*
X201347325Y-103470287D02*
X201347325Y-108318816D01*
X174747325Y-100918816D02*
X198795854Y-100918816D01*
X143502325Y-110628816D02*
X142347325Y-109473816D01*
X198795854Y-100918816D02*
X201347325Y-103470287D01*
X157664482Y-106218816D02*
X162964482Y-100918816D01*
X162964482Y-100918816D02*
X174747325Y-100918816D01*
%TO.N,Net-(U4A--)*%
X106923061Y-93894552D02*
X71347325Y-58318816D01*
X106747325Y-94070287D02*
X106923061Y-93894552D01*
X111998796Y-99818816D02*
X106747325Y-94567345D01*
X125347325Y-99818816D02*
X111998796Y-99818816D01*
X106747325Y-94567345D02*
X106747325Y-94070287D01*
%TO.N,Net-(R24-Pad1)*%
X78097325Y-57068816D02*
X120247325Y-99218816D01*
X126947325Y-99570287D02*
X126947325Y-104975465D01*
X126595854Y-99218816D02*
X126947325Y-99570287D01*
X120247325Y-99218816D02*
X126595854Y-99218816D01*
X126947325Y-104975465D02*
X126347325Y-105575465D01*
%TO.N,/Micocontroller/GPIO_34_ESP*%
X227347325Y-57778816D02*
X218887325Y-57778816D01*
X215347325Y-61318816D02*
X218887325Y-57778816D01*
X215347325Y-61318816D02*
X215347325Y-81318816D01*
X215347325Y-81318816D02*
X210347325Y-86318816D01*
%TO.N,/Micocontroller/GPIO_35_ESP*%
X220347325Y-55318816D02*
X227347325Y-55318816D01*
X214347325Y-61318816D02*
X214347325Y-80318816D01*
X220347325Y-55318816D02*
X214347325Y-61318816D01*
X214347325Y-80318816D02*
X208347325Y-86318816D01*
%TO.N,/Micocontroller/GPIO_39_ESP*%
X216347325Y-61318816D02*
X216347325Y-82318816D01*
X234347325Y-60318816D02*
X233347325Y-59318816D01*
X218347325Y-59318816D02*
X233347325Y-59318816D01*
X218347325Y-59318816D02*
X216347325Y-61318816D01*
X216347325Y-82318816D02*
X212347325Y-86318816D01*
%TO.N,/Micocontroller/GPIO_36_ESP*%
X215347325Y-85318816D02*
X215347325Y-86318816D01*
X218983988Y-60182153D02*
X217347325Y-61818816D01*
X218983988Y-60182153D02*
X227347325Y-60182153D01*
X217347325Y-61818816D02*
X217347325Y-83318816D01*
X217347325Y-83318816D02*
X215347325Y-85318816D01*
%TD*%
M02*
